<?xml version="1.0" encoding="utf-8"?>
<!-- Generator: Adobe Illustrator 16.0.0, SVG Export Plug-In . SVG Version: 6.00 Build 0)  -->
<!DOCTYPE svg PUBLIC "-//W3C//DTD SVG 1.1//EN" "http://www.w3.org/Graphics/SVG/1.1/DTD/svg11.dtd">
<svg version="1.1" id="Layer_1" xmlns="http://www.w3.org/2000/svg" xmlns:xlink="http://www.w3.org/1999/xlink" x="0px" y="0px"
	 width="200px" height="100px" viewBox="0 0 200 100" enable-background="new 0 0 200 100" xml:space="preserve">
<g>
	<path fill="#414042" d="M167.461,61.26h-5.897v-9.495c0-2.385-0.854-4.013-2.988-4.013c-1.63,0-2.602,1.099-3.025,2.158
		c-0.157,0.381-0.196,0.911-0.196,1.44v9.91h-5.897c0,0,0.078-16.082,0-17.747h5.897v2.513c0.786-1.208,2.185-2.929,5.318-2.929
		c3.878,0,6.789,2.535,6.789,7.986V61.26z M143.241,41.089h-0.037c-1.979,0-3.259-1.362-3.259-3.066
		c0-1.741,1.318-3.065,3.337-3.065s3.259,1.324,3.299,3.065C146.581,39.727,145.301,41.089,143.241,41.089 M146.192,61.26h-5.9
		V43.513h5.9V61.26z M170.52,28.361H137.24c-1.594,0-2.888,1.26-2.888,2.815v33.67c0,1.555,1.294,2.815,2.888,2.815h33.279
		c1.595,0,2.888-1.261,2.888-2.815v-33.67C173.407,29.621,172.114,28.361,170.52,28.361"/>
</g>
<polygon fill="#414042" points="25.031,61.281 41.329,61.281 41.329,55.93 30.928,55.93 30.928,35.517 25.031,35.517 "/>
<path fill="#414042" d="M46.631,41.111c2.058,0,3.338-1.362,3.338-3.065c-0.039-1.741-1.28-3.065-3.297-3.065
	c-2.019,0-3.338,1.324-3.338,3.065c0,1.704,1.28,3.065,3.26,3.065H46.631z M49.583,43.535h-5.901v17.745h5.901V43.535z"/>
<path fill="#414042" d="M52.32,61.281h5.897v-9.91c0-0.53,0.041-1.06,0.196-1.441c0.426-1.058,1.396-2.155,3.025-2.155
	c2.135,0,2.99,1.628,2.99,4.012v9.495h5.897V51.104c0-5.45-2.91-7.987-6.791-7.987c-3.185,0-4.58,1.78-5.355,2.989h0.037v-2.571
	H52.32C52.398,45.199,52.32,61.281,52.32,61.281"/>
<path fill="#414042" d="M78.646,35.516h-5.899v25.764h5.899v-5.751l1.475-1.857l4.618,7.608h7.255l-7.76-11.014l6.792-7.496h-7.104
	c0,0-4.85,6.706-5.277,7.5V35.516z"/>
<path fill="#414042" d="M95.508,49.888c0.155-1.515,1.162-3.748,3.686-3.748c2.675,0,3.299,2.385,3.299,3.748H95.508z
	 M107.771,53.879c0.077-0.455,0.192-1.331,0.192-2.318c0-4.589-2.328-9.245-8.458-9.245c-6.56,0-9.585,5.186-9.585,9.89
	c0,5.821,3.686,9.454,10.127,9.454c2.561,0,4.929-0.378,6.868-1.175l-0.775-3.896c-1.591,0.53-3.222,0.793-5.24,0.793
	c-2.753,0-5.159-1.13-5.354-3.541l12.226,0.036V53.879z"/>
<path fill="#414042" d="M122.522,53.066c0,0.452-0.039,0.908-0.116,1.286c-0.348,1.628-1.747,2.762-3.453,2.762
	c-2.444,0-4.035-1.967-4.035-5.07c0-2.913,1.357-5.26,4.074-5.26c1.822,0,3.104,1.248,3.453,2.799
	c0.077,0.342,0.077,0.72,0.077,1.061V53.066z M122.522,35.516v8.92h-0.077c-0.854-1.25-2.639-2.082-5.004-2.082
	c-4.542,0-8.539,3.633-8.5,9.842c0,5.752,3.609,9.5,8.109,9.5c2.444,0,4.774-1.06,5.937-3.104h0.118l0.233,2.687h5.238
	c-0.078-1.249-0.157-3.405-0.157-5.524V35.516H122.522z"/>
</svg>
