<?xml version="1.0" encoding="utf-8"?>
<!-- Generator: Adobe Illustrator 16.0.0, SVG Export Plug-In . SVG Version: 6.00 Build 0)  -->
<!DOCTYPE svg PUBLIC "-//W3C//DTD SVG 1.1//EN" "http://www.w3.org/Graphics/SVG/1.1/DTD/svg11.dtd">
<svg version="1.1" id="Layer_1" xmlns="http://www.w3.org/2000/svg" xmlns:xlink="http://www.w3.org/1999/xlink" x="0px" y="0px"
	 width="200px" height="100px" viewBox="0 0 200 100" enable-background="new 0 0 200 100" xml:space="preserve">
<g>
	<path fill="#414042" d="M129.528,52.752h-3.07l1.588-3.914L129.528,52.752z M129.951,53.81l1.058,2.647h1.164l-4.127-10.16
		l-4.129,10.16h1.061l1.059-2.647H129.951z M122.648,56.457h-0.953v-9.631h0.953V56.457z M115.239,47.776
		c1.164,0,2.117,0.32,2.859,0.955c0.739,0.739,1.163,1.797,1.163,2.964c0,1.162-0.424,2.114-1.163,2.856
		c-0.636,0.635-1.587,0.952-2.859,0.952h-0.741v-7.728H115.239z M113.546,46.826v9.631h1.693l1.906-0.212
		c0.635-0.106,1.164-0.424,1.692-0.953c0.952-0.952,1.483-2.223,1.483-3.597c0-1.587-0.531-2.751-1.483-3.705l-1.692-0.953
		l-1.906-0.211H113.546z M111.746,47.776h-3.703v2.858h3.598v1.061h-3.598v3.809h3.703v0.953h-4.762v-9.631h4.762V47.776z
		 M95.449,56.457l1.8-10.16l3.386,8.043l3.281-8.043l1.906,10.16h-1.058l-1.167-6.561l-2.962,6.984l-2.962-6.984l-1.165,6.561
		H95.449z M93.65,46.826v2.118h-2.752v1.584h2.646v2.224h-2.646v1.588h2.752v2.117h-5.186v-9.631H93.65z M84.126,46.826v7.514h2.856
		v2.117h-5.186v-9.631H84.126z M80.422,46.826v2.118h-1.907v7.513h-2.433v-7.513h-1.906v-2.118H80.422z M72.801,46.826v9.631h-2.329
		l-4.339-5.929v5.929H63.7v-9.631h2.434l4.339,5.926v-5.926H72.801z M59.148,52.857h-2.01l0.953-3.067h0.105L59.148,52.857z
		 M56.926,46.826l-3.598,9.631h2.54l0.634-1.693h3.281l0.636,1.693h2.434l-3.387-9.631H56.926z M45.178,46.826l1.798,5.185
		l1.905-5.185h2.329l1.375,9.631h-2.328l-0.635-5.504L47.4,56.457h-0.952l-2.011-5.504h-0.105l-0.74,5.504h-2.329l1.482-9.631
		H45.178z M37.136,54.34h2.856v2.117h-5.185v-9.631h5.185v2.118h-2.856v1.584h2.646v2.224h-2.646V54.34z M28.881,48.731
		c1.057,0,1.588,0.421,1.588,1.165c0,0.845-0.531,1.268-1.588,1.268h-0.319v-2.433H28.881z M29.727,46.826h-3.492v9.631h2.327
		v-3.705l2.222,3.705h2.964l-2.857-3.914c0.635-0.105,1.164-0.427,1.48-0.953c0.319-0.531,0.531-1.062,0.531-1.799
		c0-0.953-0.319-1.694-0.953-2.224C31.42,47.038,30.68,46.826,29.727,46.826 M24.541,46.826v2.118h-2.858v1.584h2.541v2.224h-2.541
		v3.705h-2.434v-9.631H24.541z"/>
	<path fill="#414042" d="M163.5,30.95l0.105,0.106l-0.105,0.106l-0.108,0.317l-0.317,0.423l-0.104,0.214h-0.105v0.316l0.315,0.529
		l0.319,0.317l0.212,0.107l0.105,0.105h0.317c0.212,0.104,0.424,0.104,0.528,0l0.424-0.212h0.212h0.106l0.316-0.106
		c0.211,0,0.425-0.106,0.528-0.211l0.212-0.106v-0.212h0.212l-0.105-0.211h0.105l0.211-0.316v-0.107l0.108-0.318v-0.318
		c0-0.528-0.214-0.845-0.637-1.058h-0.424h-0.105l-0.105-0.105h-0.635l-0.318,0.105h-0.316l-0.105,0.106l-0.741,0.424L163.5,30.95z"
		/>
	<path fill="#414042" d="M177.258,43.438h0.105v0.106c0,0.212,0.107,0.317,0.213,0.423c0.211,0.106,0.528,0.212,0.846,0.106
		c0.212-0.106,0.317-0.317,0.317-0.423v-0.212v-0.105l-0.424-0.318l-0.211-0.211h-0.317l-0.106-0.106l-0.104,0.212l-0.105,0.105
		l-0.213,0.318V43.438z"/>
	<path fill="#414042" d="M179.585,52.011l-0.106,0.105h-0.104l-0.212,0.106c-0.212,0-0.319,0.105-0.319,0.423v0.424l0.107,0.105
		h0.106v0.105l0.105,0.106l0.315,0.105h0.106l0.743-0.105h0.105c0.212-0.212,0.317-0.526,0.317-0.844v-0.105h-0.105v-0.215
		l-0.636-0.212h-0.213l-0.212-0.105V52.011z"/>
	<path fill="#414042" d="M167.31,64.076l-0.212-0.212h-0.105l0.105-0.211v-0.106l-0.105-0.105h-0.107v-0.106l-0.316-0.211
		l-0.636-0.104h-0.634v0.104h-0.424c-0.212-0.104-0.423,0-0.634,0.317c-0.105,0.105-0.212,0.212-0.318,0.105h-0.105H163.5
		l-0.319-0.105v0.105l-0.315,0.317l-0.105,0.212l-0.213,0.105c0.107,0.106,0.213,0.106,0.213,0.106v0.105v0.105l-0.213,0.109v0.103
		v0.106c0,0.105,0.107,0.211,0.213,0.317h0.105v-0.106l0.105,0.106v0.423h0.421v0.106l-0.105,0.424l0.426,0.105l0.105,0.106h0.212
		l0.317,0.105l0.635,0.106h0.105l0.318-0.318l0.741-0.529l0.21-0.106h0.105v-0.105l0.317-0.106l0.425-0.105l0.212-0.105h0.105
		v-0.106l0.317,0.106h0.318l0.106-0.424v-0.103l-0.425-0.32h-0.211l-0.106,0.211l-0.212,0.109l-0.105-0.109h0.105V64.076z"/>
	<path fill="#414042" d="M165.722,54.446l0.74-2.013l0.214-0.633l0.104-0.425l0.105-0.212l0.108-0.527l0.104-0.212v-0.426
		l0.106-0.317v-0.208l0.105-0.106h-0.105l0.424-0.106h1.058l0.741,0.106h0.317l0.105,0.106l0.953,0.314l0.424,0.109l0.528,0.318
		l0.424,0.211h0.105l0.317,0.212l0.317,0.315l0.105,0.211v0.105h0.105l0.318,0.636v0.213l-0.212,1.057h-0.106l-0.105,0.317
		l-0.105,0.106l-0.107,0.211h-0.104l-0.105,0.213v0.105l-0.106-0.105l-0.74,0.635h-0.106l-0.319,0.212l-0.632,0.212h-0.105
		l-0.848,0.211l-0.636,0.106l-0.529,0.105h-1.27l-1.588,0.212l-0.423-0.105h-0.212l0.212-0.318l0.317-0.528L165.722,54.446z
		 M168.579,38.783l0.212,0.423v0.106v0.423l-0.105,0.105l0.105,0.106v0.106l-0.105,0.104l0.212,0.318v0.317l0.105,0.106v0.426
		l-0.105,0.633l-0.53,0.212c-0.316-0.425-0.739-0.53-1.163-0.425l-0.528,0.319l-0.319,0.211l-0.529-0.317l-0.105-0.107l-0.316-1.27
		h-0.106l-0.105-0.105c-0.212-0.212-0.318-0.318-0.318-0.421l0.106-0.212v-0.105h-0.106v-0.637l-0.106-0.315v-0.211
		c0.106-0.318,0.425-0.423,1.164-0.423h0.214l0.21,0.105h0.105l1.377,0.212l0.528,0.106L168.579,38.783z M140.64,51.905l0.105-0.104
		l0.106-0.105l0.213,0.105l0.421,0.104l0.317,0.105l0.319,0.215l0.528,0.314h0.212c0.212,0,0.317,0.105,0.424,0.212l0.105,0.105
		h0.105l0.212,0.105c0.212,0.106,0.423,0.212,0.529,0.212l0.635,0.317h0.317l0.213,0.212h0.104l1.06,0.212l0.317,0.106l0.317,0.212
		v0.423l0.106,1.271v0.317l0.105,0.635l-0.105,0.212l0.211,0.211v0.213h-0.105v0.106l0.212,0.635l0.106,0.423v0.314l0.106,0.109
		l0.105,0.423l-0.105,0.106l0.105,0.105l0.209,1.057V60.9h0.106v0.427l0.318,0.632v0.214l0.105,0.421l0.106,0.106v0.106h-0.106
		l-0.317,0.107l-1.799,0.421h-0.422l-0.426-0.105l-0.528-0.105l-0.105-0.104l-0.636-0.105l-0.423-0.214l-0.529-0.636l-0.317-0.42
		l-0.317-0.317v-0.109L142.65,60.9v-0.21h-0.211l-0.212-0.105l-0.105-0.108l-0.212-0.421l-0.53-0.529
		c-0.422-0.319-0.635-0.635-0.74-0.952l-0.318-0.424l-0.211-0.317l-0.106-0.211v-0.106l-0.211-0.741v-0.106l-0.105-0.105v-1.271
		l0.105-0.846l0.211-1.06V53.28l0.424-1.162L140.64,51.905z M142.65,44.497v0.105l-0.211,0.635l-0.106,0.212l-0.423,0.423
		l-0.213,0.423l-0.212,0.212v0.106l-0.315,0.423l-0.425,0.423v0.106l-0.212,0.317l-0.423,0.529
		c-0.106,0.317-0.317,0.424-0.423,0.424l-0.423-0.212V48.52l-0.106-0.106l-0.635-0.423l-0.105-0.211l-0.212-0.106v-0.106
		l0.212-0.317l0.105-0.317l0.316-0.423l0.848-0.847c0.212-0.317,0.423-0.424,0.528-0.424h0.105l0.743-0.317l0.315-0.106h0.212
		c0.318,0,0.636-0.106,0.848-0.317H142.65z M135.348,42.274l0.741-0.105l1.06,0.211h1.375l0.104,0.106l0.106-0.106l-0.106,0.106
		h0.848l0.317,0.108h0.528l0.212,0.105h0.425l0.422,0.106l0.53,0.209h0.636v0.106h-0.106l-0.529,0.106l-0.74,0.211l-1.588,0.529
		l-0.106,0.106h-0.211l-0.106,0.106l-0.318,0.105v0.106l-0.212,0.106l-0.422,0.423l-0.104,0.211l-0.425,0.424h-0.105v0.106
		l-0.211,0.317l-0.319,0.635l-0.106,0.105l-0.528-0.529l-0.528-0.423l-1.06-0.954l-1.057-0.847l-0.214-0.106l-0.212-0.423v-0.105
		l0.743-0.739h0.105l0.634-0.214h0.105l0.318-0.106H135.348z M152.811,45.026L152.811,45.026l0.106,0.106h0.528l0.211-0.211
		l0.211-0.106l0.849,0.106l0.211,0.105l0.636,0.212l0.212-0.106l0.424-0.106h0.21l0.317,0.106v0.106l1.271,0.53v-0.106h0.636
		l0.529,0.106l0.212,0.105l0.105,0.106l0.529,0.212c0.211,0.211,0.528,0.317,1.059,0.211l0.211-0.106h0.106h0.104l0.317,0.318
		c0.529,0.529,0.954,0.741,1.375,0.635c0.211,0,0.425,0.106,0.531,0.211l0.105,0.106l0.105-0.106v0.106l0.318,0.106h0.422
		l0.212,0.106l0.318,0.211l0.105,0.106l0.317,0.211l0.424,0.53v0.738l-0.107,0.956v0.211l-0.105,0.421l-0.105,0.531l-0.211,0.315
		l-0.105,0.423l-0.318,0.741v0.105l-0.105,0.212l-0.106,0.317l-0.74,1.482l-0.212,0.212l-0.211,0.106h-0.952l-1.588-0.106
		l-0.742-0.105l-1.374-0.106l-1.166-0.211h-1.058l-0.106-0.106v0.106l-0.317-0.106h-0.952l-0.529-0.105l-0.104-0.105h-0.741
		l-0.318-0.106h-0.635l-0.424-0.105l-0.211-0.212h-0.424l-0.105-0.105h-0.424l-0.529-0.212l-0.422-0.106V53.81l-0.105,0.106
		l-0.212-0.106l-0.531-0.105l-0.634-0.317L149,53.175v-0.212l-0.105-0.105v-0.105l-0.105-0.212v-1.587l0.105-1.903v-0.319L149,47.99
		l-0.105-0.211L149,46.72l0.106-0.847c0.105-0.529,0.212-0.953,0.319-1.165h0.422h1.799L152.811,45.026z M146.355,44.497
		l0.635,0.105l0.423,0.212l-0.212,1.271l-0.105,0.423v0.529l-0.105,0.318l0.105,0.423v0.423l-0.105,0.953v0.318l0.105,0.423
		l-0.105,0.741l0.105,0.315l-0.105,0.211l-0.106,0.531l0.106,0.105l-0.106,0.21c0,0.317-0.107,0.529-0.211,0.529l-0.528-0.106
		l-0.531-0.208l-0.423-0.215v-0.105h-0.105l-0.529-0.104l-0.106-0.105l-0.528-0.212l-0.317-0.319v-0.105l0.105-0.316v-0.105
		l-0.74-0.318l-0.423-0.105h-0.636l-0.107-0.106l0.107-0.321l0.317-0.314l0.635-1.271l0.106-0.106V47.99l0.211-0.317l0.106-0.212
		v-0.105l0.317-0.318l0.211-0.423l0.847-1.377l0.105-0.106v-0.106h0.106l0.634-0.317l0.531-0.317L146.355,44.497z M148.152,42.38
		l0.106,0.106c-0.106,0.319-0.421,0.635-0.74,0.847h-0.742l-0.632-0.212l0.632-0.527l0.531-0.214
		C147.625,42.169,147.838,42.169,148.152,42.38 M151.329,40.263l0.528-0.315l0.212-0.106h0.317l0.424-0.211h0.106l0.423-0.211h0.105
		l0.317-0.106h0.104l0.849-0.214v-0.106h0.106l0.316-0.105l0.424-0.104h0.846l0.317-0.106h0.212l0.105,0.106l0.106-0.106h1.798
		v-0.105h0.214v0.105h0.105c0.529,0.421,1.058,0.529,1.693,0.421v-0.106h0.106l0.633-0.105l0.529,0.319l0.318,0.317
		c0.527,0.529,0.845,1.056,0.953,1.374v0.109l0.212,1.162c0,0.637-0.212,1.375-0.531,2.116l-0.106,0.212l-0.314,0.317h-0.531
		l-0.529-0.106l-0.845-0.211l-0.953-0.212l-1.27-0.211h-0.53l-0.846-0.212h-0.741l-1.376-0.211h-0.423l-0.953-0.106h-0.317
		l-0.317-0.106h-0.529l-0.529,0.106h-0.212l-0.635-0.106l-1.587-0.105l-0.106-0.212l0.211-0.741l-0.104-0.106v-0.105l0.212-0.425
		l0.106-0.42l0.104-0.106h-0.104v-0.106l0.104-0.105v-0.321l0.531-0.211h0.316L151.329,40.263z M154.081,36.135h0.424h1.058
		l0.212,0.106h0.105v0.107l0.212-0.107h0.106l-0.212,0.213h-0.106l-0.848,0.317l-0.634,0.106l-0.211,0.105l-0.425,0.106
		l-0.213,0.106l-0.526,0.213l-0.319,0.21l-0.317,0.106l-0.423,0.105l-0.212,0.213h-0.105l-0.636,0.317l0.425-0.636l0.422-0.529
		l0.529-0.529v0.106l0.317-0.211l0.106-0.106h0.106v-0.106l0.211-0.107l0.635-0.106H154.081z M151.011,32.962
		c0.425,0.74,0.847,1.058,1.376,1.164l1.059,0.105h0.211v0.106h0.742l0.846,0.106h0.318l0.424,0.106v0.21l0.105-0.105l0.106,0.105
		l0.422,0.211l0.105,0.106h0.317l0.106,0.106h0.106l0.74,0.107l0.105,0.104h0.106l0.212,0.108l0.422,0.104l0.214,0.319
		c-0.108,0.106-0.214,0.209-0.424,0.209l-1.058-0.209l-0.531-0.108l-0.635-0.104l-0.316-0.108h-0.423l-0.425-0.104h-0.739v-0.108
		h-1.481l-0.319,0.108h-0.105l-0.635,0.212l-0.424,0.104l-0.211,0.214l-0.529,0.422l-0.952,0.954v0.104l-0.107,0.106l-0.422,0.742
		l-0.212,0.423l-0.529,0.529l-0.318,0.211l-0.21,0.212l-0.424,0.211l-0.106,0.209h-0.105l-1.375,1.693l-0.319,0.319l-0.422,0.317
		l-0.636,0.423h-0.635l-0.212-0.104L143.18,42.7l-0.211-0.105h-0.318l-0.211-0.108l-0.424-0.106l-0.318-0.106h-0.212l-0.634-0.105
		l-0.212-0.106h-0.529l-0.423-0.106h-0.742l-0.105-0.107h-0.951l-0.106-0.106h-0.318l-0.74-0.105h-1.588l-0.528,0.105l-0.952,0.213
		h-0.107v0.106h-0.106l-0.314,0.106c-0.531,0.317-0.742,0.741-0.742,1.164v0.105l0.105,0.106v0.106l0.531,0.529l0.42,0.317
		l0.426,0.848l0.423,0.741l0.317,0.529v0.105h0.106c0.21,0.106,0.422,0.317,0.739,0.635l0.53,0.529v0.106l0.211,0.106l0.529,0.423
		l0.105,0.318l0.212,0.106v0.211h0.107l0.212,0.106c0.104,0.212,0.211,0.314,0.316,0.314l0.212,0.211l0.317,0.212v0.109h0.105
		l0.423,0.317v0.212l-0.106,0.632v0.214c-0.104,0.212-0.21,0.527-0.21,0.845l-0.316,0.529v0.317l-0.107,0.212l-0.105,0.317v0.105
		l-0.106,0.318l0.106,0.424v0.105h0.105h-0.105v0.847l0.105,0.847v0.106l-0.105,0.105h0.105l0.107,0.212l0.104,0.317v0.317
		l0.105,0.213l0.423,0.952l0.318,0.42l0.317,0.318v0.108l0.212,0.105l0.422,0.635v0.315l-0.104,0.318V60.9l0.316,0.215l0.212,0.103
		l0.424,0.109h0.106l0.422,0.211l0.317,0.421l0.213,0.32l0.529,0.527v0.107h0.106l0.104,0.105l0.212,0.315h0.106l0.423,0.318h0.105
		v0.105l0.424,0.212h0.105l1.059,0.211l0.105,0.106l0.634-0.106l0.32,0.106v0.105h0.422l0.424-0.105h0.635l0.74-0.106L149,63.971
		h0.212l0.106,0.423l0.211,0.529l0.211,0.317l0.317,0.741l1.482,1.8l0.106,0.212l0.105-0.106v0.106l0.105,0.105v0.105l0.529,0.318
		l0.212,0.211l0.529,0.106l0.422,0.317l0.106,0.105h0.319l0.212,0.105v0.106l0.739,0.106l0.529,0.106l0.106,0.103l0.106-0.103h0.211
		l0.106,0.103l0.422-0.103c0.317,0,0.635-0.106,0.741-0.213c0.212-0.106,0.319-0.317,0.425-0.529
		c0.21-0.317,0.315-0.741,0.315-1.164v-0.212V67.04l-0.211-0.528l-0.21-0.106c-0.319,0-0.531,0.212-0.743,0.635l-0.105,0.212v0.212
		l-0.212,0.529l-0.21,0.423l-0.424,0.212h-0.105l-0.106,0.105h-0.424l-0.634-0.317h-0.212l-0.426-0.212l-0.317-0.211
		c-0.104-0.106-0.422-0.212-0.739-0.529l-0.424-0.212l-0.423-0.529c-0.528-0.741-0.953-1.271-1.059-1.588l-0.105-0.212l-0.106-0.105
		l-0.21-0.529c-0.108-0.317-0.212-0.635-0.212-0.741l0.634-1.06v-0.105l0.105-0.209l0.106-0.426v-0.209l-0.106-0.32l-0.105-0.103
		v-0.109L150.8,60.9l-0.211,0.105l-0.531,0.212l-0.21,0.109L149.74,60.9l-0.104-0.633v-0.106l-0.106-0.211l0.106-0.106l-0.21-0.531
		h0.104l-0.104-0.209l0.104-0.109l-0.104-0.103l-0.107-1.059l-0.106-0.741l0.106-0.212l-0.212-1.059V55.61l0.105-0.106h-0.105
		C149,55.398,149,55.081,149,54.657h0.106l0.105,0.106h0.106l0.529,0.105l0.527,0.212l0.848,0.105l0.529,0.105l0.105,0.106h0.529
		l0.637,0.105h0.316l1.587,0.212h0.317l0.212,0.105l0.106-0.105h0.424l0.316,0.105h0.529l0.424,0.106h0.528v0.105l0.53-0.105
		c0.105,0.105,0.317,0.211,0.423,0.105h0.104l0.105,0.105h1.589v0.106h0.636l0.105,0.212l0.106-0.106l0.315-0.105h0.212l0.424,0.105
		h0.739l0.212,0.106l-0.212,0.423l-0.209,0.317l-0.105,0.105l-0.213,0.319h-0.212v0.105l-0.317,0.635l-0.951,0.95l-0.106,0.214
		l-0.213,0.212l-0.211,0.317l-0.528,0.315l-0.212,0.105v0.108h-0.105l-0.635,0.633l-0.214,0.109l-0.422,0.317h-0.212l-0.739,0.528
		l-0.426,0.314l-0.105,0.106h-0.212V62.7l-0.739,0.319l-0.53,0.21l-0.212,0.105l-1.481,0.424h-0.106l-0.739,0.105l-0.213-0.105
		v0.423h0.213l0.106,0.106l2.009-0.212l0.637-0.105l0.846-0.317l0.528-0.212l1.059-0.741h0.106l0.529-0.421l0.529-0.32l0.317-0.212
		c0.424-0.103,0.74-0.314,0.952-0.632v-0.109l1.587-1.479l0.637-0.635l0.314-0.423l1.272-1.801l0.212-0.211h2.221l0.425-0.106h2.116
		l0.106-0.105h0.317l0.741-0.106l0.212-0.105l0.105,0.105l0.104-0.105l0.741-0.212l0.53-0.105h0.105l0.74-0.424l1.059-0.635
		l0.105-0.105c0.424-0.424,0.636-0.848,0.742-1.165l0.209-0.212v-0.105l0.106-0.741l-0.21-0.74l-0.105-0.318l-0.318-0.632
		l-0.741-0.741l-0.317-0.214l-0.212-0.208l-1.058-0.742l-0.212-0.105l-0.317-0.106l-0.426-0.317h-0.103l-0.319-0.106l-0.104-0.106
		l-0.317-0.211h-0.105l-0.319-0.106l-0.529-0.317l-0.211-0.212v-0.847l0.106-0.741h0.104l0.318-0.954l0.316-0.529l0.637-0.847
		c0.424-0.527,0.74-1.164,0.952-1.797l0.105-0.106l-0.105-0.106l0.105-0.532v-0.317l0.105-0.633l0.424-0.637h-0.105l0.105-0.106
		v-0.209c0-0.529-0.211-0.954-0.635-1.165l-0.637-0.847l-0.315-0.317l-0.423-0.213c-0.214-0.315-0.426-0.423-0.743-0.315
		l-0.846-0.108h-0.74l-0.953-0.315h-4.023l-1.269,0.315l-0.212,0.108l-0.739-0.531l-0.425-0.317l-0.105-0.106
		c-0.105,0-0.316-0.105-0.634-0.211v-0.105l-1.482-0.529l-0.424-0.212l-0.105-0.107h-0.104l-0.742-0.21l-0.106-0.106v0.106
		c-0.105,0-0.317-0.106-0.634-0.317v-0.106l-0.636-0.211l-0.845-0.318v-0.105h-0.106l-0.317-0.106l-0.425-0.212h-0.213v-0.105
		h-0.104l-0.422-0.211c-0.954-0.105-1.588,0-1.906,0.316l-0.106,0.423v0.106v0.106V32.962z"/>
</g>
</svg>
