<?xml version="1.0" encoding="utf-8"?>
<!-- Generator: Adobe Illustrator 16.0.0, SVG Export Plug-In . SVG Version: 6.00 Build 0)  -->
<!DOCTYPE svg PUBLIC "-//W3C//DTD SVG 1.1//EN" "http://www.w3.org/Graphics/SVG/1.1/DTD/svg11.dtd">
<svg version="1.1" id="Layer_1" xmlns="http://www.w3.org/2000/svg" xmlns:xlink="http://www.w3.org/1999/xlink" x="0px" y="0px"
	 width="200px" height="100px" viewBox="0 0 200 100" enable-background="new 0 0 200 100" xml:space="preserve">
<g>
	<g>
		<path fill="#414042" d="M71.532,25.861c-3.089,2.792-4.214,9.115,1.356,12.81l22.221,15.208L84.335,29.255
			C82.078,23.444,75.9,22.178,71.532,25.861"/>
		<path fill="#414042" d="M90.66,13.889c-3.612,0.075-9.037,4.365-6.623,10.917l11.144,26.22l3.915-27.579
			C100.002,16.594,94.806,13.434,90.66,13.889"/>
		<path fill="#414042" d="M100.836,22.397h2.107c0,0,1.125,0,1.278,0.53c-0.829,0.674-3.086,0.759-2.787,4.367l3.542,23.727
			l11.067-26.287c2.266-5.87-2.486-10.772-6.703-10.921c-0.195-0.012-0.393-0.025-0.598-0.025
			C104.961,13.787,100.625,16.529,100.836,22.397"/>
		<path fill="#414042" d="M115.6,29.479l-10.468,24.329l22.214-15.289c5.121-3.623,4.295-9.416,1.428-12.28
			c-1.201-1.349-3.407-2.389-5.744-2.389C120.268,23.85,117.312,25.311,115.6,29.479"/>
		<path fill="#414042" d="M124.858,41.98l-20.862,14.537h25.688c5.271,0,8.656-5.422,7.151-10.394
			c-1.008-3.128-3.992-5.581-7.455-5.586C127.923,40.537,126.378,40.978,124.858,41.98"/>
		<path fill="#414042" d="M70.934,56.517h25.309L75.374,41.98c-4.82-3.09-10.241-1.281-12.198,3.845
			C61.517,51.697,65.66,56.517,70.934,56.517"/>
		<path fill="#414042" d="M93.188,60.398v24.776h12.05c2.86,0,6.261-2.861,6.261-6.597c0-3.904-2.559-5.822-4.176-6.596
			c0,0,2.962-1.718,2.83-5.423c-0.134-4.981-4.747-6.161-6.33-6.161H93.188z M98.302,64.574h3.738
			c1.28,0.069,2.791,1.013,2.791,2.762c0,1.715-1.144,2.859-2.621,3.065h-3.908V64.574z M98.37,74.607h4.545
			c1.044,0.064,2.896,0.976,2.896,3.13c0,2.255-1.923,3.165-2.963,3.268H98.37V74.607z"/>
	</g>
	<polygon fill="#414042" points="69.455,85.175 74.706,85.175 74.706,70.904 90.324,86.115 90.324,60.398 85.076,60.398 
		85.076,74.304 69.455,59.391 	"/>
	<g>
		<path fill="#414042" d="M112.341,72.52c0.132,7.833,5.774,13.693,13.029,13.693c1.719,0,3.53-0.326,5.383-1.038v-5.049
			c-1.467,0.896-3.1,1.326-4.7,1.326c-4.391,0-8.532-3.239-8.36-9.135c0.296-4.779,4.219-8.082,8.447-8.082
			c1.548,0,3.141,0.443,4.612,1.416v-4.912c-1.716-0.694-3.42-1.005-5.063-1.005C118.451,59.734,112.48,65.823,112.341,72.52"/>
	</g>
</g>
</svg>
