<?xml version="1.0" encoding="utf-8"?>
<!-- Generator: Adobe Illustrator 16.0.0, SVG Export Plug-In . SVG Version: 6.00 Build 0)  -->
<!DOCTYPE svg PUBLIC "-//W3C//DTD SVG 1.1//EN" "http://www.w3.org/Graphics/SVG/1.1/DTD/svg11.dtd">
<svg version="1.1" id="Layer_1" xmlns="http://www.w3.org/2000/svg" xmlns:xlink="http://www.w3.org/1999/xlink" x="0px" y="0px"
	 width="200px" height="100px" viewBox="0 0 200 100" enable-background="new 0 0 200 100" xml:space="preserve">
<g>
	<path fill="#414042" d="M60.591,42.536H42.498v5.368H55.33c-0.634,7.529-6.898,10.74-12.809,10.74
		c-7.565,0-14.168-5.952-14.168-14.294c0-8.128,6.295-14.384,14.184-14.384c6.086,0,9.673,3.877,9.673,3.877l3.759-3.893
		c0,0-4.825-5.372-13.625-5.372c-11.207,0-19.876,9.459-19.876,19.674c0,10.012,8.155,19.771,20.163,19.771
		c10.559,0,18.289-7.232,18.289-17.93c0-2.254-0.327-3.562-0.327-3.562V42.536z"/>
	<path fill="#414042" d="M75.487,43.625c3.651,0,7.112,2.955,7.112,7.708c0,4.656-3.447,7.692-7.127,7.692
		c-4.047,0-7.239-3.238-7.239-7.731C68.233,46.907,71.386,43.625,75.487,43.625 M75.413,38.646c-7.423,0-12.745,5.804-12.745,12.574
		C62.668,58.087,67.83,64,75.5,64c6.945,0,12.634-5.306,12.634-12.632C88.135,42.972,81.517,38.646,75.413,38.646"/>
	<path fill="#414042" d="M103.208,43.625c3.649,0,7.109,2.955,7.109,7.708c0,4.656-3.444,7.692-7.127,7.692
		c-4.047,0-7.239-3.238-7.239-7.731C95.952,46.907,99.104,43.625,103.208,43.625 M103.134,38.646
		c-7.426,0-12.747,5.804-12.747,12.574c0,6.866,5.162,12.779,12.835,12.779c6.942,0,12.634-5.306,12.634-12.632
		C115.855,42.972,109.235,38.646,103.134,38.646"/>
	<path fill="#414042" d="M130.815,43.629c3.34,0,6.77,2.854,6.77,7.723c0,4.952-3.424,7.681-6.846,7.681
		c-3.632,0-7.013-2.947-7.013-7.634c0-4.866,3.512-7.77,7.087-7.77H130.815z M130.321,38.658c-6.814,0-12.173,5.972-12.173,12.671
		c0,7.63,6.211,12.687,12.056,12.687c3.612,0,5.533-1.433,6.952-3.079v2.499c0,4.376-2.656,6.996-6.664,6.996
		c-3.873,0-5.815-2.881-6.489-4.516l-4.874,2.039c1.729,3.655,5.209,7.467,11.402,7.467c6.777,0,11.941-4.271,11.941-13.216V39.421
		h-5.316v2.149C135.523,39.807,133.287,38.658,130.321,38.658z"/>
	<path fill="#414042" d="M166.327,43.505c2.316,0,3.984,1.23,4.693,2.709l-11.354,4.745
		C159.176,47.285,162.658,43.505,166.327,43.505 M166.107,38.627c-6.429,0-11.826,5.115-11.826,12.663
		c0,7.984,6.017,12.722,12.443,12.722c5.364,0,8.655-2.935,10.621-5.562l-4.383-2.916c-1.137,1.764-3.039,3.488-6.213,3.488
		c-3.562,0-5.201-1.954-6.217-3.842l17-7.054l-0.882-2.067C175.008,42.01,171.178,38.627,166.107,38.627z"/>
	<rect x="146.177" y="25.89" fill="#414042" width="5.584" height="37.371"/>
</g>
</svg>
