<?xml version="1.0" encoding="utf-8"?>
<!-- Generator: Adobe Illustrator 16.0.0, SVG Export Plug-In . SVG Version: 6.00 Build 0)  -->
<!DOCTYPE svg PUBLIC "-//W3C//DTD SVG 1.1//EN" "http://www.w3.org/Graphics/SVG/1.1/DTD/svg11.dtd">
<svg version="1.1" id="Layer_1" xmlns="http://www.w3.org/2000/svg" xmlns:xlink="http://www.w3.org/1999/xlink" x="0px" y="0px"
	 width="200px" height="100px" viewBox="0 0 200 100" enable-background="new 0 0 200 100" xml:space="preserve">
<path fill="#414042" d="M128.861,17.292H69.689c-2.028,0-3.671,1.643-3.671,3.671v59.172c0,2.026,1.643,3.671,3.671,3.671h31.855
	V58.05h-8.667V48.011h8.667v-7.403c0-8.592,5.249-13.27,12.912-13.27c3.671,0,6.826,0.273,7.745,0.396v8.979l-5.315,0.001
	c-4.168,0-4.974,1.98-4.974,4.887v6.41h9.939l-1.294,10.039h-8.646v25.757h16.948c2.026,0,3.671-1.645,3.671-3.671V20.964
	C132.532,18.935,130.888,17.292,128.861,17.292"/>
</svg>
