<?xml version="1.0" encoding="utf-8"?>
<!-- Generator: Adobe Illustrator 16.0.0, SVG Export Plug-In . SVG Version: 6.00 Build 0)  -->
<!DOCTYPE svg PUBLIC "-//W3C//DTD SVG 1.1//EN" "http://www.w3.org/Graphics/SVG/1.1/DTD/svg11.dtd">
<svg version="1.1" id="Layer_1" xmlns="http://www.w3.org/2000/svg" xmlns:xlink="http://www.w3.org/1999/xlink" x="0px" y="0px"
	 width="200px" height="100px" viewBox="0 0 200 100" enable-background="new 0 0 200 100" xml:space="preserve">
<g>
	<path fill="#414042" d="M93.978,36.028h-2.864V32.51c0-1.461,0.291-2.265,1.461-2.265c0.672,0,1.285,0.538,1.812,1.434
		c0.087,0.119,0.235,0.238,0.347,0.238c0.15,0,0.208-0.3,0.293-0.568l0.819-2.173c-4.498,0-7.742,1.4-7.742,5.902v0.951h-2.159
		l-0.382,0.954h2.542v10.046c0,1.876-0.085,2.953-1.403,3.487c-0.146,0.061-0.408,0.092-0.408,0.184
		c0,0.058,0.176,0.085,0.408,0.085h5.816c0.292,0,0.408-0.028,0.408-0.085c0-0.062-0.174-0.123-0.295-0.123
		c-1.49-0.804-1.518-1.672-1.518-3.548V36.981h2.601L93.978,36.028z"/>
	<path fill="#414042" d="M111.693,35.166V47c0,2.473,0.352,3.249,1.607,3.576c0.119,0.031,0.175,0.061,0.175,0.089
		c0,0.091-0.175,0.119-0.379,0.119h-3.479c-0.434-0.984-0.697-2.023-0.755-3.426h-0.062c-0.966,2.653-2.689,3.875-5.696,3.875
		c-4.179,0-6.226-1.638-6.226-6.442v-6.018c0-1.73-0.114-2.088-0.932-2.387c-0.233-0.058-0.438-0.146-0.438-0.235
		c0-0.092,0.173-0.092,0.438-0.122c1.316-0.177,2.542-0.474,3.943-0.862v9.658c0,2.745,1.196,5.66,4.297,5.66
		c3.034,0,4.498-2.949,4.498-5.721v-5.99c0-1.819-0.32-2.207-0.85-2.473c-0.26-0.15-0.379-0.184-0.379-0.211
		c0-0.092,0.321-0.15,0.468-0.18C109.064,35.728,110.232,35.523,111.693,35.166"/>
	<path fill="#414042" d="M118.979,35.166c-1.079,0.388-2.276,0.593-3.68,0.862c-0.349,0.061-0.553,0.061-0.553,0.149
		c0,0.062,0.204,0.15,0.525,0.296c0.815,0.361,1.021,1.375,1.021,3.164v7.39c0,1.876-0.116,3.279-1.577,3.521
		c-0.204,0.027-0.32,0.088-0.32,0.177c0,0.119,0.085,0.15,0.263,0.15c0.204,0,1.55-0.092,3.123-0.092
		c1.577,0,2.778,0.092,2.98,0.092c0.177,0,0.266-0.031,0.266-0.15c0-0.089-0.119-0.15-0.321-0.177
		c-1.313-0.242-1.405-7.155-1.405-7.155c0-4.175,1.143-7.812,4.618-7.812c3.096,0,4.294,2.922,4.294,5.663v5.783
		c0,2.656-0.528,3.457-1.577,3.579c-0.205,0.03-0.263,0.119-0.263,0.177c0,0.092,0.146,0.092,0.32,0.092
		c0.376,0,1.434-0.092,3.011-0.092c1.604,0,2.366,0.092,2.626,0.092c0.293,0,0.439,0,0.439-0.092c0-0.058-0.174-0.147-0.379-0.208
		c-0.847-0.299-1.226-0.715-1.17-3.548v-5.755c0-4.734-3.008-6.434-6.22-6.434c-3.857,0-5.291,2.084-5.963,4.618h-0.059V35.166z"/>
	<path fill="#414042" d="M142.975,50.484c-1.929,0-5.113-1.192-5.113-7.448c0-6.262,3.185-7.458,5.113-7.458
		c1.901,0,5.089,1.195,5.089,7.458C148.063,48.58,144.876,50.484,142.975,50.484 M152.587,50.515
		c-1.048-0.296-1.458-1.43-1.55-2.592c-0.116-1.607-0.116-3.249-0.116-4.887V29.172c-1.399,0.388-2.628,0.688-4,0.954
		c-0.205,0.027-0.526,0.064-0.526,0.177c0,0.092,0.175,0.122,0.383,0.18c1.137,0.242,1.137,1.223,1.137,2.298v4.591h-0.059
		c-1.17-1.614-3.301-2.537-5.84-2.537c-4.271,0-7.54,3.964-7.54,8.2c0,5.009,3.444,8.197,7.54,8.197
		c2.949,0,4.786-1.402,5.929-3.429h0.059c0.146,0.746,0.32,1.907,0.847,2.98h3.447c0.349,0,0.495-0.028,0.495-0.119
		C152.792,50.606,152.706,50.548,152.587,50.515"/>
	<path fill="#414042" d="M167.465,35.97c-1.58-0.657-3.74-1.134-5.437-1.134c-3.182,0-7.681,0.893-7.681,5.01
		c0,3.31,3.42,4.144,6.018,4.379c3.42,0.3,5.172,0.596,5.172,2.861c0,2.745-2.803,3.579-5.053,3.579
		c-2.017,0-5.553-1.042-6.021-3.396c-0.031-0.15-0.059-0.269-0.175-0.269c-0.085,0-0.177,0.208-0.263,0.565l-0.614,2.469
		c2.191,0.837,4.561,1.198,6.896,1.198c3.301,0,8.147-1.014,8.147-5.275c0-2.864-1.867-3.964-5.956-4.236
		c-2.687-0.18-5.229-0.654-5.229-2.742c0-2.564,2.014-3.576,4.264-3.576c2.396,0,4.44,1.253,4.734,2.918
		c0.027,0.181,0.119,0.239,0.204,0.239c0.116,0,0.178-0.147,0.263-0.358L167.465,35.97z"/>
	<path fill="#414042" d="M97.559,71.413h-4.104c-1.878,0-2.082-0.66-2.082-3.622v-5.596h5.014c2.257,0,6.187,0.96,6.187,4.551
		C102.573,70.034,100.609,71.413,97.559,71.413 M91.373,53.757h4.806c3.167,0,4.87,1.528,4.87,3.649
		c0,2.454-1.907,4.043-6.039,4.043h-3.637V53.757z M98.439,61.779v-0.061c2.581-0.238,6.304-1.049,6.304-4.432
		c0-3.5-4.897-4.279-7.683-4.279H86.972c-0.293,0-0.645,0.03-0.645,0.149c0,0.153,0.205,0.181,0.468,0.3
		c1.117,0.419,1.173,1.256,1.173,2.903v12.391c0,1.853-0.645,2.72-1.874,3.081c-0.295,0.088-0.529,0.088-0.529,0.266
		c0,0.064,0.147,0.125,0.793,0.125c0.466,0,0.79-0.061,1.375-0.061h3.871c2.58,0,4.635,0.119,5.278,0.119
		c0.764,0,1.996-0.031,3.139-0.184c2.725-0.293,6.482-1.494,6.482-5.024C106.504,63.066,101.604,61.838,98.439,61.779"/>
	<path fill="#414042" d="M114.068,62.675l3.077-6.226l3.14,6.226H114.068z M129.319,71.594c-0.884-0.688-1.47-1.56-1.966-2.485
		l-8.621-16.461c-0.062-0.116-0.15-0.238-0.235-0.238h-0.059c-0.058,0-0.119,0.092-0.208,0.238l-7.182,14.248
		c-0.648,1.284-2.234,3.769-3.405,4.729c-0.204,0.146-0.556,0.266-0.556,0.474c0,0.092,0.091,0.152,0.382,0.152
		c0.352,0,1.115-0.088,2.289-0.088c1.613,0,2.665,0.088,2.873,0.088c0.205,0,0.349-0.027,0.349-0.152
		c0-0.089-0.086-0.146-0.321-0.208c-0.792-0.296-1.583-0.626-1.583-1.913c0-1.226,0.501-2.362,1.026-3.411l1.584-3.142h6.978
		l1.675,3.53c0.703,1.405,1.32,2.873,1.32,3.41c0,0.749-0.147,1.321-0.822,1.556c-0.235,0.062-0.382,0.123-0.382,0.242
		c0,0.061,0.146,0.088,0.293,0.088c0.178,0,1.14-0.088,3.549-0.088c1.699,0,3.08,0.088,3.282,0.088c0.266,0,0.412-0.061,0.412-0.152
		C129.991,71.951,129.637,71.832,129.319,71.594"/>
	<path fill="#414042" d="M133.177,55.074v11.761c0,2.062,0.323,4.129,2.228,5.024c0.181,0.092,0.354,0.122,0.354,0.181
		c0,0.091-0.149,0.122-0.647,0.122h-4.927c-0.175,0-0.264-0.031-0.264-0.064c0-0.058,0.089-0.116,0.205-0.116
		c1.938-0.957,2.316-3.173,2.316-5.146v-8.381c0-3.86-0.556-4.578-1.405-4.967c-0.324-0.146-0.529-0.241-0.529-0.326
		c0-0.096,0.116-0.153,0.443-0.153h4.866l12.9,13.441v-7.157c0-2.751-0.29-5.147-2.286-6.016c-0.178-0.058-0.235-0.149-0.235-0.238
		c0-0.122,0.149-0.149,0.382-0.149h4.808c0.146,0,0.294,0.027,0.294,0.119s-0.202,0.238-0.499,0.389
		c-1.436,0.718-1.727,2.876-1.727,4.938V72.37c0,0.211-0.061,0.449-0.152,0.449h-0.052c-0.181,0-0.386-0.297-0.618-0.538
		L133.177,55.074z"/>
	<path fill="#414042" d="M154.531,68.929c0,1.47-0.267,2.335-1.584,2.991c-0.177,0.089-0.266,0.153-0.266,0.242
		c0,0.088,0.178,0.088,0.471,0.088c1.058,0,1.409-0.088,3.078-0.088c1.672,0,2.02,0.088,3.08,0.088c0.294,0,0.468,0,0.468-0.088
		c0-0.089-0.088-0.153-0.263-0.242c-1.32-0.656-1.583-1.521-1.583-2.991v-4.31c0-1.165,0.177-2.183,1.613-2.183
		c1.263,0,2.259,1.226,3.549,3.381c1.259,2.096,2.348,4.159,3.634,6.164c0.181,0.241,0.529,0.269,0.911,0.269
		c0.293,0,1.058-0.088,2.17-0.088c1.03,0,1.965,0.088,2.143,0.088c0.201,0,0.382-0.088,0.382-0.149c0-0.211-0.412-0.36-0.736-0.596
		c-1.553-1.168-4.133-4.939-5.278-7.005c-1.26-2.274-4.282-2.959-6.629-2.873l-0.056-0.059l5.716-4.67
		c2.143-1.736,4.221-3.111,5.69-3.68c0.235-0.092,0.41-0.153,0.41-0.211c0-0.092-0.089-0.122-0.175-0.122
		c-0.177,0-0.88,0.122-2.695,0.122c-1.439,0-2.672-0.122-2.876-0.122c-0.146,0-0.263,0.03-0.263,0.122
		c0,0.03,0.201,0.181,0.409,0.269c0.174,0.089,0.438,0.303,0.438,0.808c0,0.51-1.406,1.946-1.963,2.427l-6.394,5.504V55.64
		c0-1.495,0.208-2.152,0.88-2.479c0.116-0.064,0.294-0.064,0.294-0.153c0-0.058-0.119-0.122-0.382-0.122
		c-0.235,0-1.406,0.122-2.553,0.122c-0.996,0-2.286-0.122-2.433-0.122c-0.174,0-0.412,0.064-0.412,0.152
		c0,0.059,0.119,0.123,0.293,0.181c0.59,0.208,0.911,1.015,0.911,2.421V68.929z"/>
	<g>
		<g>
			<path fill-rule="evenodd" clip-rule="evenodd" fill="#414042" d="M94.166,35.954h-2.862v-3.515c0-1.461,0.292-2.265,1.462-2.265
				c0.669,0,1.282,0.538,1.81,1.434c0.087,0.116,0.235,0.235,0.348,0.235c0.148,0,0.207-0.297,0.292-0.565l0.818-2.176
				c-4.496,0-7.739,1.403-7.739,5.902v0.95h-2.158l-0.382,0.957h2.54v10.04c0,1.876-0.085,2.952-1.4,3.484
				c-0.148,0.061-0.411,0.095-0.411,0.184c0,0.058,0.176,0.088,0.411,0.088h5.812c0.292,0,0.408-0.03,0.408-0.088
				c0-0.061-0.173-0.123-0.293-0.123c-1.488-0.801-1.518-1.668-1.518-3.545v-10.04h2.6L94.166,35.954z"/>
			<path fill-rule="evenodd" clip-rule="evenodd" fill="#414042" d="M111.877,35.092v11.831c0,2.473,0.352,3.249,1.604,3.576
				c0.119,0.03,0.177,0.061,0.177,0.085c0,0.092-0.177,0.122-0.379,0.122h-3.475c-0.438-0.984-0.7-2.023-0.758-3.426h-0.064
				c-0.963,2.649-2.684,3.875-5.69,3.875c-4.178,0-6.224-1.638-6.224-6.442v-6.015c0-1.727-0.114-2.084-0.932-2.387
				c-0.234-0.055-0.438-0.147-0.438-0.235c0-0.089,0.173-0.089,0.438-0.119c1.314-0.181,2.54-0.477,3.941-0.865v9.655
				c0,2.744,1.196,5.66,4.293,5.66c3.038,0,4.496-2.949,4.496-5.718v-5.991c0-1.818-0.321-2.207-0.847-2.473
				c-0.263-0.149-0.379-0.183-0.379-0.208c0-0.095,0.321-0.153,0.471-0.18C109.245,35.658,110.416,35.453,111.877,35.092"/>
			<path fill-rule="evenodd" clip-rule="evenodd" fill="#414042" d="M119.16,35.092c-1.079,0.388-2.277,0.593-3.68,0.865
				c-0.349,0.061-0.554,0.061-0.554,0.146c0,0.061,0.205,0.153,0.526,0.296c0.815,0.361,1.018,1.375,1.018,3.164v7.387
				c0,1.876-0.11,3.279-1.574,3.518c-0.205,0.031-0.321,0.092-0.321,0.18c0,0.116,0.089,0.147,0.263,0.147
				c0.205,0,1.55-0.089,3.124-0.089c1.577,0,2.775,0.089,2.977,0.089c0.181,0,0.267-0.031,0.267-0.147
				c0-0.088-0.119-0.149-0.321-0.18c-1.314-0.238-1.403-7.152-1.403-7.152c0-4.172,1.141-7.809,4.615-7.809
				c3.097,0,4.294,2.925,4.294,5.663v5.78c0,2.653-0.528,3.457-1.576,3.579c-0.205,0.031-0.264,0.119-0.264,0.177
				c0,0.089,0.144,0.089,0.321,0.089c0.376,0,1.431-0.089,3.008-0.089c1.604,0,2.365,0.089,2.625,0.089c0.293,0,0.44,0,0.44-0.089
				c0-0.058-0.175-0.146-0.379-0.208c-0.847-0.3-1.226-0.718-1.168-3.548v-5.752c0-4.734-3.008-6.433-6.22-6.433
				c-3.856,0-5.287,2.084-5.963,4.618h-0.055V35.092z"/>
			<path fill-rule="evenodd" clip-rule="evenodd" fill="#414042" d="M152.755,50.438c-1.051-0.297-1.458-1.431-1.549-2.592
				c-0.113-1.608-0.113-3.249-0.113-4.887V29.102c-1.403,0.388-2.632,0.685-4.004,0.954c-0.202,0.027-0.525,0.061-0.525,0.177
				c0,0.092,0.177,0.122,0.382,0.18c1.137,0.242,1.137,1.223,1.137,2.295v4.591h-0.055c-1.171-1.614-3.301-2.534-5.841-2.534
				c-4.267,0-7.537,3.961-7.537,8.194c0,5.009,3.444,8.197,7.537,8.197c2.946,0,4.786-1.403,5.926-3.429h0.062
				c0.144,0.743,0.317,1.907,0.844,2.98h3.444c0.352,0,0.498-0.03,0.498-0.119C152.96,50.53,152.874,50.469,152.755,50.438
				 M143.146,50.408c-1.929,0-5.11-1.192-5.11-7.448c0-6.259,3.182-7.451,5.11-7.451c1.9,0,5.085,1.192,5.085,7.451
				C148.231,48.503,145.047,50.408,143.146,50.408"/>
			<path fill-rule="evenodd" clip-rule="evenodd" fill="#414042" d="M167.627,35.896c-1.577-0.657-3.737-1.13-5.434-1.13
				c-3.182,0-7.678,0.889-7.678,5.006c0,3.307,3.417,4.142,6.018,4.38c3.414,0.296,5.165,0.596,5.165,2.861
				c0,2.741-2.802,3.573-5.052,3.573c-2.014,0-5.55-1.042-6.015-3.396c-0.03-0.15-0.062-0.266-0.175-0.266
				c-0.088,0-0.177,0.208-0.263,0.565l-0.617,2.47c2.194,0.837,4.561,1.195,6.896,1.195c3.301,0,8.147-1.012,8.147-5.272
				c0-2.864-1.87-3.964-5.959-4.233c-2.684-0.181-5.227-0.657-5.227-2.742c0-2.564,2.014-3.576,4.264-3.576
				c2.396,0,4.44,1.253,4.73,2.919c0.031,0.18,0.12,0.238,0.205,0.238c0.116,0,0.178-0.146,0.263-0.357L167.627,35.896z"/>
			<path fill-rule="evenodd" clip-rule="evenodd" fill="#414042" d="M98.627,61.697v-0.059c2.578-0.241,6.303-1.051,6.303-4.435
				c0-3.496-4.898-4.275-7.681-4.275H87.163c-0.293,0-0.644,0.03-0.644,0.152c0,0.149,0.205,0.178,0.468,0.297
				c1.116,0.422,1.172,1.259,1.172,2.903v12.384c0,1.853-0.646,2.721-1.874,3.081c-0.295,0.089-0.53,0.089-0.53,0.27
				c0,0.061,0.15,0.122,0.795,0.122c0.466,0,0.79-0.062,1.375-0.062h3.869c2.578,0,4.633,0.119,5.277,0.119
				c0.762,0,1.996-0.03,3.137-0.18c2.725-0.297,6.479-1.498,6.479-5.028C106.688,62.983,101.791,61.755,98.627,61.697
				 M91.562,53.677h4.805c3.167,0,4.869,1.528,4.869,3.649c0,2.454-1.906,4.044-6.038,4.044h-3.636V53.677z M97.745,71.327h-4.102
				c-1.876,0-2.082-0.66-2.082-3.618v-5.597h5.011c2.257,0,6.187,0.96,6.187,4.551C102.76,69.952,100.795,71.327,97.745,71.327"/>
			<path fill-rule="evenodd" clip-rule="evenodd" fill="#414042" d="M129.493,71.508c-0.883-0.688-1.467-1.556-1.965-2.484
				l-8.616-16.456c-0.061-0.112-0.149-0.238-0.235-0.238h-0.058c-0.059,0-0.119,0.092-0.208,0.238l-7.18,14.246
				c-0.647,1.28-2.233,3.766-3.401,4.725c-0.208,0.147-0.56,0.267-0.56,0.474c0,0.092,0.089,0.156,0.383,0.156
				c0.351,0,1.115-0.092,2.286-0.092c1.616,0,2.668,0.092,2.872,0.092c0.205,0,0.349-0.03,0.349-0.156
				c0-0.088-0.085-0.146-0.317-0.207c-0.792-0.297-1.587-0.627-1.587-1.91c0-1.229,0.505-2.363,1.027-3.411l1.586-3.143h6.975
				l1.672,3.527c0.703,1.409,1.32,2.873,1.32,3.411c0,0.749-0.146,1.32-0.822,1.559c-0.232,0.058-0.379,0.119-0.379,0.238
				c0,0.062,0.146,0.092,0.291,0.092c0.177,0,1.143-0.092,3.548-0.092c1.699,0,3.078,0.092,3.282,0.092
				c0.264,0,0.413-0.064,0.413-0.156C130.169,71.865,129.814,71.746,129.493,71.508 M114.248,62.593l3.078-6.223l3.136,6.223
				H114.248z"/>
			<path fill-rule="evenodd" clip-rule="evenodd" fill="#414042" d="M133.351,54.994v11.758c0,2.063,0.324,4.126,2.228,5.021
				c0.178,0.092,0.355,0.126,0.355,0.181c0,0.092-0.15,0.122-0.648,0.122h-4.924c-0.177,0-0.263-0.03-0.263-0.064
				c0-0.058,0.086-0.112,0.205-0.112c1.935-0.957,2.316-3.173,2.316-5.147v-8.377c0-3.86-0.557-4.579-1.409-4.964
				c-0.324-0.149-0.525-0.244-0.525-0.33c0-0.092,0.116-0.152,0.44-0.152h4.862l12.9,13.436v-7.152c0-2.75-0.29-5.146-2.286-6.012
				c-0.177-0.061-0.235-0.152-0.235-0.241c0-0.122,0.146-0.149,0.379-0.149h4.808c0.147,0,0.297,0.027,0.297,0.119
				s-0.205,0.238-0.501,0.391c-1.437,0.719-1.728,2.873-1.728,4.934v14.031c0,0.211-0.058,0.449-0.149,0.449h-0.055
				c-0.178,0-0.383-0.297-0.618-0.538L133.351,54.994z"/>
			<path fill-rule="evenodd" clip-rule="evenodd" fill="#414042" d="M154.699,68.843c0,1.47-0.267,2.335-1.583,2.992
				c-0.175,0.089-0.267,0.152-0.267,0.241s0.178,0.089,0.471,0.089c1.058,0,1.406-0.089,3.078-0.089
				c1.669,0,2.021,0.089,3.077,0.089c0.294,0,0.468,0,0.468-0.089s-0.085-0.152-0.263-0.241c-1.317-0.657-1.58-1.522-1.58-2.992
				v-4.307c0-1.164,0.174-2.179,1.61-2.179c1.263,0,2.256,1.223,3.546,3.377c1.259,2.094,2.347,4.156,3.637,6.165
				c0.178,0.238,0.525,0.266,0.911,0.266c0.29,0,1.055-0.089,2.167-0.089c1.029,0,1.962,0.089,2.143,0.089
				c0.201,0,0.379-0.089,0.379-0.149c0-0.211-0.41-0.361-0.733-0.597c-1.553-1.167-4.133-4.936-5.278-7.002
				c-1.26-2.273-4.276-2.958-6.623-2.87l-0.059-0.061l5.713-4.667c2.142-1.736,4.221-3.111,5.69-3.68
				c0.232-0.089,0.406-0.153,0.406-0.211c0-0.089-0.082-0.119-0.174-0.119c-0.175,0-0.877,0.119-2.692,0.119
				c-1.439,0-2.672-0.119-2.876-0.119c-0.147,0-0.264,0.03-0.264,0.119c0,0.03,0.205,0.18,0.41,0.269
				c0.174,0.089,0.439,0.303,0.439,0.807c0,0.511-1.405,1.947-1.962,2.427l-6.391,5.502V55.56c0-1.494,0.205-2.151,0.88-2.479
				c0.113-0.061,0.291-0.061,0.291-0.152c0-0.059-0.119-0.119-0.382-0.119c-0.235,0-1.406,0.119-2.55,0.119
				c-0.996,0-2.286-0.119-2.433-0.119c-0.174,0-0.412,0.061-0.412,0.149c0,0.062,0.119,0.122,0.296,0.181
				c0.587,0.211,0.908,1.018,0.908,2.42V68.843z"/>
		</g>
		<g>
			<defs>
				<path id="SVGID_1_" d="M29.23,49.995c0,13.193,10.76,23.955,23.951,23.955c13.188,0,23.948-10.762,23.948-23.955
					c0-13.188-10.76-23.946-23.948-23.946C39.99,26.049,29.23,36.807,29.23,49.995"/>
			</defs>
			<clipPath id="SVGID_2_">
				<use xlink:href="#SVGID_1_"  overflow="visible"/>
			</clipPath>
			
				<radialGradient id="SVGID_3_" cx="-531.6694" cy="463.8457" r="1.5656" gradientTransform="matrix(18.2437 0 0 18.2437 9755.209 -8421.3574)" gradientUnits="userSpaceOnUse">
				<stop  offset="0" style="stop-color:#D9DADC"/>
				<stop  offset="0.65" style="stop-color:#797A7D"/>
				<stop  offset="0.6986" style="stop-color:#737477"/>
				<stop  offset="0.7661" style="stop-color:#616265"/>
				<stop  offset="0.8444" style="stop-color:#454547"/>
				<stop  offset="0.92" style="stop-color:#232324"/>
				<stop  offset="1" style="stop-color:#232324"/>
			</radialGradient>
			<rect x="29.229" y="26.049" clip-path="url(#SVGID_2_)" fill="url(#SVGID_3_)" width="47.9" height="47.901"/>
		</g>
		<g>
			<defs>
				<path id="SVGID_4_" d="M56.239,55.202c-0.001,0.089-0.005,0.171-0.008,0.257c-0.003,0.083-0.003,0.171-0.006,0.251
					c-0.003,0.085-0.009,0.171-0.01,0.253c-0.006,0.08-0.011,0.159-0.016,0.242c-0.004,0.079-0.009,0.155-0.017,0.235
					c-0.006,0.079-0.014,0.158-0.023,0.232c-0.004,0.076-0.015,0.149-0.026,0.226c-0.009,0.076-0.017,0.146-0.032,0.22
					c-0.004,0.07-0.019,0.141-0.031,0.215c-0.012,0.07-0.026,0.137-0.038,0.204c-0.015,0.067-0.029,0.135-0.044,0.202
					c-0.014,0.067-0.029,0.131-0.049,0.195c-0.015,0.064-0.035,0.129-0.05,0.187c-0.017,0.064-0.038,0.125-0.057,0.184
					c-0.021,0.058-0.041,0.119-0.065,0.18c-0.021,0.056-0.043,0.11-0.067,0.165c-0.026,0.053-0.047,0.107-0.077,0.159
					c-0.026,0.055-0.052,0.107-0.079,0.159c-0.024,0.046-0.054,0.098-0.086,0.144c-0.03,0.049-0.058,0.098-0.091,0.141
					c-0.032,0.046-0.066,0.089-0.098,0.132c-0.034,0.042-0.069,0.088-0.105,0.128c-0.034,0.04-0.073,0.076-0.108,0.113
					c-0.038,0.043-0.08,0.076-0.119,0.113c-0.038,0.033-0.08,0.07-0.125,0.101c-0.041,0.033-0.087,0.064-0.131,0.095
					c-0.046,0.03-0.088,0.058-0.139,0.086c-0.047,0.027-0.096,0.055-0.144,0.073c-0.05,0.027-0.101,0.052-0.154,0.073
					c-0.057,0.024-0.105,0.043-0.162,0.061l-0.168,0.053v0.431l0.164,0.403l0.009-0.452l0.165-0.059l0.174-0.061l0.159-0.073
					l0.156-0.08l0.146-0.092l0.137-0.098l0.133-0.106l0.124-0.116l0.127-0.126l0.108-0.131l0.103-0.141l0.098-0.144l0.09-0.165
					l0.084-0.165l0.08-0.172l0.072-0.174l0.062-0.184l0.062-0.195l0.055-0.195l0.05-0.205l0.046-0.214l0.042-0.22l0.035-0.224
					l0.035-0.229l0.026-0.238l0.018-0.241l0.02-0.254l0.019-0.253l0.01-0.264l0.008-0.263l0.003-0.274l0.003-0.288
					c-0.098-0.03-0.164-0.082-0.295-0.098V55.202z"/>
			</defs>
			<clipPath id="SVGID_5_">
				<use xlink:href="#SVGID_4_"  overflow="visible"/>
			</clipPath>
			
				<linearGradient id="SVGID_6_" gradientUnits="userSpaceOnUse" x1="-527.4204" y1="480.208" x2="-525.8557" y2="480.208" gradientTransform="matrix(0 41.9555 -41.9555 0 20202.5742 22153.3027)">
				<stop  offset="0" style="stop-color:#FFFFFF"/>
				<stop  offset="0.1402" style="stop-color:#ECECEC"/>
				<stop  offset="0.4248" style="stop-color:#BBBBBB"/>
				<stop  offset="0.8246" style="stop-color:#6C6C6D"/>
				<stop  offset="1" style="stop-color:#474749"/>
			</linearGradient>
			<rect x="53.911" y="54.921" clip-path="url(#SVGID_5_)" fill="url(#SVGID_6_)" width="2.623" height="6.192"/>
		</g>
		<g>
			<defs>
				<path id="SVGID_7_" d="M54.249,36.703c0.264,0.064,0.18,0.043,0.264,0.064c0.087,0.019,0.165,0.04,0.242,0.062
					c0.075,0.024,0.146,0.052,0.214,0.079c0.069,0.028,0.134,0.052,0.195,0.083c0.062,0.028,0.12,0.058,0.173,0.089
					c0.055,0.03,0.105,0.064,0.153,0.098c0.046,0.037,0.092,0.07,0.131,0.107c0.042,0.037,0.078,0.08,0.115,0.119
					c0.038,0.043,0.067,0.083,0.099,0.125c0.028,0.046,0.057,0.095,0.081,0.141c0.023,0.049,0.046,0.098,0.064,0.15
					c0.021,0.052,0.037,0.104,0.052,0.162c0.017,0.055,0.027,0.113,0.04,0.171c0.01,0.061,0.02,0.125,0.027,0.189
					c0.003,0.064,0.011,0.125,0.014,0.199s0.003,0.153,0.003,0.229l0.303-0.767L56.4,37.77l-0.018-0.21l-0.024-0.196l-0.04-0.184
					l-0.056-0.171l-0.067-0.156l-0.085-0.144l-0.104-0.137l-0.121-0.135l-0.139-0.107l-0.161-0.107l-0.191-0.095l-0.202-0.085
					l-0.231-0.08l-0.252-0.07l-0.284-0.064C54.367,36.119,54.298,36.404,54.249,36.703"/>
			</defs>
			<clipPath id="SVGID_8_">
				<use xlink:href="#SVGID_7_"  overflow="visible"/>
			</clipPath>
			
				<linearGradient id="SVGID_9_" gradientUnits="userSpaceOnUse" x1="-661.0898" y1="459.8389" x2="-659.5239" y2="459.8389" gradientTransform="matrix(1.4392 1.4392 -1.4392 1.4392 1667.4321 325.7735)">
				<stop  offset="0" style="stop-color:#474749"/>
				<stop  offset="0.1324" style="stop-color:#6B6B6D"/>
				<stop  offset="0.3478" style="stop-color:#9F9FA0"/>
				<stop  offset="0.5496" style="stop-color:#C9C9C9"/>
				<stop  offset="0.7318" style="stop-color:#E6E6E7"/>
				<stop  offset="0.888" style="stop-color:#F9F9F9"/>
				<stop  offset="1" style="stop-color:#FFFFFF"/>
			</linearGradient>
			<polygon clip-path="url(#SVGID_8_)" fill="url(#SVGID_9_)" points="52.78,37.299 55.334,39.854 57.888,37.299 55.334,34.744 			
				"/>
		</g>
		<g>
			<defs>
				<path id="SVGID_10_" d="M65.408,55.511v0.483v0.474c-0.001,0.152-0.001,0.3-0.005,0.446c-0.007,0.149-0.007,0.29-0.011,0.434
					c-0.004,0.138-0.009,0.275-0.015,0.41c-0.009,0.131-0.017,0.26-0.027,0.385s-0.024,0.247-0.04,0.363
					c-0.015,0.116-0.035,0.229-0.055,0.34c-0.02,0.106-0.043,0.214-0.067,0.314c-0.027,0.098-0.058,0.192-0.09,0.284
					c-0.033,0.095-0.07,0.181-0.111,0.26c-0.042,0.08-0.085,0.156-0.134,0.229c-0.048,0.07-0.103,0.141-0.164,0.198
					c-0.052,0.062-0.115,0.116-0.182,0.168c-0.069,0.053-0.142,0.099-0.22,0.135c-0.08,0.04-0.168,0.07-0.254,0.107v0.415
					l0.698,0.416l0.009-0.438l0.264-0.109l0.231-0.141l0.197-0.178l0.165-0.211l0.145-0.238l0.125-0.284l0.093-0.3l0.075-0.333
					l0.057-0.357l0.041-0.385l0.026-0.4l0.02-0.438l0.008-0.446l0.004-0.477l0.003-0.495l0.009-0.517
					c-0.16-0.089-0.276-0.135-0.498-0.135C65.623,55.492,65.525,55.499,65.408,55.511"/>
			</defs>
			<clipPath id="SVGID_11_">
				<use xlink:href="#SVGID_10_"  overflow="visible"/>
			</clipPath>
			
				<linearGradient id="SVGID_12_" gradientUnits="userSpaceOnUse" x1="-535.6514" y1="486.7363" x2="-534.0886" y2="486.7363" gradientTransform="matrix(0 16.1106 -16.1106 0 7906.7495 8675.4834)">
				<stop  offset="0" style="stop-color:#FFFFFF"/>
				<stop  offset="0.1402" style="stop-color:#ECECEC"/>
				<stop  offset="0.4248" style="stop-color:#BBBBBB"/>
				<stop  offset="0.8246" style="stop-color:#6C6C6D"/>
				<stop  offset="1" style="stop-color:#474749"/>
			</linearGradient>
			<rect x="64.032" y="55.492" clip-path="url(#SVGID_11_)" fill="url(#SVGID_12_)" width="2.171" height="5.881"/>
		</g>
		<g>
			<defs>
				<path id="SVGID_13_" d="M63.829,37.938c0.018,0.003,0.04,0.006,0.06,0.015c0.053,0.015,0.104,0.027,0.16,0.049
					c0.078,0.031,0.15,0.058,0.225,0.095c0.09,0.049,0.181,0.092,0.263,0.15c0.088,0.058,0.18,0.128,0.255,0.205
					c0.084,0.086,0.168,0.177,0.229,0.275c0.064,0.11,0.119,0.211,0.156,0.354c0.04,0.141,0.058,0.299,0.064,0.449l0.776-0.725
					l-0.055-0.467l-0.185-0.382l-0.237-0.287l-0.275-0.22l-0.274-0.153l-0.237-0.101l-0.176-0.055l-0.067-0.015L63.829,37.938z"/>
			</defs>
			<clipPath id="SVGID_14_">
				<use xlink:href="#SVGID_13_"  overflow="visible"/>
			</clipPath>
			
				<linearGradient id="SVGID_15_" gradientUnits="userSpaceOnUse" x1="-777.5737" y1="484.2578" x2="-776.009" y2="484.2578" gradientTransform="matrix(0.6489 0.8932 -0.8932 0.6489 1001.5088 417.8444)">
				<stop  offset="0" style="stop-color:#474749"/>
				<stop  offset="0.23" style="stop-color:#6D6D6F"/>
				<stop  offset="0.7406" style="stop-color:#CCCCCD"/>
				<stop  offset="1" style="stop-color:#FFFFFF"/>
			</linearGradient>
			<polygon clip-path="url(#SVGID_14_)" fill="url(#SVGID_15_)" points="62.686,37.956 64.585,40.572 67.16,38.699 65.261,36.086 
							"/>
		</g>
		<g>
			<defs>
				<path id="SVGID_16_" d="M40.595,42.223l-0.298,0.028l-0.281,0.04l-0.273,0.055l-0.263,0.07l-0.261,0.085l-0.246,0.098
					l-0.253,0.123l-0.235,0.125l-0.225,0.138l-0.22,0.15l-0.214,0.165L37.62,43.47l-0.2,0.189l-0.194,0.199l-0.187,0.211
					l-0.176,0.22l-0.177,0.232l-0.167,0.242l-0.16,0.253l-0.153,0.263l-0.15,0.275l-0.142,0.281l-0.136,0.291l-0.134,0.302
					l-0.124,0.309l-0.122,0.318l-0.116,0.333l-0.108,0.33l-0.107,0.345l-0.1,0.345l-0.098,0.373c0.268,0.076,0,0,0.806,0.205
					c0.093-0.339,0.06-0.223,0.093-0.339c0.031-0.107,0.062-0.22,0.095-0.33c0.034-0.11,0.064-0.217,0.1-0.324
					c0.034-0.104,0.069-0.211,0.104-0.318c0.037-0.104,0.075-0.205,0.111-0.309c0.035-0.098,0.077-0.199,0.113-0.303
					c0.041-0.095,0.08-0.195,0.124-0.29c0.039-0.098,0.078-0.193,0.124-0.288c0.041-0.092,0.085-0.183,0.128-0.278
					c0.041-0.089,0.091-0.177,0.137-0.266c0.043-0.089,0.09-0.171,0.142-0.26c0.044-0.083,0.095-0.165,0.144-0.25
					c0.052-0.077,0.101-0.162,0.156-0.242c0.05-0.076,0.101-0.153,0.156-0.229c0.055-0.07,0.108-0.147,0.164-0.22
					c0.055-0.07,0.115-0.141,0.173-0.208c0.056-0.067,0.114-0.134,0.174-0.202c0.063-0.067,0.123-0.125,0.184-0.187
					c0.064-0.061,0.124-0.122,0.189-0.18c0.064-0.058,0.128-0.113,0.199-0.168c0.061-0.049,0.131-0.101,0.2-0.156
					c0.067-0.046,0.139-0.095,0.211-0.141c0.067-0.043,0.141-0.089,0.214-0.131c0.072-0.04,0.148-0.08,0.225-0.12
					c0.075-0.033,0.153-0.07,0.229-0.107c0.078-0.03,0.159-0.061,0.239-0.091c0.081-0.028,0.16-0.055,0.244-0.08
					c0.084-0.024,0.165-0.046,0.251-0.064c0.085-0.021,0.172-0.04,0.261-0.055c0.088-0.016,0.176-0.028,0.266-0.04
					c0.09-0.009,0.181-0.018,0.275-0.021c0.093-0.009,0.188-0.016,0.281-0.012c0.16,0.003,0.322,0.009,0.478,0.027
					c0.153,0.018,0.301,0.049,0.445,0.085c0.138,0.037,0.278,0.085,0.41,0.141c0.133,0.049,0.256,0.11,0.376,0.18
					c0.121,0.067,0.235,0.144,0.341,0.227c0.111,0.083,0.218,0.165,0.31,0.263l0.276,0.303c0.084,0.107,0.324,0.44,0.246,0.327
					l-0.329-0.464l-0.255-0.345l-0.291-0.315l-0.327-0.291l-0.362-0.248l-0.392-0.192l-0.441-0.144l-0.468-0.089l-0.506-0.03
					L40.595,42.223z"/>
			</defs>
			<clipPath id="SVGID_17_">
				<use xlink:href="#SVGID_16_"  overflow="visible"/>
			</clipPath>
			
				<linearGradient id="SVGID_18_" gradientUnits="userSpaceOnUse" x1="-523.0151" y1="479.3379" x2="-521.4494" y2="479.3379" gradientTransform="matrix(-51.4715 65.8805 -65.8805 -51.4715 4738.4561 59122.6797)">
				<stop  offset="0" style="stop-color:#474749"/>
				<stop  offset="0.1355" style="stop-color:#4B4B4D"/>
				<stop  offset="0.2834" style="stop-color:#59595A"/>
				<stop  offset="0.4372" style="stop-color:#6E6E70"/>
				<stop  offset="0.5951" style="stop-color:#8D8D8E"/>
				<stop  offset="0.7562" style="stop-color:#B4B4B5"/>
				<stop  offset="0.9176" style="stop-color:#E4E4E4"/>
				<stop  offset="1" style="stop-color:#FFFFFF"/>
			</linearGradient>
			<polygon clip-path="url(#SVGID_17_)" fill="url(#SVGID_18_)" points="38.458,37.62 31.583,46.419 40.749,53.579 47.625,44.781 
							"/>
		</g>
		<g>
			<polygon fill-rule="evenodd" clip-rule="evenodd" fill="#636567" points="34.566,48.797 35.379,49.017 35.674,48.986 
				34.878,48.763 			"/>
			<path fill-rule="evenodd" clip-rule="evenodd" fill="#474749" d="M43.654,59.683c0.088-0.079,0.272-0.247,0.357-0.33
				c0.085-0.076,0.105-0.098,0.162-0.149c0.05-0.049,0.101-0.101,0.153-0.156c0.052-0.055,0.104-0.106,0.154-0.162
				c0.05-0.055,0.101-0.112,0.15-0.168c0.05-0.058,0.096-0.116,0.148-0.174c0.046-0.059,0.093-0.122,0.139-0.181
				c0.047-0.061,0.096-0.122,0.139-0.184c0.049-0.061,0.095-0.125,0.141-0.189c0.042-0.063,0.088-0.128,0.133-0.192
				c0.043-0.063,0.229-0.22,0.131-0.198s-0.212,0.159-0.283,0.232c-0.069,0.073-0.088,0.141-0.136,0.211
				c-0.047,0.063-0.095,0.134-0.142,0.207c-0.049,0.064-0.095,0.126-0.144,0.196c-0.049,0.058-0.096,0.122-0.146,0.192
				c-0.05,0.061-0.101,0.125-0.151,0.187c-0.05,0.061-0.103,0.119-0.153,0.184c-0.052,0.058-0.107,0.119-0.161,0.177
				c-0.05,0.059-0.105,0.116-0.157,0.168c-0.057,0.059-0.11,0.113-0.165,0.168C43.769,59.576,43.567,59.759,43.654,59.683"/>
		</g>
		<g>
			<defs>
				<path id="SVGID_19_" d="M44.174,49.879c-0.173,0-0.234,0-0.349,0.003c-0.113,0-0.229,0.009-0.341,0.012
					c-0.111,0.006-0.223,0.016-0.336,0.028c-0.112,0.009-0.219,0.024-0.329,0.037c-0.112,0.015-0.226,0.037-0.334,0.058
					c-0.107,0.018-0.214,0.037-0.318,0.058c-0.107,0.021-0.208,0.042-0.312,0.07c-0.103,0.021-0.205,0.049-0.303,0.076
					c-0.101,0.031-0.2,0.055-0.298,0.092c-0.098,0.034-0.194,0.067-0.287,0.104c-0.095,0.034-0.188,0.07-0.283,0.113
					c-0.09,0.037-0.182,0.08-0.272,0.119c-0.084,0.046-0.174,0.092-0.258,0.138c-0.089,0.046-0.171,0.095-0.254,0.147
					c-0.081,0.049-0.162,0.104-0.245,0.159c-0.076,0.052-0.156,0.109-0.229,0.168c-0.075,0.058-0.151,0.119-0.223,0.183
					c-0.07,0.059-0.151,0.134-0.217,0.198c-0.069,0.067-0.138,0.138-0.199,0.205c-0.066,0.067-0.127,0.144-0.187,0.214
					c-0.061,0.073-0.119,0.149-0.171,0.229c-0.058,0.076-0.111,0.155-0.16,0.238c-0.057,0.079-0.103,0.165-0.15,0.247
					c-0.046,0.089-0.09,0.175-0.133,0.263c-0.042,0.092-0.083,0.187-0.118,0.278c-0.038,0.095-0.077,0.189-0.105,0.284
					c-0.034,0.098-0.061,0.195-0.089,0.3c-0.03,0.104-0.053,0.205-0.075,0.314c-0.021,0.102-0.044,0.208-0.061,0.321
					c-0.014,0.104-0.027,0.22-0.043,0.336c-0.011,0.113-0.018,0.229-0.023,0.346c-0.007,0.119-0.012,0.241-0.009,0.363
					c0.001,0.122,0.006,0.248,0.014,0.373c0.003,0.125,0.018,0.251,0.034,0.373c0.017,0.128,0.038,0.254,0.061,0.373
					c0.024,0.125,0.052,0.25,0.085,0.373c0.032,0.122,0.069,0.238,0.108,0.357c0.043,0.116,0.084,0.235,0.138,0.345
					c0.046,0.113,0.108,0.229,0.168,0.337c0.057,0.106,0.118,0.211,0.185,0.312c0.065,0.101,0.136,0.195,0.209,0.284
					c0.076,0.092,0.156,0.177,0.24,0.26c0.081,0.082,0.171,0.159,0.261,0.229c0.09,0.073,0.187,0.134,0.287,0.198
					c0.101,0.052,0.217,0.116,0.324,0.162c0.113,0.049,0.226,0.089,0.344,0.122c0.121,0.027,0.238,0.055,0.368,0.07
					c0.13,0.019,0.285,0.024,0.396,0.024c0.115,0.006,0.188-0.003,0.28-0.009c0.093-0.01,0.18-0.024,0.271-0.037
					c0.088-0.021,0.183-0.046,0.264-0.07c0.084-0.021,0.165-0.046,0.246-0.079c0.08-0.027,0.157-0.064,0.234-0.098
					c0.078-0.04,0.153-0.08,0.228-0.122c0.072-0.043,0.107-0.064,0.214-0.138c0.103-0.073,0.311-0.235,0.408-0.309
					c0.101-0.083-0.134,0.088-0.203,0.131c-0.066,0.043-0.141,0.076-0.211,0.113c-0.073,0.033-0.147,0.064-0.226,0.095
					c-0.077,0.027-0.151,0.055-0.232,0.079c-0.081,0.019-0.162,0.037-0.243,0.053c-0.083,0.015-0.171,0.024-0.256,0.036
					c-0.086,0.006-0.161,0.016-0.266,0.006c-0.107,0-0.255-0.006-0.375-0.021c-0.127-0.015-0.238-0.036-0.352-0.073
					c-0.114-0.024-0.221-0.061-0.324-0.106c-0.107-0.043-0.203-0.095-0.3-0.146c-0.096-0.062-0.188-0.123-0.272-0.184
					c-0.09-0.07-0.176-0.144-0.252-0.227c-0.081-0.073-0.156-0.155-0.228-0.241c-0.067-0.089-0.136-0.181-0.197-0.275
					c-0.066-0.095-0.125-0.189-0.177-0.293c-0.057-0.101-0.107-0.208-0.153-0.315c-0.047-0.106-0.089-0.214-0.127-0.326
					c-0.04-0.113-0.075-0.227-0.105-0.343c-0.03-0.11-0.058-0.232-0.083-0.346c-0.02-0.119-0.041-0.238-0.055-0.354
					c-0.017-0.119-0.027-0.241-0.037-0.357c-0.007-0.119-0.011-0.241-0.011-0.357s0.002-0.227,0.008-0.342
					c0.008-0.11,0.017-0.224,0.026-0.334c0.009-0.104,0.023-0.214,0.042-0.314c0.015-0.107,0.035-0.205,0.055-0.309
					c0.02-0.098,0.042-0.195,0.067-0.297c0.028-0.098,0.057-0.192,0.087-0.284c0.032-0.092,0.064-0.18,0.099-0.271
					c0.037-0.089,0.073-0.175,0.113-0.263c0.041-0.083,0.083-0.165,0.125-0.248c0.047-0.079,0.092-0.159,0.142-0.238
					c0.049-0.079,0.1-0.153,0.151-0.227c0.052-0.073,0.108-0.144,0.165-0.214c0.058-0.07,0.116-0.141,0.179-0.204
					c0.06-0.064,0.124-0.135,0.188-0.193c0.061-0.063,0.128-0.125,0.197-0.183c0.07-0.058,0.141-0.119,0.209-0.171
					c0.072-0.055,0.148-0.109,0.222-0.165c0.075-0.049,0.154-0.098,0.232-0.146c0.077-0.049,0.158-0.095,0.237-0.144
					c0.084-0.04,0.164-0.083,0.252-0.125c0.081-0.043,0.171-0.083,0.255-0.119c0.09-0.037,0.176-0.07,0.268-0.11
					c0.089-0.028,0.184-0.064,0.273-0.095c0.092-0.028,0.187-0.055,0.28-0.083c0.095-0.028,0.192-0.055,0.292-0.08
					c0.098-0.024,0.194-0.043,0.295-0.064c0.099-0.018,0.2-0.04,0.299-0.055c0.104-0.016,0.207-0.031,0.311-0.043
					c0.105-0.018,0.208-0.027,0.313-0.037c0.108-0.009,0.211-0.019,0.319-0.024c0.107-0.009,0.217-0.012,0.326-0.015
					c0.107-0.003,0.164-0.003,0.33-0.009c0.652,0,0.506,0.07,0.652,0c0.153-0.067-0.118-0.144-0.287-0.171
					c-0.064-0.012-0.162-0.012-0.264-0.012C44.45,49.87,44.276,49.876,44.174,49.879"/>
			</defs>
			<clipPath id="SVGID_20_">
				<use xlink:href="#SVGID_19_"  overflow="visible"/>
			</clipPath>
			
				<linearGradient id="SVGID_21_" gradientUnits="userSpaceOnUse" x1="-495.2075" y1="453.3154" x2="-493.644" y2="453.3154" gradientTransform="matrix(0 -8.0024 8.0024 0 -3586.2405 -3901.6929)">
				<stop  offset="0" style="stop-color:#474749"/>
				<stop  offset="0.0484" style="stop-color:#5F5F61"/>
				<stop  offset="0.2851" style="stop-color:#D1D1D2"/>
				<stop  offset="0.39" style="stop-color:#FFFFFF"/>
				<stop  offset="0.74" style="stop-color:#FFFFFF"/>
				<stop  offset="0.7765" style="stop-color:#ECECEC"/>
				<stop  offset="0.8505" style="stop-color:#BBBBBB"/>
				<stop  offset="0.9544" style="stop-color:#6C6C6D"/>
				<stop  offset="1" style="stop-color:#474749"/>
			</linearGradient>
			<rect x="37.462" y="49.87" clip-path="url(#SVGID_20_)" fill="url(#SVGID_21_)" width="7.849" height="9.911"/>
		</g>
		<g>
			<path fill-rule="evenodd" clip-rule="evenodd" fill="#FFFFFF" d="M56.524,55.028c0,2.992-0.504,5.086-2.45,5.623v0.459
				c1.695,0,3.101-0.11,5.083-0.059c1.845,0.046,3.047,0.059,4.724,0.278v-0.511c-2.376-0.379-2.093-5.788-2.093-5.788
				l-0.286-20.049c0,0-4.618,0.269-7.069,0.522l-0.182,0.883v0.318l0.182-0.868c1.551,0.324,1.967,0.92,1.967,2.151l-0.283,0.761
				l0.123,16.186L56.524,55.028z"/>
			<path fill-rule="evenodd" clip-rule="evenodd" fill="#FFFFFF" d="M65.999,38.797c0-1.348-1.485-1.663-1.485-1.663l-0.685,0.804
				v-0.33l0.685-0.819l5.116,0.171c0,0,0.131,3.087,0.131,4.328l0.437,15.354c0,2.781,0.346,4.028,1.401,4.637v0.455
				c-1.325-0.184-2.077-0.253-3.411-0.327c-1.347-0.07-1.881-0.036-3.458-0.036v-0.44c1.505-0.482,1.444-2.512,1.444-5.297
				l-0.769-0.122l-0.165-15.996L65.999,38.797z"/>
			<path fill-rule="evenodd" clip-rule="evenodd" fill="#FFFFFF" d="M50.866,56.855l-0.146-7.502
				c0.234-6.623-3.382-8.286-8.339-8.286c-3.41,0-6.68,1.018-9.059,2.574l1.244,5.153l0.313-0.031
				c0.997-3.826,2.788-6.495,6.004-6.534c2.796,0,3.967,2.705,3.967,4.985v1.653h-0.839c-5.479,0-11.868,2.029-11.868,6.824
				c0,4.389,2.876,5.819,6.78,5.819c2.838,0,4.8-1.431,6.255-3.68l1.357,3.117l6.736,0.098v-0.663
				C51.668,59.974,51.027,58.445,50.866,56.855 M44.802,53.054c0,2.476-1.063,6.705-4.114,6.705c-2.182,0-3.208-2.19-3.208-4.181
				c0-3.912,2.981-5.687,6.693-5.687h0.688L44.802,53.054z"/>
		</g>
	</g>
</g>
</svg>
