<?xml version="1.0" encoding="utf-8"?>
<!-- Generator: Adobe Illustrator 16.0.0, SVG Export Plug-In . SVG Version: 6.00 Build 0)  -->
<!DOCTYPE svg PUBLIC "-//W3C//DTD SVG 1.1//EN" "http://www.w3.org/Graphics/SVG/1.1/DTD/svg11.dtd">
<svg version="1.1" id="Layer_1" xmlns="http://www.w3.org/2000/svg" xmlns:xlink="http://www.w3.org/1999/xlink" x="0px" y="0px"
	 width="200px" height="100px" viewBox="0 0 200 100" enable-background="new 0 0 200 100" xml:space="preserve">
<g>
	<path fill="#414042" d="M152.418,78.354c-0.779-0.325-1.159-0.504-1.47-0.738c-0.362-0.284-0.573-0.703-0.573-1.195
		c0-0.873,0.704-1.532,1.612-1.532c0.728,0,1.365,0.466,1.611,1.166h0.131c0.077-0.363,0.183-0.688,0.353-1.063
		c-0.612-0.432-1.197-0.613-1.924-0.613c-0.794,0-1.456,0.209-1.937,0.599c-0.507,0.431-0.832,1.119-0.832,1.793
		c0,1.146,0.572,1.796,2.156,2.443c0.911,0.378,1.106,0.48,1.417,0.768c0.313,0.287,0.454,0.637,0.454,1.144
		c0,1.017-0.793,1.793-1.831,1.793c-0.846,0-1.678-0.53-2.028-1.312h-0.129c-0.039,0.404-0.065,0.548-0.261,1.157
		c0.585,0.469,1.353,0.729,2.172,0.729c1.767,0,3.091-1.236,3.091-2.886c0-0.561-0.206-1.067-0.584-1.431
		C153.535,78.86,153.276,78.72,152.418,78.354 M141.944,82.682c-0.702,0.026-0.869,0.026-1.117,0.026c-0.079,0-0.273,0-0.493-0.015
		v-0.205l-0.014-0.234v-0.246l-0.015-0.249v-0.311c-0.024-1.094-0.024-1.003-0.024-1.299l0.013-0.949c0-0.026,0-0.105-0.013-0.223
		c0.325-0.023,0.546-0.023,0.87-0.023c0.832,0,1.678,0.035,2.262,0.103c-0.041-0.144-0.053-0.22-0.053-0.349
		c0-0.12,0.012-0.223,0.053-0.419c-0.481,0.064-0.609,0.064-1.363,0.091l-0.365,0.015c-0.676,0.012-0.727,0.012-0.884,0.012
		c-0.103,0-0.285,0-0.507-0.012c-0.013-0.117-0.013-0.234-0.013-0.261c0-0.144,0-0.193,0.013-0.413
		c-0.013,0.05-0.013,0.193,0.012-0.472v-0.272c0.015-0.363,0.015-0.182,0.028-0.533v-0.272c0.026-0.352,0.013-0.193,0.026-0.454
		c0.012-0.48,0.012-0.375,0.024-0.533c0.195-0.015,0.377-0.015,0.43-0.015c0.273,0,0.428,0,0.739,0.015
		c0.455,0.012,0.833,0.026,1.146,0.041c0.413,0.023,0.648,0.038,1.014,0.076c-0.028-0.193-0.04-0.284-0.04-0.378
		c0-0.103,0.012-0.179,0.04-0.376c-0.275,0.023-0.342,0.039-0.847,0.039c-0.117,0,0.182,0-1.025,0.015h-1.08
		c-0.703-0.015-0.48-0.015-0.703-0.015c-0.492,0-0.571-0.016-0.896-0.039c0.025,0.405,0.053,0.728,0.064,1.483
		c0.026,0.791,0.041,1.441,0.041,1.623c0,0.22,0,0.39-0.015,0.832c0,0.284,0.015-0.17-0.012,1.415
		c-0.015,0.991-0.015,0.651-0.015,0.974c-0.024,1.236-0.051,1.849-0.115,2.443c0.285-0.023,0.363-0.023,0.858-0.023
		c0.205-0.015-0.248,0,1.375-0.026h0.521c0.117,0,0.248,0,0.586,0.012c0.181,0-0.104,0,0.855,0.026h0.342l0.064,0.012h0.064
		c-0.028-0.152-0.041-0.246-0.041-0.363c0-0.167,0.013-0.231,0.041-0.413C143.257,82.617,143.076,82.629,141.944,82.682
		 M131.847,74.547c-0.26,0.039-0.401,0.054-0.635,0.054c-0.223,0-0.376-0.015-0.636-0.054c0.037,0.455,0.064,0.78,0.088,1.404
		c0.028,0.87,0.041,1.544,0.041,2.353c0,0.272,0,1.04-0.013,1.963c-0.017,0.713-0.017,1.261-0.028,1.56
		c-0.012,0.533-0.038,0.923-0.088,1.491c0.283-0.038,0.425-0.05,0.608-0.05c0.196,0,0.352,0.012,0.662,0.05
		c-0.04-0.519-0.063-0.882-0.078-1.491c-0.038-0.847-0.051-2.198-0.051-3.317c0-0.894,0.013-1.4,0.051-2.479
		C131.795,75.327,131.807,75.028,131.847,74.547 M122.264,74.547c0.024,0.353,0.036,0.481,0.048,0.728
		c0.029,0.677,0.041,2.016,0.041,3.105c0,0.665,0,0.832-0.012,1.6c-0.029,1.155-0.012,0.83-0.029,1.117v0.105
		c-0.413-0.404-0.753-0.757-1.389-1.431c-0.661-0.727-1.169-1.263-1.326-1.43l-0.416-0.442l-0.429-0.454l-0.427-0.442
		c-0.417-0.428-0.822-0.87-1.235-1.327c-0.52-0.568-0.896-0.999-1.053-1.155l-0.132-0.129H115.7
		c0.012,0.353,0.012,0.481,0.012,1.132v1.752c0,0-0.012,0.17-0.012,0.507l-0.015,0.521l-0.012,0.504
		c-0.04,1.873-0.028,1.471-0.093,2.966c-0.039,0.779-0.064,1.116-0.115,1.544c0.18-0.038,0.284-0.05,0.455-0.05
		c0.155,0,0.26,0.012,0.453,0.05c-0.026-0.363-0.038-0.507-0.05-0.776c-0.041-0.729-0.066-2.028-0.066-2.679v-1.014
		c0.014-0.378,0,0.117,0.025-1.6v-0.715l0.013-0.076l0.104,0.105c0.065,0.064-0.182-0.196,0.756,0.791
		c0.479,0.507,0.218,0.234,0.778,0.832c1.416,1.482,1.014,1.052,1.312,1.377c0.507,0.545,1.208,1.299,1.819,1.99
		c0.91,1.011,1.274,1.415,1.688,1.937h0.198c-0.017-0.65-0.017-0.431-0.017-0.729c-0.012-0.469-0.012-1.014-0.012-1.559v-0.34
		c0-0.742,0.012-2.014,0.04-2.86c0.013-0.712,0.064-1.737,0.104-2.414c0.04-0.48,0.052-0.636,0.091-1.041
		c-0.206,0.039-0.299,0.054-0.455,0.054C122.601,74.601,122.483,74.586,122.264,74.547 M105.281,79.367c-0.47,0-0.847,0-1.286-0.012
		h-0.092l1.431-3.249c0.231,0.521,0.336,0.753,0.506,1.131c0.155,0.363-0.04-0.105,0.612,1.456c0.272,0.636,0.181,0.428,0.272,0.662
		C106.164,79.367,106.047,79.367,105.281,79.367 M108.297,80.366l-0.313-0.738c-0.413-0.976-0.025-0.064-1.235-2.883
		c0,0-0.18-0.431-0.584-1.392c-0.389-0.912-0.26-0.609-0.389-0.924h-0.26l-0.039,0.091l-0.053,0.092l-0.038,0.091
		c-0.026,0.064-0.131,0.299-0.313,0.691c-0.167,0.375-0.454,1.037-0.608,1.374c-0.144,0.34-0.495,1.119-0.976,2.159
		c-0.364,0.806-0.702,1.556-1.001,2.248c-0.48,1.063-0.715,1.573-1.014,2.142c0.26-0.038,0.351-0.05,0.48-0.05
		c0.117,0,0.222,0.012,0.442,0.05c0.689-2.013,0.661-1.96,1.273-3.417h0.233c0.443-0.012,1.155-0.012,1.365-0.012h1.678
		c0.232,0.545,0.388,0.921,0.7,1.715c0.312,0.794,0.454,1.172,0.65,1.714c0.234-0.038,0.376-0.05,0.624-0.05
		c0.26,0,0.403,0.012,0.676,0.05c-0.301-0.636-0.339-0.727-0.702-1.559C108.737,81.384,108.921,81.812,108.297,80.366 M93.045,78.86
		c-0.208,0-0.403-0.012-0.689-0.053v-0.973c0,0,0-0.246,0.012-0.598v-0.299c0.015-0.454,0.015-0.779,0.029-0.908
		c0-0.193,0.012-0.393,0.05-0.935c0.39-0.067,0.69-0.094,1.08-0.094c1.482,0,2.196,0.568,2.196,1.767
		C95.724,78.146,94.8,78.86,93.045,78.86 M94.021,74.547c-0.157,0-0.482,0.012-0.845,0.023c-0.403,0.016-0.729,0.03-0.975,0.03
		c-0.39,0-0.599-0.015-1-0.054c0.051,0.493,0.064,0.795,0.091,1.337c0.026,0.809,0.04,1.717,0.04,2.941
		c0,0.647-0.026,2.116-0.053,2.934c-0.013,0.65-0.04,1.017-0.078,1.559c0.467-0.05,0.532-0.05,0.636-0.05c0.13,0,0.183,0,0.637,0.05
		c-0.026-0.311-0.04-0.428-0.053-0.636c-0.012-0.349-0.023-0.896-0.053-1.585c0-0.363,0,0.155-0.012-1.586v-0.22
		c0.548,0.012,0.625,0.012,0.884,0.012c1.159,0,1.885-0.155,2.523-0.533c0.715-0.428,1.129-1.195,1.129-2.077
		C96.893,75.274,95.917,74.547,94.021,74.547 M83.707,81.331l-0.063-0.504l-0.055-0.511c-0.078-0.583-0.129-1.066-0.168-1.403
		l-0.054-0.466L83.33,77.99l-0.053-0.454l-0.064-0.545c-0.142-1.403-0.094-0.809-0.193-1.91c-0.054-0.534-0.041-0.416-0.079-0.651
		h-0.17l-0.116,0.197c-0.132,0.22-0.456,0.814-0.911,1.638l-0.312,0.557l-0.325,0.574l-0.311,0.568
		c-0.208,0.366-0.496,0.908-0.909,1.664c-0.429,0.794-0.664,1.211-0.898,1.612l-0.04,0.064c-0.312-0.519-0.495-0.859-1.235-2.222
		c-0.545-1.025-0.364-0.688-1.181-2.262l-0.302-0.557c-0.193-0.381-0.36-0.718-0.57-1.107c-0.272-0.53-0.234-0.454-0.363-0.728
		h-0.208c-0.079,0.666-0.092,0.716-0.248,1.911c-0.207,1.521-0.117,0.806-0.299,2.197l-0.078,0.53
		c-0.04,0.299-0.078,0.624-0.117,0.896c-0.053,0.302,0.053-0.325-0.297,1.938c-0.104,0.677-0.158,0.964-0.248,1.415
		c0.233-0.038,0.325-0.05,0.428-0.05c0.117,0,0.195,0.012,0.482,0.05c0.012-0.776,0.051-1.31,0.233-3.065
		c0.209-1.937,0.259-2.353,0.403-3.393l0.04,0.064l0.038,0.079l0.038,0.067l0.274,0.504l0.287,0.495l0.271,0.495
		c0.157,0.272,0.429,0.791,0.781,1.494c1.209,2.377,0.884,1.727,1.039,2.025c0.376,0.756,0.404,0.794,0.535,1.104h0.104
		c0.246-0.624,0.454-1.025,1.326-2.717c0.207-0.375-0.066,0.118,0.844-1.57c0.533-0.987,0.363-0.688,0.533-0.987
		c0.349-0.65,0.413-0.768,0.674-1.169c0.34,2.818,0.34,2.833,0.507,4.847c0.078,0.832,0.104,1.233,0.104,1.726
		c0.338-0.038,0.469-0.05,0.623-0.05c0.132,0,0.261,0.012,0.613,0.05c-0.076-0.466-0.13-0.803-0.207-1.479L83.707,81.331z
		 M65.228,81.683c-0.596,0.882-1.623,1.389-2.807,1.389c-1.192,0-2.221-0.507-2.819-1.389c-0.482-0.691-0.713-1.601-0.713-2.755
		c0-1.146,0.231-2.068,0.713-2.745c0.623-0.894,1.626-1.389,2.819-1.389c1.172,0,2.211,0.507,2.807,1.389
		c0.483,0.691,0.717,1.6,0.717,2.745C65.944,80.082,65.711,80.979,65.228,81.683 M62.42,74.377c-2.987,0-4.82,1.744-4.82,4.551
		c0,2.819,1.833,4.562,4.82,4.562c2.979,0,4.809-1.743,4.809-4.562C67.229,76.121,65.399,74.377,62.42,74.377 M48.784,74.858
		c0.974,0,1.844,0.366,2.507,1.078l0.092-0.035c0.053-0.378,0.13-0.653,0.259-0.99c-0.702-0.341-1.689-0.534-2.665-0.534
		c-1.533,0-2.678,0.379-3.547,1.17c-0.922,0.82-1.417,2.027-1.417,3.442c0,2.746,1.779,4.501,4.535,4.501
		c1.157,0,2.145-0.261,2.899-0.782l0.183-0.768l-0.066-0.038c-0.872,0.756-1.769,1.104-2.809,1.104c-1.027,0-1.909-0.39-2.533-1.116
		c-0.611-0.715-0.924-1.677-0.924-2.913c0-1.233,0.275-2.156,0.87-2.883C46.809,75.301,47.729,74.858,48.784,74.858 M63.934,41.103
		c-3.197,0.044-5.364-3.326-5.364-3.326c-0.167,0.753-0.565,2.446-0.565,2.446c1.441,1.155,3.384,1.834,5.402,1.834
		c4.36,0,7.754-2.983,7.754-6.961c0-2.665-1.474-4.366-5.025-5.525c-1.051-0.346-2.215-0.873-2.886-1.162
		c-1.764-0.833-2.432-2.073-2.466-3.709c-0.048-2.354,1.572-3.849,4.271-3.874c3.066-0.031,4.293,2.839,4.293,2.839
		c0.292-1.078,0.541-1.544,0.872-2.372c0.003-0.007-1.619-1.587-4.914-1.613c-4.07-0.031-6.884,2.483-6.884,5.937
		c0,0.962,0.249,1.83,0.699,2.612c0.617,1.071,2.06,2.311,5.22,3.4c3.219,1.11,4.501,2.406,4.501,4.589
		C68.841,38.785,66.996,41.062,63.934,41.103 M46.889,41.762l3.907-0.032l2.117,0.018l2.3,0.021h0.394
		c-0.032-0.19-0.038-0.562-0.038-0.946c0-0.322,0.083-0.85,0.089-0.85c-1.147,0.108-4.913,0.525-7.435,0.525
		c-0.414,0-0.767,0-1.01-0.059l-0.057-0.056c-0.057-0.897-0.135-1.987-0.135-2.5c0-0.226-0.05-1.013-0.05-2.227l-0.07-2.433v-2.117
		l0.032-0.057c0.541-0.031,1.41-0.031,2.048-0.019c2.059,0.044,4.429,0.176,5.644,0.237c0.003,0-0.075-0.423-0.051-0.845
		c0.023-0.464,0.05-0.835,0.063-0.835c-0.299,0.01-1.052,0.059-2.36,0.088c-1.404,0.034-1.965,0.06-2.35,0.07
		c-0.759,0.022-1.896-0.007-2.309-0.007c-0.122,0-0.615,0.007-0.672-0.006c-0.051-0.012-0.044-0.057-0.044-0.057
		s-0.034-1.055-0.034-2.14c0-0.799,0-1.471,0.034-2.013l0.032-3.386l0.006-0.365c0.542-0.034,0.854-0.021,1.238-0.021
		c0.926,0,1.758-0.047,4.66,0.13c1.06,0.063,1.832,0.078,2.526,0.151c-0.016-0.001-0.018-0.582-0.018-0.836
		c0-0.258,0.075-0.646,0.122-0.875l-0.396,0.012c-0.574,0.031-4.174,0.023-5.036,0.023c-1.436,0-2.627-0.012-5.528-0.139h-0.382
		c0.157,1.312,0.297,10.704,0.297,10.704l-0.042,3.932l-0.085,2.793c0.021,1.702-0.248,4.213-0.258,4.213
		C44.787,41.826,45.505,41.785,46.889,41.762 M104.215,58.484v-3.168c0-2.32,0.119-5.426,0.122-6.068l0.273-0.076
		c1.428-0.196,3.465-0.41,4.938-0.366c3.467,0.111,4.422,0.343,6.145,1.583c2.274,1.638,3.008,4.597,3.086,7.762
		c0.074,3.138-0.841,5.737-2.608,7.475c-1.603,1.582-2.683,1.995-4.592,2.35c-0.739,0.135-2.107,0.158-3.492,0.185
		c-0.383,0.006-2.705,0.053-3.664-0.173c-0.128-0.993-0.154-1.811-0.207-3.363l-0.032-2.942L104.215,58.484z M103.174,69.238
		l2.482,0.012c0.418,0,0.837,0.015,1.827,0.032c5.593,0.103,7.963-0.545,10.215-2.436c2.543-2.136,4.278-5.274,4.278-9.08
		c0-3.229-1.159-5.731-3.206-7.648c-2.012-1.887-3.832-2.353-8.112-2.353h-0.606l-2.03,0.029l-2.516,0.117
		c-0.705,0.029-1.245,0.029-1.628,0.029c-0.832,0-1.476-0.018-2.454-0.138c0.008,0,0.119,2.417,0.204,3.505
		c0.145,1.816,0.147,5.145,0.147,6.312c0,1.951-0.051,4.377-0.057,5.497c-0.008,1.069-0.128,5.752-0.27,6.218
		C101.43,69.396,102.144,69.265,103.174,69.238 M142.949,57.685v-0.287c0,0-0.021-7.879-0.009-8.149c0,0-0.012-0.038,0.036-0.062
		c0.368-0.176,1.899-0.349,3.186-0.346c3.656,0.012,4.987,1.747,5.123,4.003c0.108,1.79-1.01,3.261-2.221,3.982
		c-1.083,0.645-1.979,0.949-4.413,0.949C144.043,57.775,143.333,57.781,142.949,57.685 M154.163,69.461
		c0.806,0,1.823,0.009,1.823,0.009c-0.64-0.642-0.838-1.073-1.864-2.324l-2.396-2.968l-2.029-2.541c0,0-2.295-2.883-2.318-2.918
		c-0.027-0.05-0.023-0.091-0.023-0.091c4.296-0.814,6.884-3.109,6.884-5.945c0-2.558-1.507-5.031-6.682-4.932
		c-0.255,0.006-1.151,0-2.688,0.064c-0.886,0.032-1.858,0.091-2.479,0.091c-0.864,0-1.523-0.006-2.291-0.103
		c0,0,0.108,2.116,0.165,3.265c0.14,2.757,0.122,4.058,0.122,6.528c0,3.794-0.011,6.03-0.128,8.497l-0.159,3.238
		c0.511-0.094,0.914-0.094,1.427-0.094c0.448,0,0.844,0.023,1.708,0.12l-0.029-0.29l-0.149-3.224l-0.103-3.114
		c-0.027-1.006-0.036-3.273-0.004-3.851h1.286c0.156-0.026,3.5,4.132,4.463,5.374c0,0,3.861,5.254,3.867,5.251
		C152.979,69.479,153.473,69.461,154.163,69.461 M129.083,67.966c-0.414,0-0.765,0-1.008-0.059l-0.057-0.059
		c-0.059-0.894-0.134-1.986-0.134-2.496c0-0.226-0.053-1.011-0.053-2.227l-0.068-2.436v-2.115l0.03-0.056
		c0.542-0.032,1.411-0.032,2.052-0.021c2.055,0.044,4.427,0.176,5.64,0.237c0.003,0-0.071-0.425-0.051-0.844
		c0.024-0.466,0.05-0.835,0.062-0.838c-0.297,0.012-1.052,0.059-2.361,0.091c-1.403,0.032-1.963,0.062-2.349,0.07
		c-0.759,0.018-1.895-0.006-2.312-0.006c-0.12,0-0.612,0.006-0.67-0.006c-0.05-0.015-0.042-0.059-0.042-0.059
		s-0.034-1.056-0.034-2.143c0-0.797,0-1.468,0.034-2.013l0.03-3.387l0.006-0.364c0.542-0.032,0.855-0.018,1.239-0.018
		c0.924,0,1.757-0.05,4.659,0.126c1.058,0.064,1.834,0.079,2.527,0.152c-0.018-0.003-0.019-0.581-0.019-0.838
		c0-0.255,0.077-0.645,0.121-0.873l-0.396,0.012c-0.576,0.032-4.173,0.026-5.034,0.026c-1.438,0-2.625-0.015-5.53-0.141h-0.381
		c0.158,1.31,0.3,10.704,0.3,10.704l-0.047,3.932l-0.082,2.793c0.021,1.702-0.249,4.217-0.258,4.217
		c0.741-0.035,1.464-0.076,2.849-0.1l3.907-0.032l2.118,0.018l2.299,0.021h0.396c-0.033-0.193-0.039-0.565-0.039-0.95
		c0-0.316,0.083-0.847,0.092-0.85C135.37,67.55,131.604,67.966,129.083,67.966 M102.78,16.51H91.448v1.321h11.332V16.51z
		 M72.02,22.081c1.226-0.091,1.645-0.179,3.444-0.27l3.443-0.081l0.042,0.04c0.051,0.869,0.129,3.499,0.129,3.499l0.051,4.353
		l0.006,4.41c0,4.194-0.144,6.089-0.321,7.81c0.001-0.006,0.787-0.108,1.459-0.108c0.702,0,1.634,0.097,1.637,0.111
		c-0.221-1.77-0.226-5.61-0.275-7.862c-0.051-2.253,0.032-4.387,0.032-4.387l0.069-4.268l0.141-3.586l0.045-0.023l3.003,0.075
		c1.433,0.044,2.296,0.108,3.734,0.275c-0.007,0-0.139-0.57-0.127-0.942c0.012-0.371,0.047-0.635,0.076-0.805
		c0,0-5,0.122-7.65,0.122h-0.961c0,0-7.677-0.079-7.952-0.122c0.097,0.511,0.104,0.407,0.091,0.838
		C72.117,21.651,72.036,22.079,72.02,22.081 M95.555,47.698c0.188,2.825,0.297,4.419,0.321,6.848l0.007,2.884
		c-0.031,4.436-0.164,5.69-1.032,7.401c-1.264,2.484-3.348,3.41-6.363,3.501c-3.475,0.103-5.433-1.913-6.411-4.137
		c-0.3-0.686-0.552-2.526-0.526-5.345c0.007-0.932-0.019-2.57,0.015-4.498c0.063-3.569,0.127-5.207,0.255-6.654
		c-0.577,0.097-0.898,0.129-1.506,0.129c-0.708,0-0.989-0.032-1.566-0.129c0.095,1.286,0.313,3.859,0.313,6.042
		c0,0.835,0.044,1.799,0.044,2.859c-0.064,2.605,0.034,4.27,0.032,4.624c-0.026,3.385,0.542,4.864,2.161,6.37
		c1.446,1.346,4.01,2.154,6.804,2.154c2.954,0,5.329-0.87,6.902-2.605c0.8-0.835,1.505-1.86,1.842-2.918
		c0.485-1.515,0.662-2.491,0.674-6.921c0.003-1.193,0.025-2.31,0.059-3.273c0,0,0.095-5.397,0.224-6.332
		c-0.385,0.129-0.757,0.123-1.129,0.129C96.365,47.83,95.557,47.719,95.555,47.698 M70.202,59.413c-0.589,0-6.046,0.003-7.101,0
		c-0.082,0-0.073-0.067-0.073-0.067s2.366-5.447,2.898-6.517c0.312-0.63,0.706-1.485,0.708-1.485
		c0.076-0.059,0.56,0.964,1.614,3.381c0.802,1.84,2.013,4.636,2.013,4.636C70.26,59.363,70.243,59.413,70.202,59.413 M76.036,69.209
		c0.646,0,1.065,0.094,1.65,0.114l-1.722-3.654c0,0-1.865-4.144-2.665-5.96c-0.779-1.767-2.76-6.3-3.882-8.843
		c-0.729-1.656-1.599-3.865-1.599-3.865h-0.756c-0.066,0.164-4.308,9.708-5.2,11.706c-1.087,2.435-2.458,5.362-3.493,7.624
		c-0.668,1.465-1.323,3.039-1.323,3.039c0.524-0.1,0.721-0.1,1.113-0.1c0.426,0,0.599,0.029,1.122,0.158c0,0,0.52-2.131,2.054-5.898
		c0.439-1.073,1.055-2.579,1.175-2.878c0.016-0.035,0.07-0.038,0.07-0.038h3.9c0,0,3.764,0,4.247,0.003
		c0.042,0,0.044,0.041,0.051,0.041c0,0,0.384,0.858,1.306,3.01c0.557,1.298,1.005,2.52,1.005,2.52l1.23,3.133
		C75.078,69.25,75.394,69.206,76.036,69.209 M55.981,67.638c-0.444,0.053-1.564,0.193-3.324,0.287
		c-0.766,0.035-1.409,0.097-2.596,0.097c-0.579,0-1.075,0.029-1.645,0.018c-0.749-0.012-1.298-0.05-1.323-0.114
		c-0.031-0.079-0.063-0.551-0.064-0.58c-0.154-2.235-0.205-10.144-0.205-10.144s-0.145-4.46,0.366-9.515
		c-0.001,0.009-1.014,0.123-1.567,0.123c-0.431,0-1.071-0.044-1.583-0.114c0,0,0.313,6.839,0.313,10.936s-0.217,9.654-0.313,10.713
		c0.161,0,1.005-0.059,2.744-0.085c1.739-0.023,4.245-0.05,5.805,0c1.226,0.041,2.041,0.067,2.681,0.085
		c0.215,0.006,0.457,0.018,0.678,0.018c-0.016,0-0.042-0.504-0.029-0.827C55.927,68.312,55.979,67.638,55.981,67.638
		 M103.037,41.768c-0.032-0.19-0.038-0.562-0.038-0.946c0-0.322,0.084-0.85,0.09-0.85c-1.147,0.108-4.915,0.525-7.436,0.525
		c-0.417,0-0.767,0-1.008-0.059l-0.059-0.056c-0.057-0.897-0.135-1.987-0.135-2.5c0-0.226-0.05-1.013-0.05-2.227l-0.07-2.433v-2.117
		l0.031-0.057c0.542-0.031,1.413-0.031,2.05-0.019c2.058,0.044,4.429,0.176,5.642,0.237c0.003,0-0.073-0.423-0.051-0.845
		c0.024-0.464,0.05-0.835,0.064-0.835c-0.299,0.01-1.054,0.059-2.362,0.088c-1.404,0.034-1.965,0.06-2.349,0.07
		c-0.759,0.022-1.896-0.007-2.311-0.007c-0.122,0-0.615,0.007-0.671-0.006c-0.051-0.012-0.044-0.057-0.044-0.057
		s-0.032-1.055-0.032-2.14c0-0.799,0-1.471,0.032-2.013l0.031-3.386l0.007-0.365c0.541-0.034,0.855-0.021,1.238-0.021
		c0.926,0,1.756-0.047,4.659,0.13c1.058,0.063,1.833,0.078,2.527,0.151c-0.017-0.001-0.018-0.582-0.018-0.836
		c0-0.258,0.074-0.646,0.121-0.875l-0.396,0.012c-0.574,0.031-4.173,0.023-5.034,0.023c-1.436,0-2.627-0.012-5.529-0.139h-0.382
		c0.158,1.312,0.299,10.704,0.299,10.704l-0.042,3.932l-0.085,2.793c0.019,1.702-0.248,4.213-0.258,4.213
		c0.741-0.032,1.465-0.073,2.85-0.097l3.907-0.032l2.117,0.018l2.3,0.021H103.037z M109.33,41.762l3.905-0.032l2.119,0.018
		l2.297,0.021h0.397c-0.032-0.19-0.04-0.562-0.04-0.946c0-0.322,0.084-0.85,0.09-0.85c-1.146,0.108-4.916,0.525-7.438,0.525
		c-0.414,0-0.763,0-1.006-0.059l-0.059-0.056c-0.058-0.897-0.134-1.987-0.134-2.5c0-0.226-0.051-1.013-0.051-2.227l-0.07-2.433
		v-2.117l0.03-0.057c0.544-0.031,1.411-0.031,2.05-0.019c2.059,0.044,4.431,0.176,5.642,0.237c0.003,0-0.073-0.423-0.05-0.845
		c0.025-0.464,0.049-0.835,0.063-0.835c-0.298,0.01-1.054,0.059-2.362,0.088c-1.404,0.034-1.961,0.06-2.347,0.07
		c-0.761,0.022-1.897-0.007-2.313-0.007c-0.12,0-0.61,0.007-0.668-0.006c-0.053-0.012-0.045-0.057-0.045-0.057
		s-0.032-1.055-0.032-2.14c0-0.799,0-1.471,0.032-2.013l0.03-3.386l0.009-0.365c0.541-0.034,0.853-0.021,1.236-0.021
		c0.926,0,1.759-0.047,4.661,0.13c1.058,0.063,1.832,0.078,2.526,0.151c-0.018-0.001-0.018-0.582-0.018-0.836
		c0-0.258,0.075-0.646,0.119-0.875l-0.396,0.012c-0.574,0.031-4.173,0.023-5.032,0.023c-1.439,0-2.627-0.012-5.529-0.139h-0.384
		c0.159,1.312,0.3,10.704,0.3,10.704l-0.044,3.932l-0.083,2.793c0.019,1.702-0.249,4.213-0.258,4.213
		C107.22,41.826,107.945,41.785,109.33,41.762"/>
</g>
</svg>
