<?xml version="1.0" encoding="utf-8"?>
<!-- Generator: Adobe Illustrator 16.0.0, SVG Export Plug-In . SVG Version: 6.00 Build 0)  -->
<!DOCTYPE svg PUBLIC "-//W3C//DTD SVG 1.1//EN" "http://www.w3.org/Graphics/SVG/1.1/DTD/svg11.dtd">
<svg version="1.1" id="Layer_1" xmlns="http://www.w3.org/2000/svg" xmlns:xlink="http://www.w3.org/1999/xlink" x="0px" y="0px"
	 width="200px" height="100px" viewBox="0 0 200 100" enable-background="new 0 0 200 100" xml:space="preserve">
<g>
	<g>
		<path fill="#1B1B1B" d="M145.646,55.752l7.745,13.416c-1.162,0.669-2.412,1.194-3.736,1.55L145.646,55.752z"/>
	</g>
	<g>
		<path fill="#2C2C2C" d="M145.646,55.752l-4.012,14.966c-1.322-0.353-2.576-0.879-3.736-1.55l7.745-13.416H145.646z"/>
		<path fill="#212120" d="M145.646,55.752l4.009,14.966c-1.277,0.343-2.624,0.528-4.009,0.526V55.752z"/>
		<path fill="#262626" d="M145.646,55.752v15.492c-1.387,0.002-2.73-0.184-4.012-0.526L145.646,55.752z"/>
	</g>
	<g>
		<path fill="#151515" d="M145.646,55.752L145.646,55.752l10.952,10.957c-0.952,0.952-2.034,1.776-3.207,2.459L145.646,55.752z"/>
		<path fill="#373737" d="M145.644,55.752l-10.952,10.954c-0.957-0.955-1.782-2.035-2.464-3.207l13.416-7.743V55.752z"/>
		<path fill="#454545" d="M145.644,55.752l-13.416-7.743c0.683-1.176,1.507-2.256,2.464-3.209l10.952,10.951V55.752z"/>
		<path fill="#454545" d="M145.644,55.75L134.691,44.8c0.952-0.955,2.034-1.781,3.208-2.462L145.644,55.75z"/>
		<path fill="#474747" d="M145.646,55.752L145.646,55.752L137.9,42.337c1.157-0.669,2.411-1.194,3.733-1.549L145.646,55.752z"/>
		<path fill="#444444" d="M145.641,55.752l-14.961-4.009c0.356-1.324,0.879-2.576,1.55-3.734L145.641,55.752z"/>
		<path fill="#414141" d="M145.64,55.755h-15.488c0-1.39,0.188-2.732,0.529-4.014l14.962,4.011L145.64,55.755z"/>
		<path fill="#313131" d="M145.644,55.752L137.9,69.168c-1.176-0.683-2.256-1.507-3.209-2.462L145.644,55.752z"/>
		<path fill="#3C3C3C" d="M145.644,55.755l-13.416,7.741c-0.669-1.16-1.194-2.412-1.545-3.737l14.957-4.004H145.644z"/>
		<path fill="#3E3E3E" d="M130.68,59.762c-0.343-1.278-0.527-2.622-0.527-4.009h15.488L130.68,59.762z"/>
		<path fill="#4F5050" d="M145.646,55.752l4.009-14.963c1.321,0.355,2.574,0.879,3.734,1.549L145.646,55.752z"/>
		<path fill="#515252" d="M145.646,55.752l7.743-13.415c1.175,0.681,2.257,1.509,3.209,2.462L145.646,55.752z"/>
		<path fill="#0F0F10" d="M152.588,59.765c-1.303-0.35-2.557-0.871-3.731-1.55c-1.13-0.649-2.187-1.446-3.133-2.384l10.874,10.875
			c0.954-0.953,1.779-2.033,2.462-3.207l-6.468-3.734H152.588"/>
		<path fill="#090909" d="M152.595,59.767l6.464,3.732c0.67-1.16,1.196-2.409,1.551-3.732c-1.323,0.356-2.672,0.526-4.012,0.526
			C155.241,60.29,153.894,60.114,152.595,59.767"/>
		<path fill="#4E4E4E" d="M145.646,55.752V40.26c1.385,0,2.731,0.186,4.009,0.529L145.646,55.752z"/>
		<path fill="#494949" d="M145.646,55.752l-4.012-14.963c1.281-0.343,2.623-0.529,4.012-0.529V55.752z"/>
		<path fill="#3D3D3D" d="M156.598,44.799V60.29c1.34,0,2.688-0.17,4.012-0.525L156.598,44.799z"/>
		<path fill="#494949" d="M156.598,44.799l4.012,14.965c1.277-0.344,2.531-0.855,3.733-1.55L156.598,44.799z"/>
		<path fill="#343434" d="M156.598,44.799L156.598,44.799l-4.007,14.962c1.302,0.35,2.65,0.525,4.007,0.528V44.799z"/>
		<path fill="#343434" d="M148.854,58.212c1.178,0.679,2.432,1.201,3.735,1.553l4.009-14.967L148.854,58.212z"/>
		<path fill="#343434" d="M156.598,44.797L156.598,44.797l-10.957,10.955c0.97,0.973,2.053,1.793,3.213,2.463L156.598,44.797z"/>
		<path fill="#727272" d="M156.598,44.797l14.964,4.009c0.351-1.304,0.525-2.651,0.528-4.009H156.598z"/>
		<path fill="#A1A1A1" d="M156.598,44.797l7.745-13.416c-1.179-0.675-2.433-1.197-3.735-1.546l-4.012,14.962H156.598z"/>
		<path fill="#ACACAC" d="M156.598,44.795l4.01-14.958c-1.304-0.352-2.651-0.526-4.01-0.529V44.795z"/>
		<path fill="#ACACAC" d="M156.598,44.797L156.598,44.797L156.6,29.31c-1.342,0-2.688,0.169-4.011,0.523L156.598,44.797z"/>
		<path fill="#969696" d="M156.6,44.795l10.954-10.953c-0.97-0.967-2.051-1.791-3.209-2.458L156.6,44.795z"/>
		<path fill="#8B8B8B" d="M156.603,44.795l13.412-7.743c-0.691-1.201-1.525-2.27-2.462-3.21L156.6,44.795H156.603z"/>
		<path fill="#686969" d="M156.598,44.797l13.415,7.745c0.677-1.175,1.198-2.432,1.549-3.735L156.598,44.797z"/>
		<path fill="#787878" d="M156.598,44.799l15.492-0.003c0-1.34-0.169-2.685-0.525-4.009l-14.962,4.009L156.598,44.799z"/>
		<path fill="#818282" d="M171.564,40.788c-0.346-1.279-0.856-2.534-1.549-3.735l-13.413,7.744L171.564,40.788z"/>
		<path fill="#9B9B9B" d="M156.598,44.797l-7.747-13.413c-1.196,0.691-2.271,1.523-3.207,2.46L156.598,44.797z"/>
		<path fill="#A3A2A3" d="M156.598,44.797l-4.009-14.964c-1.279,0.346-2.533,0.855-3.738,1.552L156.598,44.797z"/>
		<path fill="#939393" d="M149.654,40.786c1.324,0.356,2.576,0.88,3.731,1.55c1.169,0.674,2.237,1.495,3.187,2.437l-10.93-10.928
			c-0.966,0.968-1.791,2.048-2.458,3.209l6.464,3.729L149.654,40.786"/>
		<path fill="#8C8C8C" d="M149.646,40.784l-6.461-3.728c-0.678,1.174-1.199,2.427-1.548,3.731c1.278-0.341,2.622-0.526,4.009-0.526
			C147.029,40.261,148.37,40.444,149.646,40.784"/>
		<path fill="#5F6060" d="M156.598,44.799l10.955,10.954c0.968-0.968,1.79-2.049,2.46-3.209l-13.415-7.749V44.799z"/>
		<path fill="#555555" d="M156.598,44.799l7.745,13.416c1.204-0.695,2.273-1.523,3.21-2.462L156.598,44.799z"/>
		<path fill="#090909" d="M38.249,55.743h-2.202V48.69l-3.794,4.558c-0.156,0.158-0.404,0.197-0.587,0.015l-3.791-4.573v7.053
			h-2.205v-9.757c0-0.66,0.535-1.192,1.193-1.192c0.436,0,0.69,0.219,1.021,0.576l4.091,4.923l4.273-5.128
			c0.21-0.231,0.511-0.371,0.849-0.371c0.633,0,1.153,0.514,1.153,1.152V55.743z"/>
		<path fill="#090909" d="M99.309,47.939l1.57,3.118h-3.054L99.309,47.939z M93.153,55.743h2.441l1.407-2.956h4.748l1.486,2.956
			h2.443l-5.348-10.476c-0.222-0.316-0.589-0.521-1.003-0.521c-0.417,0-0.782,0.206-1.004,0.521L93.153,55.743z"/>
		<path fill="#090909" d="M55.904,55.743H54.33l-7.282-7.31v7.31h-2.204v-9.757c0-0.66,0.534-1.192,1.195-1.192
			c0.345,0,0.658,0.145,0.875,0.384l6.785,6.814V45.53c0-0.407,0.328-0.736,0.736-0.736h0.733c0.407,0,0.736,0.329,0.736,0.736
			V55.743z"/>
		<path fill="#090909" d="M64.225,53.424c-0.683,0.195-1.512,0.289-2.537,0.289h-1.363v-6.887h1.754h0.003
			c1.023,0,1.674,0.062,2.243,0.211c1.69,0.44,2.509,1.443,2.509,3.064C66.834,51.799,65.957,52.919,64.225,53.424 M64.895,45.053
			c-0.763-0.178-1.592-0.262-2.607-0.262h-3.065c-0.609,0-1.103,0.496-1.103,1.105v9.848h3.599c1.24,0,2.208-0.112,3.046-0.345
			c2.804-0.776,4.35-2.659,4.35-5.298C69.114,47.501,67.618,45.711,64.895,45.053"/>
		<path fill="#090909" d="M109.289,49.68v-2.854h2.776c0.719,0,1.921,0.186,1.921,1.427c0,0.613-0.247,1.427-2.395,1.427H109.289z
			 M113.694,51.409c1.677-0.49,2.574-1.58,2.574-3.188c0-2.147-1.642-3.431-4.396-3.431h-3.687c-0.607,0-1.102,0.495-1.102,1.105
			v9.847h2.204v-4.03h2.018l2.71,4.03h2.645L113.694,51.409z"/>
		<path fill="#090909" d="M40.475,55.743h2.205V45.53c0-0.407-0.331-0.736-0.733-0.736h-0.736c-0.407,0-0.736,0.329-0.736,0.736
			V55.743z"/>
		<path fill="#090909" d="M91.819,55.743h-2.207v-4.539h-5.735v4.539h-2.204V45.53c0-0.407,0.329-0.736,0.739-0.736h0.727
			c0.407,0,0.737,0.329,0.737,0.736v3.644h5.735l0.003-3.644c0-0.407,0.329-0.736,0.736-0.736h0.73c0.405,0,0.737,0.329,0.737,0.736
			V55.743z"/>
		<path fill="#090909" d="M75.536,49.215c-1.567-0.22-2.53-0.401-2.53-1.263c0-0.747,0.788-1.175,2.156-1.175
			c1.478,0,2.743,0.555,3.218,0.795c0,0,0.057,0.009,0.09,0.009c0.111,0,0.208-0.052,0.27-0.133l0.641-1.309
			c0.009-0.034,0.013-0.067,0.013-0.105c0-0.122-0.063-0.228-0.162-0.287l-0.066-0.032c-1.134-0.629-2.661-1-4.113-1
			c-2.711,0-4.328,1.246-4.328,3.331c0,1.007,0.345,1.748,1.053,2.27c0.865,0.63,2.113,0.801,3.212,0.957
			c1.511,0.211,2.442,0.384,2.442,1.169c0,1.262-1.82,1.397-2.602,1.397c-1.185,0-2.283-0.302-3.258-0.896l-0.235-0.141
			l-0.134,0.236l-0.76,1.348l-0.124,0.214l0.21,0.136c0.808,0.529,2.212,1.163,4.286,1.163c2.977,0,4.899-1.387,4.899-3.534
			C79.713,49.808,77.397,49.48,75.536,49.215"/>
		<path fill="#090909" d="M125.66,50.8c0,0.255-0.2,0.404-0.427,0.404h-4.791v2.506h5.85v2.034h-8.054v-9.85
			c0-0.609,0.492-1.102,1.103-1.102h6.433c0.222,0,0.422,0.146,0.422,0.407v1.222c0,0.257-0.2,0.405-0.422,0.405h-5.331v2.349h4.791
			c0.227,0,0.427,0.149,0.427,0.407V50.8z"/>
	</g>
</g>
</svg>
