<?xml version="1.0" encoding="utf-8"?>
<!-- Generator: Adobe Illustrator 16.0.0, SVG Export Plug-In . SVG Version: 6.00 Build 0)  -->
<!DOCTYPE svg PUBLIC "-//W3C//DTD SVG 1.1//EN" "http://www.w3.org/Graphics/SVG/1.1/DTD/svg11.dtd">
<svg version="1.1" id="Layer_1" xmlns="http://www.w3.org/2000/svg" xmlns:xlink="http://www.w3.org/1999/xlink" x="0px" y="0px"
	 width="50px" height="50px" viewBox="0 0 50 50" enable-background="new 0 0 50 50" xml:space="preserve">
<g>
	<path fill="#414042" d="M24.982,45.995c-0.441,0-0.8-0.359-0.8-0.801v-4.576c-5.71-0.42-10.226-5.199-10.226-11.012
		c0-0.08,0.004-0.16,0.01-0.24c-0.01-0.057-0.013-0.117-0.008-0.178l0.049-0.578c0.007-0.102,0.011-0.158,0.019-0.215
		C15.05,17.069,23.79,5.093,24.331,4.363c0.029-0.044,0.062-0.085,0.101-0.123v0c0.229-0.228,0.573-0.298,0.872-0.174
		c0.158,0.065,0.287,0.177,0.374,0.315c0.657,0.892,9.229,12.718,10.288,23.96c0.015,0.148,0.026,0.307,0.038,0.465l0.032,0.387
		c0.003,0.051,0.001,0.1-0.005,0.146l0.001,0.014c0.006,0.084,0.011,0.168,0.011,0.254c0,5.826-4.535,10.613-10.261,11.016v4.572
		C25.782,45.636,25.424,45.995,24.982,45.995z M25.782,35.653v3.363c4.843-0.398,8.661-4.467,8.661-9.41l-0.018-0.342
		c-0.001-0.031,0-0.061,0.003-0.092l-0.021-0.248c-0.011-0.146-0.021-0.287-0.035-0.426c-0.885-9.397-7.31-19.332-9.376-22.314
		c-2.072,2.988-8.528,12.964-9.381,22.392l-0.379,0.02c0.037,0.027,0.072,0.055,0.103,0.086c0.008,0.008,0.015,0.016,0.021,0.021
		l0.24,0.037l-0.034,0.402c0.006,0.043,0.008,0.088,0.007,0.131l-0.01,0.178c-0.004,0.051-0.008,0.102-0.008,0.154
		c0,4.93,3.8,8.99,8.626,9.408v-6.607l-4.431-4.43c-0.312-0.311-0.312-0.818,0-1.131s0.818-0.312,1.131,0l3.3,3.299v-5.676
		l-4.431-4.43c-0.312-0.312-0.312-0.819,0-1.131c0.312-0.312,0.818-0.312,1.131,0l3.3,3.299v-6.562c0-0.442,0.358-0.8,0.8-0.8
		s0.8,0.358,0.8,0.8v10.573l3.594-3.593c0.312-0.312,0.818-0.312,1.131,0s0.312,0.818,0,1.131l-4.581,4.582
		c-0.044,0.045-0.093,0.084-0.144,0.115v4.969l3.594-3.594c0.312-0.312,0.818-0.312,1.131,0s0.312,0.818,0,1.131l-4.581,4.582
		C25.882,35.585,25.833,35.622,25.782,35.653z"/>
</g>
</svg>
