<?xml version="1.0" encoding="utf-8"?>
<!-- Generator: Adobe Illustrator 16.0.0, SVG Export Plug-In . SVG Version: 6.00 Build 0)  -->
<!DOCTYPE svg PUBLIC "-//W3C//DTD SVG 1.1//EN" "http://www.w3.org/Graphics/SVG/1.1/DTD/svg11.dtd">
<svg version="1.1" id="Layer_1" xmlns="http://www.w3.org/2000/svg" xmlns:xlink="http://www.w3.org/1999/xlink" x="0px" y="0px"
	 width="50px" height="50px" viewBox="0 0 50 50" enable-background="new 0 0 50 50" xml:space="preserve">
<g>
	<path fill="#414042" d="M31.349,41.693c-2.413,0-4.681-0.939-6.386-2.645l-6.349-6.35c-0.264-0.262-0.721-0.262-0.984,0
		c-0.27,0.271-0.271,0.715,0,0.986c1.477,1.48,1.477,3.887,0,5.363c-1.43,1.436-3.933,1.436-5.364-0.002
		c-7.021-7.02-7.021-18.445,0.001-25.466c3.4-3.401,7.922-5.273,12.731-5.273c4.811,0,9.333,1.873,12.735,5.273
		c7.021,7.022,7.021,18.447,0,25.469C36.028,40.754,33.761,41.693,31.349,41.693z M18.122,30.896c0.613,0,1.189,0.238,1.623,0.672
		l6.349,6.35c1.403,1.402,3.27,2.176,5.255,2.176c1.984,0,3.851-0.773,5.254-2.176C43,31.52,43,21.109,36.603,14.711
		c-3.101-3.098-7.222-4.805-11.604-4.805c-4.382,0-8.502,1.707-11.601,4.805C7,21.109,7,31.52,13.397,37.918
		c0.828,0.83,2.274,0.828,3.101,0c0.854-0.854,0.854-2.246,0-3.104c-0.892-0.891-0.893-2.346-0.001-3.244
		C16.933,31.135,17.509,30.896,18.122,30.896z M31.347,37.512c-1.014,0-1.965-0.395-2.679-1.111
		c-0.716-0.713-1.111-1.664-1.111-2.678c-0.001-1.016,0.395-1.969,1.112-2.684c1.426-1.432,3.929-1.432,5.358,0
		c0.716,0.717,1.11,1.668,1.11,2.682s-0.395,1.967-1.11,2.682C33.312,37.117,32.36,37.512,31.347,37.512z M31.347,31.529
		c-0.585,0-1.134,0.229-1.546,0.641c-0.416,0.416-0.645,0.965-0.645,1.551s0.229,1.137,0.643,1.549
		c0.829,0.832,2.272,0.83,3.097,0.002c0.415-0.414,0.643-0.965,0.643-1.551s-0.229-1.137-0.642-1.551
		C32.483,31.758,31.933,31.529,31.347,31.529z M36.223,27.479c-0.612,0-1.188-0.238-1.623-0.67
		c-0.436-0.436-0.675-1.013-0.675-1.627s0.239-1.19,0.673-1.624c0.871-0.867,2.38-0.866,3.247,0.001
		c0.435,0.431,0.675,1.008,0.675,1.622c0,0.615-0.24,1.192-0.676,1.628C37.411,27.24,36.835,27.479,36.223,27.479z M36.223,24.486
		c-0.187,0-0.362,0.072-0.495,0.205c-0.13,0.13-0.202,0.304-0.202,0.49s0.072,0.361,0.203,0.493
		c0.261,0.259,0.724,0.264,0.985-0.001c0.133-0.132,0.206-0.307,0.206-0.492c-0.001-0.186-0.073-0.359-0.204-0.49
		C36.582,24.559,36.408,24.486,36.223,24.486z M15.272,25.98c-0.813,0-1.577-0.316-2.152-0.892
		c-0.574-0.574-0.891-1.338-0.891-2.151s0.316-1.578,0.892-2.152c1.15-1.151,3.153-1.152,4.306,0
		c0.575,0.575,0.892,1.339,0.892,2.152s-0.316,1.577-0.892,2.152C16.85,25.664,16.085,25.98,15.272,25.98z M15.273,21.492
		c-0.385,0-0.747,0.151-1.021,0.424s-0.424,0.636-0.424,1.021s0.15,0.748,0.423,1.02c0.545,0.548,1.496,0.544,2.045,0
		c0.271-0.271,0.422-0.634,0.422-1.02s-0.15-0.748-0.423-1.021C16.021,21.643,15.658,21.492,15.273,21.492z M30.984,21.493
		c-0.813,0-1.578-0.317-2.152-0.894c-0.574-0.573-0.892-1.337-0.892-2.151s0.317-1.578,0.894-2.152
		c0.573-0.574,1.338-0.891,2.15-0.891c0.001,0,0,0,0,0c0.813,0,1.578,0.316,2.152,0.891c0.575,0.574,0.892,1.338,0.892,2.152
		s-0.316,1.578-0.892,2.152C32.563,21.176,31.799,21.493,30.984,21.493z M30.984,17.005c-0.385,0-0.748,0.15-1.021,0.423
		c-0.273,0.272-0.424,0.635-0.424,1.02s0.15,0.748,0.423,1.02c0.549,0.551,1.497,0.547,2.042,0.001
		c0.273-0.273,0.424-0.635,0.424-1.021s-0.15-0.748-0.423-1.02C31.733,17.155,31.37,17.005,30.984,17.005z M22.007,19.997
		c-0.813,0-1.578-0.316-2.152-0.891c-0.576-0.577-0.893-1.342-0.893-2.155c0-0.814,0.316-1.579,0.893-2.153
		c1.149-1.146,3.154-1.148,4.305,0c1.188,1.189,1.188,3.121,0,4.308C23.584,19.681,22.819,19.997,22.007,19.997z M22.007,15.508
		c-0.387,0-0.749,0.15-1.021,0.422c-0.273,0.273-0.424,0.635-0.424,1.021s0.15,0.75,0.425,1.023c0.543,0.545,1.495,0.544,2.042,0
		c0.563-0.563,0.562-1.48-0.001-2.044C22.756,15.658,22.393,15.508,22.007,15.508z"/>
</g>
</svg>
