<?xml version="1.0" encoding="utf-8"?>
<!-- Generator: Adobe Illustrator 16.0.0, SVG Export Plug-In . SVG Version: 6.00 Build 0)  -->
<!DOCTYPE svg PUBLIC "-//W3C//DTD SVG 1.1//EN" "http://www.w3.org/Graphics/SVG/1.1/DTD/svg11.dtd">
<svg version="1.1" id="Layer_1" xmlns="http://www.w3.org/2000/svg" xmlns:xlink="http://www.w3.org/1999/xlink" x="0px" y="0px"
	 width="50px" height="50px" viewBox="0 0 50 50" enable-background="new 0 0 50 50" xml:space="preserve">
<path fill="#414042" d="M31.707,11.585l1.514-2.637c0.244-0.437,0.781-0.586,1.219-0.343c0.438,0.245,0.588,0.782,0.344,1.222
	L33.27,12.46c-0.145,0.294-0.486,0.438-0.781,0.438c-0.145,0-0.293-0.049-0.439-0.1C31.611,12.561,31.463,12.022,31.707,11.585
	 M37.174,17.972c-0.246-0.438-0.1-0.975,0.342-1.219l2.637-1.515c0.438-0.243,0.975-0.099,1.219,0.344
	c0.244,0.438,0.1,0.976-0.344,1.221l-2.635,1.514c-0.143,0.099-0.293,0.099-0.438,0.099C37.66,18.415,37.367,18.266,37.174,17.972
	 M43.906,25.002c0,0.489-0.391,0.877-0.877,0.877h-3.072c-0.488,0-0.877-0.388-0.877-0.877c0-0.488,0.389-0.876,0.877-0.876h3.072
	C43.516,24.071,43.906,24.514,43.906,25.002 M41.371,34.468c-0.145,0.294-0.488,0.438-0.781,0.438c-0.145,0-0.293-0.049-0.438-0.099
	l-2.637-1.515c-0.438-0.243-0.588-0.782-0.342-1.219c0.244-0.439,0.781-0.586,1.219-0.342l2.635,1.512
	C41.465,33.491,41.615,34.028,41.371,34.468 M34.783,40.174c0.244,0.438,0.1,0.976-0.344,1.222
	c-0.143,0.049-0.293,0.098-0.438,0.098c-0.293,0-0.631-0.145-0.781-0.438l-1.514-2.635c-0.244-0.438-0.1-0.977,0.342-1.219
	c0.439-0.246,0.979-0.101,1.221,0.343L34.783,40.174z M25.902,39.979v3.072c0,0.488-0.389,0.876-0.876,0.876
	c-0.489,0-0.878-0.388-0.878-0.876v-3.072c0-0.488,0.389-0.875,0.878-0.875C25.513,39.053,25.902,39.491,25.902,39.979
	 M18.289,38.421l-1.509,2.635c-0.145,0.293-0.487,0.438-0.782,0.438c-0.144,0-0.294-0.049-0.438-0.098
	c-0.438-0.246-0.588-0.783-0.343-1.223l1.515-2.633c0.241-0.438,0.78-0.588,1.22-0.344C18.388,37.444,18.533,37.978,18.289,38.421
	 M12.827,32.028c0.244,0.438,0.099,0.976-0.343,1.219L9.85,34.762C9.704,34.86,9.555,34.86,9.41,34.86
	c-0.292,0-0.631-0.143-0.78-0.438c-0.244-0.437-0.1-0.974,0.343-1.22l2.635-1.514C11.996,31.442,12.582,31.59,12.827,32.028
	 M10.043,25.879H6.97c-0.486,0-0.876-0.388-0.876-0.877c0-0.488,0.39-0.876,0.876-0.876h3.073c0.487,0,0.876,0.388,0.876,0.876
	C10.923,25.491,10.531,25.879,10.043,25.879 M12.827,17.972c-0.145,0.294-0.487,0.438-0.782,0.438c-0.144,0-0.294-0.049-0.438-0.098
	l-2.635-1.515c-0.438-0.243-0.587-0.782-0.343-1.22c0.243-0.438,0.78-0.588,1.221-0.345l2.634,1.515
	C12.92,16.997,13.071,17.534,12.827,17.972 M15.216,9.827c-0.245-0.439-0.099-0.977,0.343-1.222
	c0.438-0.243,0.977-0.098,1.221,0.343l1.514,2.637c0.243,0.438,0.1,0.976-0.343,1.22c-0.146,0.099-0.295,0.099-0.439,0.099
	c-0.294,0-0.632-0.145-0.78-0.438L15.216,9.827z M24.098,10.021V6.947c0-0.486,0.389-0.875,0.877-0.875s0.877,0.389,0.877,0.875
	v3.073c0,0.488-0.389,0.876-0.877,0.876C24.487,10.946,24.098,10.509,24.098,10.021 M24.975,33.931
	c-4.929,0-8.928-4.003-8.928-8.929c0-4.925,4.003-8.929,8.928-8.929c4.925,0,8.927,3.999,8.927,8.929S29.904,33.931,24.975,33.931
	 M24.975,14.269c-5.904,0-10.734,4.829-10.734,10.733c0,5.905,4.83,10.735,10.734,10.735c5.904,0,10.734-4.834,10.734-10.735
	C35.709,19.104,30.93,14.269,24.975,14.269"/>
</svg>
