<?xml version="1.0" encoding="utf-8"?>
<!-- Generator: Adobe Illustrator 16.0.0, SVG Export Plug-In . SVG Version: 6.00 Build 0)  -->
<!DOCTYPE svg PUBLIC "-//W3C//DTD SVG 1.1//EN" "http://www.w3.org/Graphics/SVG/1.1/DTD/svg11.dtd">
<svg version="1.1" id="Layer_1" xmlns="http://www.w3.org/2000/svg" xmlns:xlink="http://www.w3.org/1999/xlink" x="0px" y="0px"
	 width="50px" height="50px" viewBox="0 0 50 50" enable-background="new 0 0 50 50" xml:space="preserve">
<path fill="#414042" d="M24.998,41.893c-0.153,0-0.308-0.044-0.441-0.132c-0.645-0.428-15.792-10.59-15.792-23.055
	c0-6.896,4.262-10.505,8.473-10.505c2.94,0,6.178,1.788,7.762,5.707c1.609-3.983,4.931-5.801,7.951-5.801
	c4.119,0,8.287,3.342,8.287,9.729c0,11.567-15.105,23.392-15.75,23.89C25.343,41.837,25.17,41.893,24.998,41.893z M17.237,9.802
	c-3.311,0-6.873,2.786-6.873,8.904c0,10.428,12.032,19.56,14.599,21.389c2.524-2.071,14.674-12.547,14.674-22.259
	c0-5.585-3.467-8.129-6.688-8.129c-2.779,0-6.322,1.934-7.161,7.381c-0.061,0.391-0.396,0.679-0.791,0.679l0,0
	c-0.395,0-0.73-0.288-0.791-0.679C23.38,11.71,19.935,9.802,17.237,9.802z"/>
</svg>
