<?xml version="1.0" encoding="utf-8"?>
<!-- Generator: Adobe Illustrator 16.0.0, SVG Export Plug-In . SVG Version: 6.00 Build 0)  -->
<!DOCTYPE svg PUBLIC "-//W3C//DTD SVG 1.1//EN" "http://www.w3.org/Graphics/SVG/1.1/DTD/svg11.dtd">
<svg version="1.1" id="Layer_1" xmlns="http://www.w3.org/2000/svg" xmlns:xlink="http://www.w3.org/1999/xlink" x="0px" y="0px"
	 width="60px" height="50px" viewBox="0 0 60 50" enable-background="new 0 0 60 50" xml:space="preserve">
<g>
	<path fill="#414042" d="M30,41.753c-0.135,0-0.262-0.033-0.373-0.092l-14.452-7.236c-0.271-0.135-0.441-0.412-0.441-0.715V11.257
		c0-0.277,0.144-0.535,0.38-0.681c0.234-0.146,0.529-0.158,0.778-0.035L30,17.605l14.108-7.064c0.249-0.123,0.544-0.11,0.778,0.035
		c0.236,0.146,0.38,0.403,0.38,0.681V33.71c0,0.303-0.171,0.58-0.441,0.715l-14.452,7.236C30.262,41.72,30.135,41.753,30,41.753z
		 M30.8,18.994v20.663l12.867-6.441V12.552L30.8,18.994z M16.333,33.216L29.2,39.657V18.994l-12.867-6.442V33.216z M29.999,15.713
		c-0.124,0-0.248-0.028-0.361-0.086L18.063,9.761c-0.395-0.2-0.552-0.682-0.353-1.075c0.2-0.393,0.683-0.551,1.075-0.353
		l11.213,5.684l11.212-5.684c0.393-0.199,0.875-0.041,1.075,0.353c0.199,0.394,0.042,0.875-0.353,1.075L30.36,15.627
		C30.247,15.685,30.123,15.713,29.999,15.713z"/>
</g>
</svg>
