<?xml version="1.0" encoding="utf-8"?>
<!-- Generator: Adobe Illustrator 16.0.0, SVG Export Plug-In . SVG Version: 6.00 Build 0)  -->
<!DOCTYPE svg PUBLIC "-//W3C//DTD SVG 1.1//EN" "http://www.w3.org/Graphics/SVG/1.1/DTD/svg11.dtd">
<svg version="1.1" id="Layer_1" xmlns="http://www.w3.org/2000/svg" xmlns:xlink="http://www.w3.org/1999/xlink" x="0px" y="0px"
	 width="50px" height="50px" viewBox="0 0 50 50" enable-background="new 0 0 50 50" xml:space="preserve">
<path fill="#414042" d="M16.915,38.773h-4.83c-0.441,0-0.8-0.357-0.8-0.799v-3.104H7.069c-0.441,0-0.8-0.357-0.8-0.799V16.611
	c0-0.442,0.358-0.8,0.8-0.8h4.216v-3.103c0-0.442,0.358-0.8,0.8-0.8h4.83c0.441,0,0.8,0.358,0.8,0.8v25.267
	C17.715,38.416,17.356,38.773,16.915,38.773z M12.885,37.174h3.23V13.508h-3.23V37.174z M7.869,33.271h3.23V17.411h-3.23V33.271z"/>
<path fill="#414042" d="M32.606,26.141H17.659c-0.441,0-0.8-0.357-0.8-0.799s0.358-0.8,0.8-0.8h14.947c0.441,0,0.8,0.358,0.8,0.8
	S33.048,26.141,32.606,26.141z"/>
<path fill="#414042" d="M37.855,38.773h-4.83c-0.441,0-0.8-0.357-0.8-0.799V12.708c0-0.442,0.358-0.8,0.8-0.8h4.83
	c0.441,0,0.8,0.358,0.8,0.8v3.102h4.217c0.441,0,0.8,0.358,0.8,0.8v7.936h1.782c0.441,0,0.8,0.358,0.8,0.8s-0.358,0.799-0.8,0.799
	h-1.782v7.931c0,0.442-0.358,0.8-0.8,0.8h-4.217v3.1C38.655,38.416,38.297,38.773,37.855,38.773z M33.825,37.174h3.23V13.508h-3.23
	V37.174z M38.842,33.275h3.23V17.41h-3.23V33.275z M6.354,26.141H4.486c-0.441,0-0.8-0.357-0.8-0.799s0.358-0.8,0.8-0.8h1.867
	c0.441,0,0.8,0.358,0.8,0.8S6.795,26.141,6.354,26.141z"/>
</svg>
