<?xml version="1.0" encoding="utf-8"?>
<!-- Generator: Adobe Illustrator 16.0.0, SVG Export Plug-In . SVG Version: 6.00 Build 0)  -->
<!DOCTYPE svg PUBLIC "-//W3C//DTD SVG 1.1//EN" "http://www.w3.org/Graphics/SVG/1.1/DTD/svg11.dtd">
<svg version="1.1" id="Layer_1" xmlns="http://www.w3.org/2000/svg" xmlns:xlink="http://www.w3.org/1999/xlink" x="0px" y="0px"
	 width="50px" height="50px" viewBox="0 0 50 50" enable-background="new 0 0 50 50" xml:space="preserve">
<g>
	<path fill="#414042" d="M42.537,36.666c-2.504,0-3.785-1.223-4.918-2.301c-1.047-0.998-1.951-1.861-3.814-1.861
		s-2.768,0.863-3.814,1.861c-1.131,1.078-2.414,2.301-4.916,2.301c-2.503,0-3.785-1.223-4.917-2.301
		c-1.047-0.998-1.951-1.861-3.813-1.861c-1.863,0-2.768,0.863-3.814,1.861c-1.132,1.078-2.414,2.301-4.917,2.301
		c-0.441,0-0.8-0.357-0.8-0.799s0.358-0.801,0.8-0.801c1.862,0,2.767-0.861,3.813-1.859c1.132-1.08,2.414-2.303,4.918-2.303
		c2.503,0,3.785,1.223,4.917,2.303c1.047,0.998,1.951,1.859,3.813,1.859c1.861,0,2.766-0.861,3.812-1.859
		c1.133-1.08,2.414-2.303,4.918-2.303s3.787,1.223,4.918,2.303c1.047,0.998,1.951,1.859,3.814,1.859
		c0.441,0,0.799,0.359,0.799,0.801S42.979,36.666,42.537,36.666z M42.387,28c-2.502,0-3.785-1.223-4.916-2.303
		c-1.047-0.998-1.951-1.86-3.814-1.86c-1.861,0-2.766,0.862-3.812,1.86C28.711,26.777,27.43,28,24.926,28
		c-2.503,0-3.785-1.223-4.917-2.303c-1.047-0.998-1.951-1.86-3.814-1.86c-1.861,0-2.766,0.862-3.812,1.86
		C11.25,26.777,9.968,28,7.464,28c-0.441,0-0.8-0.359-0.8-0.801s0.358-0.799,0.8-0.799c1.863,0,2.768-0.863,3.814-1.861
		c1.132-1.079,2.414-2.302,4.916-2.302c2.504,0,3.786,1.223,4.918,2.302c1.047,0.998,1.951,1.861,3.813,1.861
		c1.863,0,2.768-0.863,3.814-1.861c1.131-1.079,2.414-2.302,4.916-2.302c2.504,0,3.785,1.223,4.918,2.302
		c1.047,0.998,1.951,1.861,3.812,1.861c0.441,0,0.801,0.357,0.801,0.799S42.828,28,42.387,28z"/>
	<path fill="#414042" d="M42.463,19.096c-2.504,0-3.785-1.223-4.918-2.302c-1.047-0.998-1.951-1.86-3.814-1.86
		s-2.768,0.862-3.814,1.86c-1.131,1.079-2.414,2.302-4.916,2.302c-2.503,0-3.785-1.223-4.917-2.302
		c-1.047-0.998-1.951-1.86-3.813-1.86c-1.863,0-2.768,0.862-3.814,1.86c-1.132,1.079-2.414,2.302-4.917,2.302
		c-0.441,0-0.8-0.357-0.8-0.8c0-0.441,0.358-0.8,0.8-0.8c1.862,0,2.767-0.862,3.813-1.859c1.132-1.08,2.414-2.303,4.918-2.303
		c2.503,0,3.785,1.223,4.917,2.302c1.047,0.998,1.951,1.86,3.813,1.86c1.861,0,2.766-0.862,3.812-1.859
		c1.133-1.08,2.414-2.303,4.918-2.303s3.787,1.223,4.918,2.303c1.047,0.997,1.951,1.859,3.814,1.859c0.441,0,0.799,0.358,0.799,0.8
		C43.262,18.738,42.904,19.096,42.463,19.096z"/>
</g>
</svg>
