<?xml version="1.0" encoding="utf-8"?>
<!-- Generator: Adobe Illustrator 16.0.0, SVG Export Plug-In . SVG Version: 6.00 Build 0)  -->
<!DOCTYPE svg PUBLIC "-//W3C//DTD SVG 1.1//EN" "http://www.w3.org/Graphics/SVG/1.1/DTD/svg11.dtd">
<svg version="1.1" id="Layer_1" xmlns="http://www.w3.org/2000/svg" xmlns:xlink="http://www.w3.org/1999/xlink" x="0px" y="0px"
	 width="50px" height="50px" viewBox="0 0 50 50" enable-background="new 0 0 50 50" xml:space="preserve">
<g>
	<path fill="#414042" d="M38.421,41.011c-4.388,0-7.958-3.57-7.958-7.959c0-2.863,1.521-5.381,3.8-6.781l-0.727-2.753
		c-6.06,3.493-7.745,9.673-7.763,9.737c-0.092,0.352-0.41,0.598-0.773,0.598h-1.772c-0.014-0.002-0.023,0-0.034,0h-3.697
		c-0.402,4.014-3.8,7.158-7.918,7.158c-4.388,0-7.958-3.57-7.958-7.959c0-4.387,3.57-7.956,7.958-7.956
		c1.244,0,2.422,0.286,3.472,0.798c0.823-0.865,1.69-1.594,2.583-2.206l-2.97-5.94h-1.296c-0.441,0-0.8-0.358-0.8-0.8
		s0.358-0.8,0.8-0.8h1.772c0.013-0.001,0.023-0.001,0.034,0h3.562c0.441,0,0.8,0.358,0.8,0.8s-0.358,0.8-0.8,0.8h-2.285l2.551,5.101
		c5.388-2.947,11.326-2.173,13.933-1.609l-1.55-5.877c-0.018-0.066-0.026-0.135-0.026-0.204c0-1.428,1.161-2.589,2.589-2.589
		c0.546,0,0.99-0.444,0.99-0.99c0-0.545-0.444-0.989-0.99-0.989h-3.579c-0.441,0-0.8-0.358-0.8-0.8s0.358-0.8,0.8-0.8h3.579
		c1.428,0,2.59,1.161,2.59,2.589s-1.162,2.59-2.59,2.59c-0.516,0-0.94,0.396-0.985,0.9l2.769,10.495
		c0.841-0.303,1.747-0.468,2.69-0.468c4.389,0,7.959,3.569,7.959,7.956C46.38,37.44,42.81,41.011,38.421,41.011z M34.693,27.905
		c-1.593,1.156-2.631,3.033-2.631,5.146c0,3.506,2.853,6.359,6.358,6.359c3.507,0,6.359-2.854,6.359-6.359s-2.853-6.357-6.359-6.357
		c-0.804,0-1.572,0.15-2.28,0.424l1.25,4.738l1.288,0.438c0.418,0.143,0.642,0.598,0.5,1.016s-0.592,0.641-1.016,0.5l-1.694-0.576
		c-0.254-0.086-0.447-0.295-0.516-0.553L34.693,27.905z M11.578,26.694c-3.506,0-6.358,2.852-6.358,6.357s2.853,6.359,6.358,6.359
		c3.235,0,5.913-2.43,6.309-5.559h-6.309c-0.264,0-0.511-0.131-0.66-0.348c-0.149-0.219-0.182-0.496-0.086-0.742
		c0.875-2.248,1.939-4.096,3.126-5.605C13.222,26.858,12.419,26.694,11.578,26.694z M23.704,32.253h0.707
		c0.569-1.668,2.549-6.406,7.499-9.616c-2.646-0.515-7.646-0.958-12.21,1.607L23.704,32.253z M19.496,32.253h2.42l-3.572-7.144
		c-0.655,0.472-1.297,1.017-1.912,1.642C18.12,28.054,19.272,30.019,19.496,32.253z M12.777,32.253h5.109
		c-0.223-1.758-1.165-3.295-2.521-4.305C14.409,29.136,13.533,30.558,12.777,32.253z"/>
</g>
</svg>
