<?xml version="1.0" encoding="utf-8"?>
<!-- Generator: Adobe Illustrator 16.0.0, SVG Export Plug-In . SVG Version: 6.00 Build 0)  -->
<!DOCTYPE svg PUBLIC "-//W3C//DTD SVG 1.1//EN" "http://www.w3.org/Graphics/SVG/1.1/DTD/svg11.dtd">
<svg version="1.1" id="Layer_1" xmlns="http://www.w3.org/2000/svg" xmlns:xlink="http://www.w3.org/1999/xlink" x="0px" y="0px"
	 width="60px" height="50px" viewBox="0 0 60 50" enable-background="new 0 0 60 50" xml:space="preserve">
<g>
	<g>
		<path fill="none" d="M6.362,14.86c0.228,2.646,1.507,11.289,8.636,18.478c0.066,0.072,4.998,5.264,10.62,3.654
			c0.907-0.281,1.69-0.709,2.386-1.211c-0.226-0.564-0.345-0.949-0.364-1.016c-0.775-2.365-1.21-4.639-1.419-6.777
			c-1.064-0.414-2.102-0.498-3.056-0.215c-1.82,0.543-3.179,2.361-3.824,5.117c-0.087,0.369-0.415,0.617-0.778,0.617
			c-0.061,0-0.122-0.006-0.184-0.02c-0.43-0.102-0.697-0.531-0.597-0.963c0.782-3.338,2.531-5.57,4.925-6.285
			c1.084-0.322,2.229-0.297,3.387,0.027c-0.107-2.493,0.093-4.749,0.416-6.692c-0.289,0.052-0.582,0.088-0.875,0.088
			c-1.217,0-2.438-0.441-3.397-1.334c-0.323-0.301-0.342-0.807-0.041-1.131c0.301-0.323,0.808-0.342,1.131-0.041
			c0.977,0.908,2.347,1.116,3.516,0.672c0.714-3.2,1.673-5.195,1.762-5.377c0.097-0.195,0.269-0.343,0.477-0.409
			c0.206-0.065,0.434-0.044,0.625,0.061c0.023,0.013,0.76,0.403,2.059,0.943c-0.757-2.456-1.634-4.263-2.127-5.174
			C19.116,14.127,9.308,14.806,6.362,14.86z M18.977,19.646c-0.316,1.295-1.117,2.389-2.257,3.079
			c-0.789,0.479-1.675,0.724-2.575,0.724c-0.398,0-0.799-0.048-1.196-0.145c-0.429-0.105-0.691-0.538-0.587-0.968
			c0.105-0.43,0.54-0.691,0.968-0.587c0.878,0.216,1.787,0.076,2.562-0.393c0.772-0.469,1.316-1.211,1.531-2.09
			c0.104-0.43,0.544-0.692,0.967-0.588C18.818,18.784,19.081,19.217,18.977,19.646z"/>
		<path fill="#414042" d="M18.389,18.679c-0.423-0.104-0.862,0.158-0.967,0.588c-0.215,0.879-0.759,1.621-1.531,2.09
			c-0.774,0.469-1.684,0.608-2.562,0.393c-0.428-0.104-0.862,0.157-0.968,0.587c-0.104,0.43,0.158,0.862,0.587,0.968
			c0.397,0.097,0.798,0.145,1.196,0.145c0.9,0,1.786-0.245,2.575-0.724c1.14-0.69,1.94-1.784,2.257-3.079
			C19.081,19.217,18.818,18.784,18.389,18.679z"/>
		<path fill="#414042" d="M25.618,36.992c-5.622,1.609-10.554-3.582-10.62-3.654C7.869,26.148,6.59,17.506,6.362,14.86
			c2.945-0.054,12.754-0.732,23.275-6.986c0.493,0.911,1.37,2.718,2.127,5.174c0.537,0.224,1.175,0.471,1.903,0.732
			c-1.192-4.457-2.939-7.239-3.073-7.447c-0.235-0.366-0.72-0.477-1.092-0.247C17.349,13.578,5.655,13.27,5.542,13.258
			c-0.22-0.004-0.431,0.075-0.586,0.227c-0.156,0.151-0.244,0.361-0.242,0.579c0.003,0.46,0.185,11.36,9.13,20.383
			c0.195,0.209,4.218,4.463,9.516,4.463c0.869,0,1.773-0.113,2.7-0.381c0.006,0,0.103-0.031,0.108-0.033
			c0.95-0.295,1.78-0.721,2.524-1.219c-0.296-0.57-0.522-1.082-0.688-1.496C27.309,36.283,26.525,36.711,25.618,36.992z"/>
		<path fill="#414042" d="M22.707,26.24c-2.394,0.715-4.143,2.947-4.925,6.285c-0.101,0.432,0.167,0.861,0.597,0.963
			c0.062,0.014,0.123,0.02,0.184,0.02c0.363,0,0.691-0.248,0.778-0.617c0.646-2.756,2.004-4.574,3.824-5.117
			c0.954-0.283,1.991-0.199,3.056,0.215c-0.057-0.582-0.103-1.16-0.127-1.721C24.936,25.943,23.791,25.918,22.707,26.24z"/>
		<path fill="#414042" d="M23.327,17.158c-0.323-0.301-0.83-0.282-1.131,0.041c-0.301,0.324-0.282,0.83,0.041,1.131
			c0.96,0.893,2.181,1.334,3.397,1.334c0.293,0,0.586-0.036,0.875-0.088c0.102-0.611,0.212-1.201,0.333-1.746
			C25.674,18.274,24.304,18.066,23.327,17.158z"/>
		<path fill="#414042" d="M55.209,17.131c-0.047-0.434-0.438-0.745-0.865-0.71c-1.413,0.125-2.852,0.188-4.273,0.188
			c-7.057,0-12.824-1.549-16.402-2.83c-0.729-0.262-1.366-0.509-1.903-0.732c-1.299-0.54-2.035-0.931-2.059-0.943
			c-0.191-0.104-0.419-0.126-0.625-0.061c-0.208,0.066-0.38,0.214-0.477,0.409c-0.089,0.182-1.048,2.177-1.762,5.377
			c-0.121,0.545-0.231,1.135-0.333,1.746c-0.323,1.943-0.523,4.199-0.416,6.692c0.024,0.561,0.07,1.139,0.127,1.721
			c0.209,2.139,0.644,4.412,1.419,6.777c0.02,0.066,0.139,0.451,0.364,1.016c0.166,0.414,0.393,0.926,0.688,1.496
			c1.251,2.416,3.728,5.805,8.042,6.609v-0.002c0.023,0.006,0.047,0.012,0.07,0.016c0.017,0.002,0.036,0.006,0.058,0.008
			c0.515,0.084,1.039,0.127,1.557,0.127c0.001,0,0,0,0.001,0c5.911,0,9.916-5.373,10.068-5.582
			C56.344,28.436,55.26,17.588,55.209,17.131z M47.213,37.488c-0.036,0.049-3.684,4.947-8.794,4.947
			c-0.435,0-0.879-0.037-1.31-0.105c-0.004-0.002-0.019-0.004-0.037-0.006c-0.015-0.004-0.029-0.008-0.045-0.01
			c-3.785-0.707-5.974-3.914-7.04-6.055c-0.341-0.682-0.571-1.258-0.696-1.605c-0.079-0.217-0.12-0.35-0.124-0.363
			c-0.603-1.84-0.988-3.629-1.215-5.34c-0.09-0.682-0.148-1.346-0.19-2c-0.199-3.083,0.088-5.845,0.525-8.069
			c0.153-0.779,0.324-1.492,0.498-2.132c0.342-1.262,0.693-2.235,0.937-2.848c0.571,0.272,1.446,0.663,2.579,1.097
			c0.542,0.208,1.149,0.425,1.809,0.646c3.722,1.243,9.246,2.564,15.961,2.564c1.194,0,2.399-0.043,3.593-0.129
			C53.747,20.697,53.5,29.471,47.213,37.488z"/>
	</g>
	<path fill="#414042" d="M38.961,38.588c-0.379,0-0.757-0.033-1.132-0.098c-2.843-0.5-5.154-2.84-6.508-6.586
		c-0.15-0.416,0.064-0.875,0.48-1.023c0.415-0.156,0.874,0.064,1.023,0.48c1.151,3.184,3.026,5.156,5.281,5.553
		c2.246,0.395,4.688-0.818,6.857-3.42c0.283-0.34,0.787-0.387,1.126-0.102c0.34,0.281,0.386,0.787,0.103,1.125
		C43.979,37.176,41.449,38.588,38.961,38.588z M43.162,26.428c-0.184,0-0.368-0.062-0.519-0.191
		c-0.337-0.285-0.377-0.792-0.091-1.127c1.646-1.932,4.559-2.168,6.494-0.523c0.337,0.286,0.378,0.791,0.092,1.127
		c-0.286,0.338-0.791,0.377-1.127,0.092c-1.266-1.074-3.167-0.918-4.24,0.342C43.613,26.332,43.388,26.428,43.162,26.428z
		 M36.911,25.328c-0.324,0-0.63-0.198-0.75-0.521c-0.28-0.753-0.836-1.352-1.566-1.685c-0.729-0.332-1.545-0.362-2.3-0.082
		c-0.412,0.154-0.875-0.056-1.029-0.471c-0.154-0.414,0.057-0.875,0.471-1.029c1.152-0.431,2.405-0.386,3.524,0.127
		c1.118,0.511,1.971,1.428,2.4,2.581c0.154,0.414-0.057,0.875-0.471,1.029C37.099,25.312,37.004,25.328,36.911,25.328z"/>
</g>
</svg>
