<?xml version="1.0" encoding="utf-8"?>
<!-- Generator: Adobe Illustrator 15.0.0, SVG Export Plug-In  -->
<!DOCTYPE svg PUBLIC "-//W3C//DTD SVG 1.1//EN" "http://www.w3.org/Graphics/SVG/1.1/DTD/svg11.dtd" [
	<!ENTITY ns_flows "http://ns.adobe.com/Flows/1.0/">
]>
<svg version="1.1"
	 xmlns="http://www.w3.org/2000/svg" xmlns:xlink="http://www.w3.org/1999/xlink" xmlns:a="http://ns.adobe.com/AdobeSVGViewerExtensions/3.0/"
	 x="0px" y="0px" width="595px" height="842px" viewBox="-216.144 -406.462 595 842"
	 overflow="visible" enable-background="new -216.144 -406.462 595 842" xml:space="preserve">
<defs>
</defs>
<path fill="#3D3D3B" d="M34.611,10.832c2.731,0,4.952,2.238,4.952,4.985v12.642l1.888,0.001V15.788c0-3.773-3.082-6.842-6.871-6.842
	c-2.184,0-4.25,1.07-5.536,2.856l-0.349,0.484l-0.346-0.482c-1.293-1.788-3.374-2.858-5.566-2.858c-3.486,0-4.954,2.606-4.954,2.606
	V8.946h-1.887v19.513l1.917,0.001V15.788c0-2.734,2.225-4.956,4.955-4.956c2.732,0,4.955,2.238,4.955,4.985v12.642l1.887,0.001
	V15.788C29.656,13.054,31.876,10.832,34.611,10.832"/>
<path fill="#3D3D3B" d="M53.967,27.066c-4.467,0-8.1-3.65-8.1-8.132c0-4.468,3.633-8.103,8.1-8.103c4.459,0,8.092,3.641,8.098,8.116
	C62.059,23.425,58.426,27.066,53.967,27.066 M62.064,24.906v3.554h1.889V8.946h-1.889v4.045l-0.74-0.809
	c-1.889-2.056-4.569-3.236-7.357-3.236c-5.508,0-9.986,4.494-9.986,10.018c0,5.508,4.479,9.987,9.986,9.987
	c2.788,0,5.469-1.179,7.357-3.235L62.064,24.906z"/>
<path fill="#3D3D3B" d="M90.957,10.832c3.596,0,6.528,2.942,6.528,6.56v11.067l1.884,0.001V17.359c0-4.637-3.787-8.413-8.443-8.413
	c-2.121,0-4.235,0.857-5.81,2.349l-0.719,0.687V0h-1.886v28.459l1.916,0.001V17.359C84.428,13.762,87.357,10.832,90.957,10.832"/>
<path fill="#3D3D3B" d="M112.109,27.089c-4.467,0-8.101-3.648-8.101-8.133c0-4.467,3.649-8.099,8.13-8.099
	c4.152,0,7.693,3.247,8.07,7.391l0.001,0.708C120.21,23.44,116.574,27.089,112.109,27.089 M112.109,8.969
	c-2.775,0-5.457,1.188-7.358,3.257l-0.742,0.809V0.024h-1.886v28.459h1.918v-3.555l0.74,0.809c1.89,2.056,4.571,3.235,7.357,3.235
	c5.508,0,9.988-4.493,9.988-10.017C122.127,13.447,117.634,8.969,112.109,8.969"/>
<path fill="#3D3D3B" d="M134.477,27.089c-4.467,0-8.103-3.648-8.103-8.133c0-4.467,3.636-8.099,8.103-8.099
	c4.46,0,8.09,3.637,8.101,8.113C142.566,23.448,138.937,27.089,134.477,27.089 M134.477,8.969c-5.507,0-9.986,4.495-9.986,10.017
	c0,5.508,4.479,9.987,9.986,9.987c5.508,0,9.984-4.493,9.984-10.017C144.461,13.447,139.984,8.969,134.477,8.969"/>
<polygon fill="#3D3D3B" points="151.697,14.812 146.938,8.961 144.475,8.961 150.463,16.329 "/>
<polygon fill="#3D3D3B" points="159.55,8.962 154.77,14.803 154.674,14.941 151.764,18.502 143.677,28.46 146.14,28.46 
	153.258,19.739 160.348,28.46 162.811,28.46 154.489,18.216 162.009,8.962 "/>
<path fill="#3D3D3B" d="M73.074,17.588c-2.193-0.396-4.199-1.69-4.199-3.345c0-1.879,1.975-3.411,4.212-3.411
	c2.238,0,4.211,1.386,4.173,3.399h2.111c0-2.919-2.818-5.286-6.297-5.286c-3.479,0-6.298,2.367-6.298,5.286
	c0,3.685,3.746,4.831,6.263,5.241c2.716,0.448,4.722,1.524,4.722,3.83c0,2.098-2.195,3.762-4.687,3.762
	c-2.492,0-4.468-1.623-4.468-3.793H66.5c0,3.134,2.842,5.681,6.574,5.681c3.729,0,6.752-2.547,6.752-5.681
	C79.826,18.949,75.662,18.054,73.074,17.588"/>
<path fill="#3D3D3B" d="M6.574,17.588c-2.192-0.396-4.199-1.69-4.199-3.345c0-1.879,1.979-3.411,4.216-3.411
	c2.239,0,4.207,1.386,4.172,3.399h2.112c0-2.919-2.819-5.286-6.301-5.286c-3.479,0-6.297,2.367-6.297,5.286
	c0,3.685,3.748,4.831,6.263,5.241c2.718,0.448,4.723,1.524,4.723,3.83c0,2.098-2.196,3.762-4.688,3.762
	c-2.488,0-4.464-1.623-4.464-3.793H0c0,3.134,2.844,5.681,6.574,5.681c3.732,0,6.756-2.547,6.756-5.681
	C13.33,18.949,9.165,18.054,6.574,17.588"/>
</svg>
