<?xml version="1.0" encoding="utf-8"?>
<!-- Generator: Adobe Illustrator 15.0.0, SVG Export Plug-In  -->
<!DOCTYPE svg PUBLIC "-//W3C//DTD SVG 1.1//EN" "http://www.w3.org/Graphics/SVG/1.1/DTD/svg11.dtd" [
	<!ENTITY ns_flows "http://ns.adobe.com/Flows/1.0/">
]>
<svg version="1.1"
	 xmlns="http://www.w3.org/2000/svg" xmlns:xlink="http://www.w3.org/1999/xlink" xmlns:a="http://ns.adobe.com/AdobeSVGViewerExtensions/3.0/"
	 x="0px" y="0px" width="595px" height="842px" viewBox="-228.014 -376.451 595 842"
	 overflow="visible" enable-background="new -228.014 -376.451 595 842" xml:space="preserve">
<defs>
</defs>
<path fill-rule="evenodd" clip-rule="evenodd" fill="#3D3D3B" d="M34.514,56.852c1.507,3.29,3.438,4.148,6.386,2.822
	c6.11-2.749,11.055-7.078,15.697-11.788c0.571-0.58,0.972-1.354,1.361-2.087c0.906-1.699,1.438-3.282-1.223-3.959
	c-0.567-0.145-1.01-0.787-1.509-1.198c0.041-0.292,0.082-0.582,0.124-0.874c1.124,0.071,2.334-0.096,3.351,0.27
	c1.637,0.59,2.393,0.171,2.944-1.428c1.627-4.715,3.304-9.416,5.118-14.061c0.34-0.866,1.408-1.447,2.142-2.161
	c0.056,0.974,0.401,2.044,0.118,2.906c-1.532,4.656-3.113,9.306-4.91,13.865c-0.755,1.913-0.172,2.37,1.569,2.504
	c7.391,0.572,14.466-0.475,21.085-3.969c1.326-0.701,2.613-1.484,3.976-2.104c3.623-1.65,6.261-0.155,6.713,3.813
	c0.13,1.14,0.021,2.308,0.021,3.915c0.965-0.427,1.756-0.718,2.492-1.112c2.935-1.567,5.849-3.173,8.774-4.754
	c2.758-1.49,3.598-1.034,4.149,2.095c0.501,2.85,1.099,5.681,1.711,8.814c8.441-5.126,15.609-11.595,24.032-16.066
	c0.213,0.269,0.427,0.537,0.64,0.806c-0.491,0.528-0.916,1.145-1.485,1.568c-6.498,4.829-13.071,9.558-19.506,14.468
	c-3.016,2.303-2.978,3.142-0.594,6.047c2.219,2.704,4.8,4.642,8.602,4.101c0.693-0.099,1.441,0.174,2.132,0.627
	c-2.997,2.084-6.118,1.444-8.795-0.099c-2.65-1.53-4.854-3.836-7.509-6.008c-4.651,3.18-9.64,6.635-14.689,9.994
	c-0.666,0.442-1.649,0.406-2.486,0.592c0.428-0.697,0.703-1.592,1.308-2.062c4.87-3.786,9.815-7.473,14.691-11.249
	c0.523-0.405,1.136-1.239,1.058-1.78c-0.366-2.541-0.872-5.072-1.51-7.562c-0.338-1.319-1.278-1.883-2.699-1.146
	c-2.797,1.452-5.831,2.556-8.367,4.366c-1.852,1.323-3.439,3.354-4.479,5.406c-2.383,4.705-5.712,8.416-10.264,10.959
	c-2.6,1.451-5.429,1.73-8.034-0.144c-2.413-1.737-3.707-5.288-2.52-8.3c1.048-2.652,2.796-5.035,4.287-7.505
	c0.369-0.61,0.941-1.099,1.7-1.962c-5.794,0-11.142-0.03-16.489,0.052c-0.479,0.007-1.225,0.657-1.377,1.153
	c-1.14,3.74-2.314,7.481-3.135,11.298c-0.265,1.233,0.241,2.821,0.854,4.01c1.185,2.297,3.28,2.504,5.14,0.736
	c0.482-0.459,0.812-1.167,1.369-1.433c0.545-0.262,1.289-0.104,1.944-0.13c-0.029,0.597,0.15,1.324-0.127,1.766
	c-1.345,2.142-5.202,3.459-7.591,2.711c-2.57-0.804-4.477-3.411-4.445-6.289c0.013-1.242,0.242-2.49,0.473-3.718
	c0.203-1.09,0.543-2.155,0.399-3.461c-2.622,2.226-5.151,4.578-7.898,6.639c-2.444,1.834-4.932,3.925-7.748,4.88
	c-5.474,1.856-9.694-1.353-10.652-7.935c-0.979-6.725,1.45-12.558,6.099-17.301c3.1-3.162,8.075-2.292,8.632,1.326
	c0.355,2.32,0.153,4.869-0.424,7.159c-1.036,4.104-3.684,7.228-7.18,9.61C36.8,55.277,35.646,56.073,34.514,56.852 M93.828,37.161
	c-2.138,1.215-3.992,2.311-5.884,3.335c-4.317,2.339-7.535,5.783-9.729,10.096c-0.835,1.646-1.362,3.626-1.391,5.463
	c-0.053,3.487,2.623,5.055,5.829,3.658c5.386-2.346,9.134-6.426,11.325-11.74C95.35,44.653,95.568,41.046,93.828,37.161
	 M33.397,54.34c6.611-2.35,10.688-8.061,10.264-14.207c-0.08-1.148-0.521-2.947-1.246-3.212c-1.001-0.364-2.454,0.369-3.663,0.783
	c-0.503,0.172-0.933,0.684-1.296,1.124C33.789,43.286,32.995,48.484,33.397,54.34"/>
<path fill-rule="evenodd" clip-rule="evenodd" fill="#3D3D3B" d="M0,63.927c2.918-7.228,5.476-13.985,8.361-20.599
	c3.123-7.161,5.508-14.452,5.905-22.325c0.051-1.001,0.93-1.96,1.424-2.938c0.913,0.598,1.986,1.046,2.713,1.819
	c4.338,4.62,8.021,9.806,9.166,16.083c2.145,11.742-0.928,17.941-11.161,23.71c-4.081,2.302-8.723,3.654-13.202,5.165
	C2.297,65.15,0.973,64.23,0,63.927 M3.872,61.428c0.665,0.072,0.99,0.177,1.295,0.132c7.068-1.032,12.262-5.382,17.22-9.999
	c1.133-1.055,1.831-2.82,2.222-4.387c2.236-8.94-1.779-16.282-6.019-23.813C13.627,36.198,8.809,48.656,3.872,61.428"/>
<path fill-rule="evenodd" clip-rule="evenodd" fill="#3D3D3B" d="M102.916,81.203v8.871c-1.52-1.662-1.858-8.656-0.798-12.747
	c2.721,3.292,5.184,6.271,8.135,9.841v-9.344c1.682,1.111,2.066,9.071,0.8,12.463c-2.562-3.184-4.976-6.182-7.388-9.18
	C103.415,81.139,103.165,81.171,102.916,81.203"/>
<path fill-rule="evenodd" clip-rule="evenodd" fill="#3D3D3B" d="M62.736,12.432V0.123c0.273-0.017,0.546-0.032,0.819-0.049
	c0.066,1.282,0.219,2.568,0.171,3.845c-0.049,1.309,0.487,1.825,1.751,1.798c1.662-0.033,3.325-0.008,5.198-0.008
	C70.87,3.726,71.053,1.864,71.234,0c0.313,0.031,0.627,0.062,0.941,0.092v12.473c-0.289,0.037-0.575,0.072-0.863,0.109
	c-0.126-0.855-0.305-1.707-0.364-2.566c-0.063-0.897-0.014-1.802-0.014-3.043c-2.145,0-4.052-0.134-5.914,0.09
	c-0.492,0.059-1.07,1.174-1.222,1.887c-0.246,1.166-0.175,2.401-0.236,3.605C63.286,12.576,63.012,12.504,62.736,12.432"/>
<path fill-rule="evenodd" clip-rule="evenodd" fill="#3D3D3B" d="M86.203,6.7c-1.712,0.343-3.559,0.418-5.057,1.179
	c-0.491,0.249-0.078,2.279-0.078,3.583c2.246,0.106,4.183,0.196,6.119,0.288c0.005,0.333,0.01,0.667,0.013,1
	c-2.252,0-4.505,0.036-6.753-0.055c-0.23-0.009-0.52-0.754-0.619-1.195c-0.108-0.476-0.024-0.994-0.024-1.495V0.164h7.725
	c-1.068,2.179-2.85,1.244-4.148,1.306c-1.582,0.074-2.502,0.314-2.473,2.206c0.024,1.529,0.543,2.107,2.039,2.079
	c1.128-0.022,2.259,0.162,3.389,0.255C86.29,6.24,86.247,6.47,86.203,6.7"/>
<path fill-rule="evenodd" clip-rule="evenodd" fill="#3D3D3B" d="M35.142,78.193c-1.137,1.292-2.111,2.799-3.453,3.823
	c-1.602,1.223-1.212,1.977-0.019,3.114c1.407,1.342,2.651,2.852,3.968,4.291c-0.211,0.23-0.419,0.463-0.629,0.695
	c-0.982-0.842-1.973-1.675-2.947-2.527c-0.99-0.866-1.964-1.75-3.226-2.877c-0.135,1.707-0.263,3.316-0.407,5.141
	c-1.438-1.611-1.563-10.027-0.064-12.359c0.177,1.897,0.313,3.348,0.511,5.471c1.382-1.352,2.304-2.352,3.33-3.231
	c0.85-0.726,1.821-1.312,2.738-1.958C35.01,77.916,35.076,78.054,35.142,78.193"/>
<path fill-rule="evenodd" clip-rule="evenodd" fill="#3D3D3B" d="M81.75,89.715c-0.128-1.675-0.257-3.349-0.399-5.207h-6.685
	c-0.123,1.689-0.25,3.432-0.376,5.172l-0.68-0.041v-11.57c1.434,1.891-0.485,5.43,4.433,5.447c4.96,0.017,2.768-3.744,4.487-5.447
	V89.66C82.271,89.679,82.011,89.696,81.75,89.715"/>
<path fill-rule="evenodd" clip-rule="evenodd" fill="#3D3D3B" d="M88.86,78.021h7.338c0.017,0.209,0.036,0.417,0.053,0.625
	c-1.2,0.062-2.407,0.241-3.596,0.16c-1.667-0.114-2.437,0.361-2.418,2.199c0.017,1.706,0.488,2.508,2.299,2.277
	c0.89-0.113,1.808-0.021,2.715-0.021c0.021,0.272,0.042,0.546,0.063,0.819c-1.525,0.129-3.051,0.257-4.576,0.385
	c-1.188,3.73-0.801,4.322,2.84,4.343c0.872,0.005,1.744,0.001,2.616,0.001c0.009,0.297,0.018,0.595,0.027,0.893
	c-2.291,0-4.583,0.023-6.872-0.047c-0.174-0.006-0.465-0.673-0.467-1.035C88.847,85.138,88.86,81.652,88.86,78.021"/>
<path fill-rule="evenodd" clip-rule="evenodd" fill="#3D3D3B" d="M67.786,87.921c-1.209,2.101-3.041,2.681-5.151,2.29
	c-2.967-0.549-5.125-3.455-5.059-6.553c0.06-2.809,1.979-5.24,4.594-5.822c2.762-0.614,4.696,0.073,5.821,2.516
	c-3.282-1.686-6.48-2.606-8.255,1.111c-0.663,1.391-0.56,3.711,0.17,5.094C61.716,89.992,64.805,88.994,67.786,87.921"/>
<path fill-rule="evenodd" clip-rule="evenodd" fill="#3D3D3B" d="M48.888,0.155h7.637c0.074,0.179,0.149,0.359,0.224,0.539
	c-0.5,0.276-1.01,0.802-1.499,0.785c-1.729-0.061-2.098,0.789-2.037,2.316c0.094,2.325,0.039,4.656,0.01,6.985
	c-0.008,0.588-0.164,1.172-0.252,1.759c-0.299-0.001-0.599-0.002-0.898-0.002c0-1.473,0-2.943,0.001-4.417
	c0.001-1.497-0.06-2.998,0.021-4.49c0.08-1.445-0.365-2.194-1.949-2.139c-0.516,0.018-1.045-0.43-1.567-0.663
	C48.68,0.603,48.783,0.379,48.888,0.155"/>
<path fill-rule="evenodd" clip-rule="evenodd" fill="#3D3D3B" d="M46.372,78.033h7.47c-0.054,0.268-0.086,0.545-0.111,0.545
	c-2.744-0.066-3.13,1.524-2.955,3.831c0.184,2.412,0.041,4.851,0.041,7.277c-0.368,0.007-0.737,0.012-1.105,0.019V79.094
	c-1.486-0.207-2.441-0.338-3.392-0.469L46.372,78.033z"/>
<path fill-rule="evenodd" clip-rule="evenodd" fill="#3D3D3B" d="M40.845,90.018V77.936C42.301,79.255,42.369,88.046,40.845,90.018"
	/>
</svg>
