<?xml version="1.0" encoding="utf-8"?>
<!-- Generator: Adobe Illustrator 15.0.0, SVG Export Plug-In  -->
<!DOCTYPE svg PUBLIC "-//W3C//DTD SVG 1.1//EN" "http://www.w3.org/Graphics/SVG/1.1/DTD/svg11.dtd" [
	<!ENTITY ns_flows "http://ns.adobe.com/Flows/1.0/">
]>
<svg version="1.1"
	 xmlns="http://www.w3.org/2000/svg" xmlns:xlink="http://www.w3.org/1999/xlink" xmlns:a="http://ns.adobe.com/AdobeSVGViewerExtensions/3.0/"
	 x="0px" y="0px" width="595px" height="842px" viewBox="-222.454 -409.002 595 842"
	 overflow="visible" enable-background="new -222.454 -409.002 595 842" xml:space="preserve">
<defs>
</defs>
<path fill="#3D3D3B" d="M1.15,6.376c1.233-0.3,1.509-0.06,1.733,0.946c0.222,1.003,2.265,10.73,2.376,11.285
	c0.109,0.56,0.22,1.379,0.581,1.379c0.35,0,0.576-0.711,0.77-1.379C6.811,17.938,9.513,8.687,9.763,7.8
	c0.253-0.895,0.413-1.363,1.533-1.391c1.12-0.029,1.295,0.443,1.46,0.913c0.17,0.478,2.612,10.812,2.747,11.285
	c0.141,0.475,0.294,1.23,0.639,1.23c0.351,0,0.563-0.675,0.676-1.23c0.108-0.555,2.687-10.867,2.87-11.462
	c0.26-0.875,0.807-1.003,1.641-0.752c0.843,0.25,1.248,0.512,0.939,1.601c-0.307,1.085-4.504,15.663-4.701,16.36
	c-0.197,0.694-0.475,1.335-1.482,1.308c-1.008-0.027-1.282-0.46-1.536-1.376c-0.252-0.92-2.664-10.218-2.802-10.805
	c-0.137-0.584-0.338-1.146-0.622-1.146c-0.275,0-0.509,0.723-0.673,1.166c-0.17,0.448-3.23,10.676-3.425,11.125
	c-0.196,0.443-0.243,1.008-1.451,1.008c-1.089,0-1.212-0.613-1.405-1.365c-0.183-0.708-3.93-15.697-4.09-16.362
	C-0.123,7.006,0,6.658,1.15,6.376 M32.803,9.524c1.163-0.837,2.704-0.946,3.118-0.946c1.457,0,3.528,0.716,3.528,2.845
	c0,1.53-0.895,1.587-1.061,1.587c-0.173,0-5.731,0.026-6.376,0.026c-0.157,0-0.693,0-0.836-0.415
	C30.894,11.82,31.882,10.183,32.803,9.524 M36.054,6.011c-2.597,0-3.648,0.411-5.452,1.855c-1.774,1.422-2.807,4.514-2.807,7.872
	c0,3.25,0.573,5.3,1.945,7.302c1.374,2.009,3.921,2.79,6.016,2.79c2.097,0,3.815-0.715,4.541-1.023
	c0.728-0.306,1.404-0.629,1.589-1.088c0.134-0.338,0.366-2.209-0.393-2.209c-0.593,0-2.272,1.702-5.388,1.702
	c-5.342,0-5.426-5.547-5.46-6.55c-0.026-1.003,0.719-1.035,1.194-1.035h8.168c0.724,0,1.054-0.131,1.368-0.481
	c0.291-0.32,0.958-1.968,0.843-3.669C41.933,6.946,38.438,6.011,36.054,6.011 M55.761,5.963c-3.948,0-6.015,2.698-6.015,5.485
	c0,2.731,2.299,4.278,4.476,5.267c2.218,1.012,4.307,1.904,4.307,3.791c0,1.262-0.951,2.891-3.217,2.891
	c-1.705,0-3.259-0.633-4.007-0.984c-0.845-0.402-1.305-0.257-1.727,0.675c-0.415,0.923-0.032,1.338,0.474,1.632
	c0.667,0.377,3.272,1.168,5.203,1.168c3.554,0,6.321-2.144,6.321-5.57c0-3.602-3.273-4.694-4.957-5.477
	c-1.674-0.783-3.881-1.584-3.881-3.839c0-2.201,2.195-2.583,3.007-2.583c0.809,0,1.887,0.277,3.005,0.723
	c1.121,0.448,1.401-0.031,1.766-0.787c0.354-0.745,0.01-1.248-0.547-1.502C59.41,6.604,57.912,5.963,55.761,5.963 M71.257,0.415
	c-1.034,0.509-1.089,1.035-1.089,1.62c0,0.587-0.024,2.772-0.024,3.192c0,0.659-0.399,1.043-1.015,1.043h-0.93
	c-0.82,0-1.13,0.553-1.13,1.248c0,0.754,0.288,1.282,0.971,1.282h1.03c0.642,0,1.074,0.337,1.074,1.143v7.108
	c0,4.729,0.619,6.379,1.677,7.472c1.069,1.099,2.659,1.308,3.695,1.308c1.035,0,2.095-0.275,3.076-0.667
	c0.979-0.394,0.813-1.116,0.813-1.646c0-0.615-0.209-1.002-0.647-1.002c-0.612,0-1.056,0.5-2.573,0.5
	c-2.757,0-3.161-2.141-3.161-3.955V9.834c0-0.629,0.392-1.034,1.147-1.034h4.279c0.498,0,0.926-0.139,0.926-1.228
	c0-1.256-0.475-1.302-1.311-1.302h-3.836c-0.893,0-1.206-0.245-1.206-1.425V1.323C73.023-0.534,72.164-0.027,71.257,0.415
	 M97.651,9.418c1.163-0.831,2.535-0.84,2.959-0.84c1.447,0,3.519,0.715,3.519,2.845c0,1.53-0.897,1.587-1.064,1.587
	c-0.168,0-5.728,0.026-6.37,0.026c-0.16,0-0.693,0-0.845-0.415C95.571,11.82,96.733,10.077,97.651,9.418 M100.739,6.011
	c-2.601,0-3.658,0.411-5.457,1.855c-1.778,1.422-2.805,4.514-2.805,7.872c0,3.249,0.574,5.3,1.944,7.302
	c1.37,2.009,3.915,2.79,6.015,2.79c2.102,0,3.812-0.715,4.542-1.023c0.726-0.306,1.402-0.629,1.589-1.088
	c0.135-0.338,0.365-2.209-0.394-2.209c-0.591,0-2.275,1.702-5.384,1.702c-5.348,0-5.432-5.547-5.461-6.55
	c-0.026-1.003,0.717-1.035,1.191-1.035h8.169c0.716,0,1.052-0.131,1.367-0.481c0.288-0.32,0.955-1.968,0.84-3.669
	C106.612,6.946,103.118,6.011,100.739,6.011 M114.874,0.631c-0.75,0-1.826-0.133-1.826,1.059c0,1.258,0.967,1.138,1.497,1.138
	c0.389,0,0.911,0.325,0.911,1.092v20.168c0,0.558,0,1.187,1.344,1.187c1.343,0,1.286-0.543,1.286-1.187V1.607
	c0-0.725-0.427-0.977-1.157-0.977H114.874z M128.389,6.623c-0.998,0-1.196,0.49-1.196,1.104v16.386c0,0.477,0,1.16,1.168,1.16
	c1.084,0,1.291-0.403,1.291-1.16c0-0.749-0.029-3.216-0.029-7.647c0-4.763,2.392-7.862,4.972-7.862c2.649,0,2.976,2.679,2.976,4.519
	v10.991c0,1.232,0.723,1.16,1.258,1.16c0.621,0,1.156,0.003,1.156-1.113v-7.496c0-4.426,2.026-8.077,5.032-8.077
	c2.265,0,2.886,2.215,2.886,4.061v11.456c0,0.781,0.323,1.17,1.303,1.17c0.979,0,1.16-0.336,1.16-1.17v-12.23
	c0-3.519-1.877-5.609-4.677-5.609c-2.694,0-4.25,1.602-4.95,2.629c-0.611,0.93-0.957,0.801-1.338,0.036
	c-0.176-0.366-0.953-2.645-4.195-2.645c-3.547,0-4.459,2.629-5.213,2.773c-0.265,0.048-0.369-0.288-0.387-0.679
	c-0.011-0.206,0-0.464,0-0.676C129.604,7.064,129.381,6.623,128.389,6.623"/>
</svg>
