<?xml version="1.0" encoding="utf-8"?>
<!-- Generator: Adobe Illustrator 15.0.0, SVG Export Plug-In  -->
<!DOCTYPE svg PUBLIC "-//W3C//DTD SVG 1.1//EN" "http://www.w3.org/Graphics/SVG/1.1/DTD/svg11.dtd" [
	<!ENTITY ns_flows "http://ns.adobe.com/Flows/1.0/">
]>
<svg version="1.1"
	 xmlns="http://www.w3.org/2000/svg" xmlns:xlink="http://www.w3.org/1999/xlink" xmlns:a="http://ns.adobe.com/AdobeSVGViewerExtensions/3.0/"
	 x="0px" y="0px" width="595px" height="842px" viewBox="-237.486 -377.651 595 842"
	 overflow="visible" enable-background="new -237.486 -377.651 595 842" xml:space="preserve">
<defs>
</defs>
<path fill="#3D3D3B" d="M75.62,16.3c0.647-0.162,1.213-0.322,1.455-0.566c0.485-0.485,0.648-1.212,1.133-1.455
	c0.566-0.405,1.455-0.567,2.103-0.647c0.728-0.081,1.293-0.081,1.293-0.081c-1.778-1.294-3.314-1.294-4.528-0.89
	c-0.565,0.16-1.455,0.324-1.939,0.486c-0.728,0.242-1.214,0.404-1.537,0.565c-0.891,0-1.861,0.081-2.426,0.243
	c-0.891,0.243-2.346,1.133-3.075,1.374c-1.052,0.405-2.507,1.295-3.558,1.538c-0.89,0.243-0.89,1.455-2.022,2.346
	c-0.97,0.808-1.941,1.132-1.859,1.859c0.161,0.646-0.243,2.264-0.404,2.669c-0.162,0.405,2.103,2.426,2.426,1.94
	c0.323-0.403,1.699-4.367,1.941-4.771c0.243-0.323,2.75-1.375,2.991-1.455c0.243-0.082,1.134-0.486,1.778-1.133
	c0.568-0.647,2.187-0.971,2.994-1.131C72.789,17.11,74.487,16.625,75.62,16.3"/>
<path fill="#3D3D3B" d="M67.937,4.088c0.729-0.241,1.537-1.538,2.103-1.941c0.647-0.485,1.698-0.647,2.509-0.727
	c0.808-0.082,1.454-0.082,1.454-0.082c-2.104-1.537-3.963-1.537-5.337-1.052c-0.729,0.243-1.538,0.972-2.184,1.052
	c-0.404,0.082-1.295-0.08-2.185-0.242c-1.052-0.162-2.021-0.324-2.184-0.162c0,0-3.801,3.073-4.609,3.073
	c-1.86-0.08-6.146,2.346-6.146,2.346l-2.83,2.506c0,0-2.185,3.235-3.479,3.721c-1.293,0.485-1.779,2.749-4.367,5.418
	c-0.646,0.648-1.859,4.611-1.859,4.611s-0.082,0.162-0.324,0.485l-2.103,2.265c0.081,0.484-0.082,1.293-0.243,2.102
	c-0.323,0.729-0.565,1.537-0.809,2.346c0,0.163-0.08,0.243-0.242,0.404c-0.728,0.81-4.449,5.338-4.529,5.905
	c-0.162,0.564-0.162,1.454,0.405,1.617c0.404,0.163,2.264,0.647,2.264,1.051c0,0.404-0.081,0.971-0.325,1.617
	c-0.241,0.647-0.483,1.132-0.483,1.132l-0.161,0.729c0,0-0.163,0.565-0.242,1.133c-0.082,0.566-0.163,2.102-0.891,3.154
	c-0.729,1.132-0.809,2.911-0.486,3.802c0.243,0.727,2.185,3.478,2.832,4.285c0.081,0.485,0.241,1.053,0.241,1.053l1.052-4.449
	c-0.323-2.346,0.971-3.154,0.971-3.883c-0.079-1.211,0.324-5.66,0.486-6.389c0.242-0.646,0.566-4.852,0.484-5.257
	c-0.08-0.404,1.698-3.559,1.859-3.802c0.082,0,0.566-2.507,0.891-4.124l0.646-1.698c0.809-0.728,2.589-2.509,2.751-3.478
	c0.161-1.78,2.183-4.449,2.749-4.935c0.729-0.646,4.286-4.206,4.286-4.206s3.965-4.043,4.772-4.609
	c0.809-0.565,5.499-2.183,5.499-2.183s1.698-1.296,3.398-2.184C64.297,4.898,65.834,4.816,67.937,4.088"/>
<path fill="#3D3D3B" d="M82.009,28.836c0.404-0.404,0.404-0.808,0.811-1.051c0.484-0.324,1.212-0.485,1.778-0.566
	c0.567-0.08,1.052-0.08,1.052-0.08c-1.456-1.052-2.75-1.052-3.721-0.73c-0.486,0.162-1.133,0.567-1.537,0.73
	c-0.729,0.242-1.617,0.404-2.588,0.322c0,0-0.971,0.729-1.294,0.971c-0.567,0.323-1.214,0.566-1.941,0.647
	c-0.727,0.08-2.346,1.375-2.831,1.942c-0.404,0.565-2.021,0.808-2.021,1.859c0,1.052-0.485,1.617,0.808,1.78
	c1.213,0.161,3.559-1.052,4.287-2.751c0.242-0.647,1.778-1.698,2.506-1.617c0.566,0,1.052-0.161,1.781-0.242
	C80.148,29.808,81.604,29.16,82.009,28.836"/>
<path fill="#3D3D3B" d="M86.295,38.057c-0.484,0.162-1.212,0.485-1.616,0.565c-0.162,0-0.809,0.163-0.971,0.244
	c-0.081,0-3.074,0.646-3.316,1.294c-0.323,0.566-1.536,2.021-1.375,2.912c0.162,0.889,0.972,0.485,1.375-0.162
	c0.404-0.648,0.162-0.324,1.778-0.891c1.134-0.403,1.943-0.403,2.589-0.565c0.324,0,0.728-0.161,1.214-0.404
	c0.485-0.243,0.809-1.294,1.213-1.537c0.485-0.324,1.213-0.485,1.78-0.565c0.564-0.081,1.051-0.081,1.051-0.081
	C88.561,37.733,87.267,37.733,86.295,38.057"/>
<path fill="#3D3D3B" d="M3.56,65.393c-1.7,0-2.913,1.214-2.913,2.911c0,1.618,0.972,2.83,2.913,2.83h0.403v0.568H3.56
	c-2.187,0-3.479-1.375-3.56-3.398c0-1.939,1.455-3.477,3.478-3.477h0.485v0.485C3.801,65.393,3.64,65.393,3.56,65.393"/>
<path fill="#3D3D3B" d="M17.389,70.004l1.052,1.616h-0.729l-0.808-1.375c-0.324,0.162-0.647,0.242-1.132,0.242
	c-0.162,0-0.485,0-0.648-0.08v1.213h-0.566v-6.713h0.486c1.779,0,3.559,0.728,3.559,2.832
	C18.602,68.628,18.197,69.518,17.389,70.004 M15.286,65.393h-0.082v4.529c0.162,0.082,0.405,0.082,0.567,0.082
	c1.132,0.08,2.265-0.81,2.265-2.265C17.954,66.123,16.661,65.393,15.286,65.393"/>
<path fill="#3D3D3B" d="M33.078,71.621l-0.484-1.213h-2.911l-0.406,1.213h-0.564l2.506-6.955l2.507,6.955H33.078z M31.138,66.283
	l-1.295,3.559h2.589L31.138,66.283z"/>
<polygon fill="#3D3D3B" points="43.836,71.621 46.909,65.393 44.239,65.393 44.239,64.908 47.799,64.908 44.725,71.134 
	47.799,71.134 47.799,71.702 43.836,71.702 "/>
<polygon fill="#3D3D3B" points="60.658,67.739 60.658,71.702 60.011,71.702 60.011,67.739 57.988,64.908 58.717,64.908 
	60.335,67.255 61.951,64.908 62.598,64.908 "/>
<path fill="#3D3D3B" d="M74.487,71.703h-1.455V64.99c0.162,0,0.566-0.082,0.89-0.082c0.889,0,1.779,0.485,1.779,1.457
	c0,0.404-0.243,0.971-0.647,1.131c1.132,0,2.021,0.89,2.021,2.022C77.075,71.134,75.862,71.703,74.487,71.703 M74.164,67.899v-0.483
	c0.646-0.08,0.89-0.404,0.89-1.051c0-0.647-0.646-0.972-1.294-0.972h-0.243v5.741h0.971c1.052,0,1.861-0.483,1.861-1.616
	C76.43,68.224,75.296,67.899,74.164,67.899"/>
<polygon fill="#3D3D3B" points="87.589,71.621 87.589,64.908 90.663,64.908 90.663,65.393 88.156,65.393 88.156,67.173 
	89.854,67.173 89.854,67.739 88.156,67.739 88.156,71.134 90.744,71.134 90.744,71.702 87.589,71.702 "/>
<path fill="#3D3D3B" d="M105.383,71.621l-0.404-1.213h-2.993l-0.404,1.213h-0.564l2.506-6.955l2.507,6.955H105.383z M103.522,66.283
	l-1.294,3.559h2.589L103.522,66.283z"/>
<path fill="#3D3D3B" d="M119.296,70.004l1.05,1.616h-0.729l-0.81-1.375c-0.322,0.162-0.646,0.242-1.132,0.242
	c-0.162,0-0.484,0-0.647-0.08v1.213h-0.564v-6.713h0.484c1.78,0,3.56,0.728,3.56,2.832
	C120.508,68.628,120.103,69.518,119.296,70.004 M117.11,65.393h-0.082v4.529c0.163,0.082,0.406,0.082,0.565,0.082
	c1.135,0.08,2.265-0.81,2.265-2.265C119.858,66.123,118.566,65.393,117.11,65.393"/>
<path fill="#3D3D3B" d="M31.218,87.634c-2.103,0-3.315-1.374-3.315-3.396c0-2.021,1.294-3.396,3.315-3.396h0.406v0.485
	c-1.781-0.243-3.236,0.971-3.236,2.749c0,1.699,0.889,3.074,2.668,3.074h0.243v-3.803h-1.375v-0.564h2.104v4.771
	C31.785,87.634,31.542,87.634,31.218,87.634"/>
<path fill="#3D3D3B" d="M45.614,85.936l1.051,1.618h-0.726l-0.81-1.375c-0.324,0.162-0.646,0.242-1.133,0.242
	c-0.161,0-0.485,0-0.646-0.08v1.213h-0.567v-6.713h0.485c1.779,0,3.56,0.728,3.56,2.832C46.828,84.562,46.425,85.452,45.614,85.936
	 M43.512,81.327H43.43v4.529c0.164,0.08,0.406,0.08,0.567,0.08c1.133,0.082,2.264-0.808,2.264-2.263
	C46.261,82.054,44.888,81.327,43.512,81.327"/>
<path fill="#3D3D3B" d="M60.335,87.716c-1.941,0-3.074-1.78-3.074-3.559c0-1.859,1.133-3.479,3.074-3.479
	c1.94,0,3.072,1.698,3.072,3.479C63.407,86.099,62.355,87.716,60.335,87.716 M60.335,81.245c-1.618,0-2.508,1.457-2.508,2.992
	c0,1.456,0.89,2.993,2.508,2.993c1.697,0,2.506-1.455,2.506-2.993C62.841,82.702,61.951,81.245,60.335,81.245"/>
<path fill="#3D3D3B" d="M75.862,87.634c-1.294,0-1.859-0.728-1.859-1.941v-4.852h0.565v4.852c0,0.89,0.243,1.457,1.294,1.457
	c0.971,0,1.295-0.567,1.295-1.457v-4.852h0.566v4.852C77.724,86.907,77.157,87.634,75.862,87.634"/>
<path fill="#3D3D3B" d="M90.339,86.421c-0.404,0-0.969-0.08-1.214-0.403v1.536h-0.564v-6.713h1.133c1.778,0,2.991,1.051,2.991,2.91
	C92.685,85.128,91.796,86.421,90.339,86.421 M90.017,81.406c-0.242,0-0.404,0-0.892-0.079v4.125
	c0.325,0.241,0.568,0.323,1.053,0.323c1.294,0,1.859-0.971,1.859-2.184C92.037,82.458,91.229,81.569,90.017,81.406"/>
</svg>
