<?xml version="1.0" encoding="utf-8"?>
<!-- Generator: Adobe Illustrator 16.0.0, SVG Export Plug-In . SVG Version: 6.00 Build 0)  -->
<!DOCTYPE svg PUBLIC "-//W3C//DTD SVG 1.1//EN" "http://www.w3.org/Graphics/SVG/1.1/DTD/svg11.dtd">
<svg version="1.1" id="Layer_1" xmlns="http://www.w3.org/2000/svg" xmlns:xlink="http://www.w3.org/1999/xlink" x="0px" y="0px"
	 width="100px" height="100px" viewBox="0 0 100 100" enable-background="new 0 0 100 100" xml:space="preserve">
<g>
	<path fill="#3C3C3B" d="M41.553,87.009c-0.421,0-0.834-0.202-1.086-0.578c-0.402-0.6-0.242-1.411,0.357-1.812l8.851-5.934
		c-5.301-0.091-10.563-1.817-15.213-5.053C28.53,69.505,24.217,63.237,22.63,56.436c-2.23-9.506,0.538-19.337,7.405-26.296
		c0.507-0.513,1.334-0.519,1.847-0.013c0.514,0.507,0.519,1.333,0.012,1.847c-6.232,6.316-8.745,15.238-6.721,23.866
		c2.847,12.195,14.549,20.894,26.402,20.184l-9.841-8.282c-0.552-0.464-0.623-1.289-0.159-1.841c0.465-0.552,1.289-0.622,1.84-0.157
		l12.086,10.171c0.314,0.265,0.486,0.661,0.463,1.07c-0.021,0.379-0.204,0.728-0.501,0.959c-0.078,0.07-0.166,0.13-0.261,0.18
		l-12.924,8.664C42.056,86.938,41.803,87.009,41.553,87.009z"/>
	<path fill="#3C3C3B" d="M67.73,71.495c-0.36,0-0.72-0.149-0.978-0.44c-0.479-0.54-0.429-1.366,0.111-1.844
		c7.067-6.257,10.122-15.856,7.974-25.052c-1.637-7.005-6.184-13.186-12.479-16.958c-5.313-3.184-11.371-4.346-17.296-3.362
		l10.01,8.418c0.552,0.464,0.623,1.288,0.159,1.84c-0.464,0.552-1.288,0.624-1.84,0.159L41.307,24.093
		c-0.314-0.264-0.485-0.661-0.463-1.07c0.022-0.41,0.236-0.785,0.577-1.014l13.115-8.796c0.599-0.402,1.41-0.242,1.812,0.357
		c0.401,0.599,0.242,1.41-0.357,1.812l-8.262,5.542c5.524-0.29,11.043,1.082,15.975,4.038c6.897,4.133,11.884,10.914,13.679,18.603
		c2.368,10.132-0.998,20.708-8.785,27.603C68.348,71.387,68.039,71.495,67.73,71.495z"/>
</g>
<rect x="-148.641" y="-40.464" fill="none" width="139.802" height="183.902"/>
</svg>
