<?xml version="1.0" encoding="utf-8"?>
<!-- Generator: Adobe Illustrator 16.0.0, SVG Export Plug-In . SVG Version: 6.00 Build 0)  -->
<!DOCTYPE svg PUBLIC "-//W3C//DTD SVG 1.1//EN" "http://www.w3.org/Graphics/SVG/1.1/DTD/svg11.dtd">
<svg version="1.1" id="Layer_1" xmlns="http://www.w3.org/2000/svg" xmlns:xlink="http://www.w3.org/1999/xlink" x="0px" y="0px"
	 width="100px" height="100px" viewBox="0 0 100 100" enable-background="new 0 0 100 100" xml:space="preserve">
<g>
	<g>
		<path fill="#3C3C3B" d="M74.781,80.227c-8.402,0-15.238-6.837-15.238-15.24c0-5.422,2.846-10.191,7.121-12.894l-1.241-4.705
			c-11.11,6.559-14.211,17.923-14.242,18.044c-0.203,0.769-0.897,1.305-1.693,1.305h-3.334c-0.024,0-0.048,0-0.073,0h-6.746
			c-0.871,7.582-7.329,13.49-15.14,13.49c-8.403,0-15.24-6.837-15.24-15.24s6.836-15.24,15.24-15.24
			c2.319,0,4.518,0.521,6.488,1.451c1.473-1.532,3.02-2.835,4.611-3.943l-5.435-10.87h-2.292c-0.966,0-1.75-0.784-1.75-1.75
			s0.784-1.75,1.75-1.75h3.336c0.024-0.001,0.048-0.001,0.073,0h6.709c0.966,0,1.75,0.784,1.75,1.75s-0.784,1.75-1.75,1.75h-3.913
			l4.517,9.033c9.902-5.306,20.727-4.062,25.82-3.014l-2.822-10.698c-0.038-0.146-0.058-0.295-0.058-0.446
			c0-2.824,2.298-5.121,5.123-5.121c0.895,0,1.622-0.728,1.622-1.623c0-0.894-0.728-1.621-1.622-1.621h-6.746
			c-0.967,0-1.75-0.784-1.75-1.75s0.783-1.75,1.75-1.75h6.746c2.824,0,5.122,2.297,5.122,5.121c0,2.825-2.298,5.123-5.122,5.123
			c-0.832,0-1.52,0.628-1.612,1.435l5.139,19.482c1.539-0.524,3.188-0.809,4.903-0.809c8.404,0,15.242,6.837,15.242,15.24
			S83.186,80.227,74.781,80.227z M67.613,55.694c-2.778,2.149-4.57,5.516-4.57,9.292c0,6.474,5.266,11.74,11.738,11.74
			c6.475,0,11.742-5.267,11.742-11.74s-5.268-11.74-11.742-11.74c-1.407,0-2.757,0.249-4.008,0.705l2.267,8.595l2.305,0.783
			c0.915,0.312,1.404,1.306,1.094,2.221c-0.312,0.915-1.305,1.406-2.221,1.094l-3.193-1.086c-0.556-0.189-0.979-0.644-1.129-1.211
			L67.613,55.694z M24.195,53.246c-6.473,0-11.74,5.267-11.74,11.74s5.267,11.74,11.74,11.74c5.879,0,10.762-4.344,11.61-9.99
			h-11.61c-0.578,0-1.118-0.285-1.444-0.762s-0.396-1.084-0.187-1.622c1.608-4.138,3.554-7.554,5.723-10.371
			C27.012,53.506,25.633,53.246,24.195,53.246z M47.197,63.236h1.009c1.134-3.247,4.807-11.775,13.672-17.751
			c-5.035-0.901-13.898-1.486-22.052,3.007L47.197,63.236z M39.335,63.236h3.949L36.86,50.388c-1.078,0.792-2.131,1.688-3.15,2.702
			C36.769,55.541,38.865,59.146,39.335,63.236z M26.831,63.236h8.974c-0.458-3.051-2.094-5.721-4.428-7.531
			C29.707,57.81,28.172,60.296,26.831,63.236z"/>
	</g>
</g>
</svg>
