<?xml version="1.0" encoding="utf-8"?>
<!-- Generator: Adobe Illustrator 16.0.0, SVG Export Plug-In . SVG Version: 6.00 Build 0)  -->
<!DOCTYPE svg PUBLIC "-//W3C//DTD SVG 1.1//EN" "http://www.w3.org/Graphics/SVG/1.1/DTD/svg11.dtd">
<svg version="1.1" id="Layer_1" xmlns="http://www.w3.org/2000/svg" xmlns:xlink="http://www.w3.org/1999/xlink" x="0px" y="0px"
	 width="100px" height="100px" viewBox="0 0 100 100" enable-background="new 0 0 100 100" xml:space="preserve">
<g>
	<path fill="#3C3C3B" d="M68.957,82.83H63.82c-0.828,0-1.5-0.672-1.5-1.5v-4.242H36.949v4.242c0,0.828-0.671,1.5-1.5,1.5h-5.137
		c-0.829,0-1.5-0.672-1.5-1.5v-4.242h-1.069c-0.829,0-1.5-0.672-1.5-1.5V26.789c0-5.075,4.13-9.203,9.206-9.203h28.25
		c5.076,0,9.205,4.128,9.205,9.203v15.41c0,0.829-0.672,1.5-1.5,1.5h-1.066l-0.001,7.489l0.001,7.489h1.066
		c0.828,0,1.5,0.672,1.5,1.5v15.41c0,0.828-0.672,1.5-1.5,1.5h-0.947v4.242C70.457,82.158,69.785,82.83,68.957,82.83z M65.32,79.83
		h2.137v-2.742H65.32V79.83z M31.812,79.83h2.137v-2.742h-2.137V79.83z M68.957,74.088h0.947v-2.137h-6.205
		c-0.828,0-1.5-0.672-1.5-1.5v-5.137c0-0.828,0.672-1.5,1.5-1.5h6.205v-2.137h-1.067l0,0h-7.705c-0.828,0-1.5-0.672-1.5-1.5V42.199
		c0-0.829,0.672-1.5,1.5-1.5h8.772v-13.91c0-3.42-2.783-6.203-6.205-6.203h-28.25c-3.422,0-6.206,2.783-6.206,6.203v13.91h24.185
		c0.828,0,1.5,0.671,1.5,1.5v17.979c0,0.828-0.672,1.5-1.5,1.5H29.243v2.137h6.206c0.829,0,1.5,0.672,1.5,1.5v5.137
		c0,0.828-0.671,1.5-1.5,1.5h-6.206v2.137h7.846l3.439-6.876c0.254-0.508,0.773-0.829,1.341-0.829h15.408
		c0.568,0,1.088,0.321,1.342,0.829l3.438,6.876H68.957z M40.443,74.088h18.261l-2.353-4.705H42.797L40.443,74.088z M65.199,68.951
		h4.705v-2.137h-4.705V68.951z M29.243,68.951h4.706v-2.137h-4.706V68.951z M62.632,58.678h4.706l-0.002-14.979h-4.704V58.678z
		 M29.243,58.678h22.685V43.699H29.243V58.678z M66.268,38.562H32.881c-0.829,0-1.5-0.671-1.5-1.5v-7.703c0-0.829,0.671-1.5,1.5-1.5
		h33.387c0.828,0,1.5,0.671,1.5,1.5v7.703C67.768,37.891,67.096,38.562,66.268,38.562z M34.381,35.562h30.387v-4.703H34.381V35.562z
		"/>
</g>
</svg>
