<?xml version="1.0" encoding="utf-8"?>
<!-- Generator: Adobe Illustrator 16.0.0, SVG Export Plug-In . SVG Version: 6.00 Build 0)  -->
<!DOCTYPE svg PUBLIC "-//W3C//DTD SVG 1.1//EN" "http://www.w3.org/Graphics/SVG/1.1/DTD/svg11.dtd">
<svg version="1.1" id="Layer_1" xmlns="http://www.w3.org/2000/svg" xmlns:xlink="http://www.w3.org/1999/xlink" x="0px" y="0px"
	 width="100px" height="100px" viewBox="0 0 100 100" enable-background="new 0 0 100 100" xml:space="preserve">
<g>
	<g>
		<path fill="#3C3C3B" d="M11.389,69.76c-0.73,0-1.463-0.013-2.204-0.04l0.128-3.498c13.949,0.517,25.961-4.151,36.589-14.235H9.221
			v-3.5h36.741C35.319,38.363,23.294,33.685,9.313,34.194l-0.128-3.498c15.761-0.568,29.176,4.984,40.953,16.991
			c11.922-12,25.347-17.548,40.933-16.988l-0.129,3.498c-14.034-0.518-25.771,4.042-36.615,14.289h36.618v3.5H54.387
			c10.827,10.208,22.538,14.753,36.556,14.232l0.129,3.498c-15.582,0.562-29.011-4.987-40.933-16.988
			C38.915,64.172,26.204,69.76,11.389,69.76z"/>
	</g>
</g>
</svg>
