<?xml version="1.0" encoding="utf-8"?>
<!-- Generator: Adobe Illustrator 16.0.0, SVG Export Plug-In . SVG Version: 6.00 Build 0)  -->
<!DOCTYPE svg PUBLIC "-//W3C//DTD SVG 1.1//EN" "http://www.w3.org/Graphics/SVG/1.1/DTD/svg11.dtd">
<svg version="1.1" id="Layer_1" xmlns="http://www.w3.org/2000/svg" xmlns:xlink="http://www.w3.org/1999/xlink" x="0px" y="0px"
	 width="100px" height="100px" viewBox="0 0 100 100" enable-background="new 0 0 100 100" xml:space="preserve">
<g>
	<path fill="#3C3C3B" d="M24.762,80.784c-4.904,0-8.894-3.99-8.894-8.896s3.99-8.896,8.894-8.896c3.574,0,6.662,2.118,8.076,5.164
		l33.5-14.703c-0.241-0.806-0.37-1.658-0.37-2.541c0-0.779,0.101-1.534,0.29-2.254L32.036,33.642
		c-1.612,2.283-4.271,3.777-7.273,3.777c-4.904,0-8.894-3.989-8.894-8.892c0-4.905,3.99-8.896,8.894-8.896
		c4.906,0,8.896,3.991,8.896,8.896c0,0.657-0.072,1.297-0.208,1.914l34.35,15.072c1.627-2.122,4.188-3.492,7.064-3.492
		c4.903,0,8.893,3.989,8.893,8.892c0,4.906-3.989,8.897-8.893,8.897c-2.768,0-5.244-1.271-6.877-3.258L33.737,71.585
		c-0.027,0.012-0.055,0.023-0.083,0.034c0.002,0.09,0.004,0.179,0.004,0.27C33.659,76.794,29.668,80.784,24.762,80.784z
		 M24.762,66.493c-2.974,0-5.394,2.421-5.394,5.396c0,2.976,2.42,5.396,5.394,5.396c2.976,0,5.396-2.42,5.396-5.396
		C30.159,68.914,27.738,66.493,24.762,66.493z M74.865,45.521c-2.977,0-5.397,2.418-5.397,5.392c0,2.977,2.421,5.397,5.397,5.397
		c2.974,0,5.393-2.421,5.393-5.397C80.258,47.94,77.839,45.521,74.865,45.521z M24.762,23.132c-2.974,0-5.394,2.42-5.394,5.396
		c0,2.973,2.42,5.392,5.394,5.392c2.976,0,5.396-2.418,5.396-5.392C30.159,25.552,27.738,23.132,24.762,23.132z"/>
</g>
</svg>
