<?xml version="1.0" encoding="utf-8"?>
<!-- Generator: Adobe Illustrator 16.0.0, SVG Export Plug-In . SVG Version: 6.00 Build 0)  -->
<!DOCTYPE svg PUBLIC "-//W3C//DTD SVG 1.1//EN" "http://www.w3.org/Graphics/SVG/1.1/DTD/svg11.dtd">
<svg version="1.1" id="Layer_1" xmlns="http://www.w3.org/2000/svg" xmlns:xlink="http://www.w3.org/1999/xlink" x="0px" y="0px"
	 width="100px" height="100px" viewBox="0 0 100 100" enable-background="new 0 0 100 100" xml:space="preserve">
<g>
	<path fill="#3C3C3B" stroke="#3C3C3B" stroke-width="0.5" stroke-miterlimit="10" d="M42.739,80.84l7.283-22.568h9.249L46.18,80.84
		H42.739z M19.278,63.545h-1.466v-8.137c2.321,1.194,5.057,1.994,7.116,2.406h0.003c0.048,0.003,0.097,0.01,0.152,0.021
		L19.278,63.545z M15.554,49.846c0-1.949,4.511-4.481,9.854-5.536c1.38-0.275,2.692-0.422,3.798-0.422h46.664
		c4.781,0,8.669,2.676,8.669,5.958c0,3.286-3.888,5.957-8.669,5.957H29.206c-1.105,0-2.418-0.146-3.798-0.415
		C20.065,54.332,15.554,51.794,15.554,49.846 M17.812,36.073h1.466l5.867,5.769c-0.07,0.021-0.142,0.031-0.213,0.041h-0.003
		c-2.059,0.412-4.795,1.209-7.116,2.399V36.073z M50.022,41.342l-7.283-22.564h3.441l13.09,22.564H50.022z M47.958,82.695
		l4.738-8.169h1.55c1.031,0,1.868-0.834,1.868-1.867c0-0.831-0.548-1.536-1.3-1.778l2.426-4.187h1.836
		c1.027,0,1.868-0.834,1.868-1.868c0-0.922-0.673-1.69-1.553-1.837l2.736-4.718h13.741c2.903,0,5.646-0.831,7.729-2.34
		c2.195-1.6,3.41-3.761,3.41-6.086s-1.215-4.487-3.41-6.08c-2.082-1.516-4.825-2.344-7.729-2.344H62.171l-2.779-4.794
		c0.88-0.149,1.553-0.914,1.553-1.836c0-1.031-0.841-1.87-1.868-1.87H57.24l-2.426-4.187c0.752-0.24,1.3-0.945,1.3-1.783
		c0-1.03-0.837-1.862-1.868-1.862h-1.55l-4.738-8.167c-0.22-0.385-0.63-0.614-1.069-0.614h-5.848c-0.395,0-0.765,0.185-0.994,0.506
		c-0.16,0.209-0.238,0.468-0.238,0.723c0,0.129,0.018,0.259,0.058,0.381l7.588,23.504H29.206c-0.302,0-0.618,0.012-0.942,0.028
		l-7.612-7.49c-0.229-0.23-0.54-0.359-0.864-0.359h-3.211c-0.682,0-1.233,0.555-1.233,1.24v11.023
		c-1.357,1.11-2.256,2.44-2.256,3.981c0,1.543,0.899,2.867,2.256,3.98v10.951c0,0.684,0.552,1.232,1.233,1.232h3.211
		c0.324,0,0.635-0.123,0.864-0.346l7.535-7.424c0.353,0.024,0.69,0.031,1.019,0.031h18.226l-7.564,23.428
		c-0.04,0.123-0.058,0.252-0.058,0.374c0,0.263,0.078,0.521,0.238,0.729c0.229,0.321,0.599,0.509,0.994,0.509h5.848
		C47.328,83.312,47.738,83.079,47.958,82.695"/>
</g>
</svg>
