<?xml version="1.0" encoding="utf-8"?>
<!-- Generator: Adobe Illustrator 16.0.0, SVG Export Plug-In . SVG Version: 6.00 Build 0)  -->
<!DOCTYPE svg PUBLIC "-//W3C//DTD SVG 1.1//EN" "http://www.w3.org/Graphics/SVG/1.1/DTD/svg11.dtd">
<svg version="1.1" id="Layer_1" xmlns="http://www.w3.org/2000/svg" xmlns:xlink="http://www.w3.org/1999/xlink" x="0px" y="0px"
	 width="100px" height="100px" viewBox="0 0 100 100" enable-background="new 0 0 100 100" xml:space="preserve">
<g>
	<g>
		
			<rect x="29.766" y="32.381" transform="matrix(0.8991 0.4378 -0.4378 0.8991 19.7537 -17.4277)" fill="#3C3C3B" width="35.823" height="3.5"/>
		
			<rect x="45.927" y="32.193" transform="matrix(0.4378 0.8991 -0.8991 0.4378 71.8503 -14.6962)" fill="#3C3C3B" width="3.5" height="35.823"/>
		
			<rect x="29.765" y="63.738" transform="matrix(0.8991 0.4378 -0.4378 0.8991 33.4832 -14.2635)" fill="#3C3C3B" width="35.823" height="3.5"/>
	</g>
	<rect x="8.506" y="40.631" fill="#3C3C3B" width="82.134" height="3.5"/>
	<rect x="8.506" y="56.016" fill="#3C3C3B" width="82.134" height="3.5"/>
	
		<rect x="29.766" y="32.381" transform="matrix(0.8991 0.4378 -0.4378 0.8991 19.7537 -17.4277)" fill="#3C3C3B" width="35.823" height="3.5"/>
	
		<rect x="45.927" y="32.193" transform="matrix(0.4378 0.8991 -0.8991 0.4378 71.8503 -14.6962)" fill="#3C3C3B" width="3.5" height="35.823"/>
	
		<rect x="29.765" y="63.738" transform="matrix(0.8991 0.4378 -0.4378 0.8991 33.4832 -14.2635)" fill="#3C3C3B" width="35.823" height="3.5"/>
</g>
</svg>
