<?xml version="1.0" encoding="utf-8"?>
<!-- Generator: Adobe Illustrator 16.0.0, SVG Export Plug-In . SVG Version: 6.00 Build 0)  -->
<!DOCTYPE svg PUBLIC "-//W3C//DTD SVG 1.1//EN" "http://www.w3.org/Graphics/SVG/1.1/DTD/svg11.dtd">
<svg version="1.1" id="Layer_1" xmlns="http://www.w3.org/2000/svg" xmlns:xlink="http://www.w3.org/1999/xlink" x="0px" y="0px"
	 width="100px" height="100px" viewBox="0 0 100 100" enable-background="new 0 0 100 100" xml:space="preserve">
<g>
	<g>
		<path fill="#3C3C3B" d="M88.158,64.544H12.07c-0.829,0-1.5-0.672-1.5-1.5V39.886c0-2.652,2.156-4.81,4.807-4.81h3.31
			c0.829,0,1.5,0.671,1.5,1.5c0,1.185,4.255,3.462,10.076,3.462c6.952,0,10.079-2.024,10.079-3.462c0-0.488,0.237-0.945,0.636-1.226
			c0.398-0.281,0.909-0.351,1.369-0.187l44.119,15.761c1.907,0.671,3.192,2.492,3.192,4.526v7.594
			C89.658,63.872,88.986,64.544,88.158,64.544z M13.57,61.544h73.088V55.45c0-0.764-0.48-1.446-1.195-1.698L42.867,38.535
			c-1.442,2.79-6.073,4.503-12.604,4.503c-5.458,0-11.292-1.861-12.738-4.962h-2.148c-0.997,0-1.807,0.812-1.807,1.81V61.544z"/>
		<rect x="12.069" y="54.925" fill="#3C3C3B" width="76.088" height="3"/>
	</g>
	<path fill="#3C3C3B" d="M53.421,46.346c-0.384,0-0.767-0.146-1.06-0.438c-0.587-0.585-0.587-1.535-0.002-2.121l3.043-3.048
		c0.586-0.587,1.535-0.587,2.121-0.002c0.587,0.585,0.587,1.535,0.002,2.121l-3.043,3.048
		C54.189,46.199,53.805,46.346,53.421,46.346z M46.804,44.694c-0.383,0-0.766-0.146-1.059-0.437
		c-0.587-0.585-0.589-1.535-0.004-2.122l3.559-3.573c0.585-0.587,1.536-0.589,2.121-0.004c0.587,0.585,0.589,1.535,0.005,2.122
		l-3.559,3.573C47.574,44.547,47.189,44.694,46.804,44.694z"/>
	<g>
		<path fill="#3C3C3B" d="M51.613,56.425h-3v-1.651c0-3.564,2.898-6.465,6.462-6.465h9.926c0.879,0,1.808-1.171,1.808-2.279h3
			c0,2.497-1.975,5.279-4.808,5.279h-9.926c-1.909,0-3.462,1.555-3.462,3.465V56.425z"/>
		<path fill="#3C3C3B" d="M21.994,57.925c-0.829,0-1.5-0.672-1.5-1.5c0-4.644-3.779-8.422-8.424-8.422c-0.829,0-1.5-0.671-1.5-1.5
			s0.671-1.5,1.5-1.5c6.299,0,11.424,5.124,11.424,11.422C23.494,57.253,22.823,57.925,21.994,57.925z"/>
	</g>
</g>
</svg>
